<mxfile host="app.diagrams.net" modified="2023-08-11T07:50:52.460Z" agent="Mozilla/5.0 (Macintosh; Intel Mac OS X 10_15_7) AppleWebKit/605.1.15 (KHTML, like Gecko) Version/16.6 Safari/605.1.15" etag="6KaLWH3TUg-xCPcgyLgg" version="21.6.5" type="github">
  <diagram name="Page-1" id="hg0ki9G5doFn1Kx-fcaq">
    <mxGraphModel dx="3816" dy="2588" grid="1" gridSize="10" guides="1" tooltips="1" connect="1" arrows="1" fold="1" page="1" pageScale="1" pageWidth="1200" pageHeight="1200" math="0" shadow="0">
      <root>
        <mxCell id="0" />
        <mxCell id="1" parent="0" />
        <mxCell id="Wa40OCxVbB49ns8dWp_5-5" value="" style="shape=image;verticalLabelPosition=bottom;labelBackgroundColor=default;verticalAlign=top;aspect=fixed;imageAspect=0;image=data:image/png,iVBORw0KGgoAAAANSUhEUgAABkAAAAZACAYAAAAhDI6nAAAAAXNSR0IArs4c6QAAAARzQklUCAgICHwIZIgAAAAJcEhZcwAADsQAAA7EAZUrDhsAAARuaVRYdFhNTDpjb20uYWRvYmUueG1wAAAAAAA8P3hwYWNrZXQgYmVnaW49J++7vycgaWQ9J1c1TTBNcENlaGlIenJlU3pOVGN6a2M5ZCc/Pgo8eDp4bXBtZXRhIHhtbG5zOng9J2Fkb2JlOm5zOm1ldGEvJz4KPHJkZjpSREYgeG1sbnM6cmRmPSdodHRwOi8vd3d3LnczLm9yZy8xOTk5LzAyLzIyLXJkZi1zeW50YXgtbnMjJz4KCiA8cmRmOkRlc2NyaXB0aW9uIHJkZjphYm91dD0nJwogIHhtbG5zOkF0dHJpYj0naHR0cDovL25zLmF0dHJpYnV0aW9uLmNvbS9hZHMvMS4wLyc+CiAgPEF0dHJpYjpBZHM+CiAgIDxyZGY6U2VxPgogICAgPHJkZjpsaSByZGY6cGFyc2VUeXBlPSdSZXNvdXJjZSc+CiAgICAgPEF0dHJpYjpDcmVhdGVkPjIwMjMtMDctMjg8L0F0dHJpYjpDcmVhdGVkPgogICAgIDxBdHRyaWI6RXh0SWQ+NWQwMzllYmItMWMwNi00YmVmLWFiNWMtNjkwYjhkMTY0YWVhPC9BdHRyaWI6RXh0SWQ+CiAgICAgPEF0dHJpYjpGYklkPjUyNTI2NTkxNDE3OTU4MDwvQXR0cmliOkZiSWQ+CiAgICAgPEF0dHJpYjpUb3VjaFR5cGU+MjwvQXR0cmliOlRvdWNoVHlwZT4KICAgIDwvcmRmOmxpPgogICA8L3JkZjpTZXE+CiAgPC9BdHRyaWI6QWRzPgogPC9yZGY6RGVzY3JpcHRpb24+CgogPHJkZjpEZXNjcmlwdGlvbiByZGY6YWJvdXQ9JycKICB4bWxuczpkYz0naHR0cDovL3B1cmwub3JnL2RjL2VsZW1lbnRzLzEuMS8nPgogIDxkYzp0aXRsZT4KICAgPHJkZjpBbHQ+CiAgICA8cmRmOmxpIHhtbDpsYW5nPSd4LWRlZmF1bHQnPm5vbi1wcm9kdWN0aW9uIC0gMTwvcmRmOmxpPgogICA8L3JkZjpBbHQ+CiAgPC9kYzp0aXRsZT4KIDwvcmRmOkRlc2NyaXB0aW9uPgoKIDxyZGY6RGVzY3JpcHRpb24gcmRmOmFib3V0PScnCiAgeG1sbnM6cGRmPSdodHRwOi8vbnMuYWRvYmUuY29tL3BkZi8xLjMvJz4KICA8cGRmOkF1dGhvcj5TYW1teSBNSDwvcGRmOkF1dGhvcj4KIDwvcmRmOkRlc2NyaXB0aW9uPgoKIDxyZGY6RGVzY3JpcHRpb24gcmRmOmFib3V0PScnCiAgeG1sbnM6eG1wPSdodHRwOi8vbnMuYWRvYmUuY29tL3hhcC8xLjAvJz4KICA8eG1wOkNyZWF0b3JUb29sPkNhbnZhPC94bXA6Q3JlYXRvclRvb2w+CiA8L3JkZjpEZXNjcmlwdGlvbj4KPC9yZGY6UkRGPgo8L3g6eG1wbWV0YT4KPD94cGFja2V0IGVuZD0ncic/PlnVBRcAACAASURBVHic7N13lNTlvT/wz9LbUgQEBKNkQUAQUaKICooSDRessYBiROzxp0G9sUdJvHavGo2xoIjlioYkpmgUFQF7BywUQQiigCB1gaXP7w/vzgWFZVl3+e5+9/U6Z86ZzDzzfN8zw+wx857v8+RkMplMAAAAAAAApEiVpAMAAAAAAACUNgUIAAAAAACQOgoQAAAAAAAgdRQgAAAAAABA6ihAAAAAAACA1FGAAAAAAAAAqaMAAQAAAAAAUkcBAgAAAAAApI4CBAAAAAAASB0FCAAAAAAAkDoKEAAAAAAAIHUUIAAAAAAAQOooQAAAAAAAgNRRgAAAAAAAAKmjAAEAAAAAAFJHAQIAAAAAAKSOAgQAAAAAAEgdBQgAAAAAAJA6ChAAAAAAACB1FCAAAAAAAEDqKEAAAAAAAIDUUYAAAAAAAACpowABAAAAAABSRwECAAAAAACkjgIEAAAAAABIHQUIAAAAAACQOgoQAAAAAAAgdRQgAAAAAABA6ihAAAAAAACA1FGAAAAAAAAAqaMAAQAAAAAAUkcBAgAAAAAApI4CBAAAAAAASB0FCAAAAAAAkDoKEAAAAAAAIHUUIAAAAAAAQOooQAAAAAAAgNRRgAAAUClkMpl4/PHH49prr40pU6YkHWeHGDZsWAwZMiQ+/PDDpKNUCE8//XQMGTIkhgwZEitXrkw6zg6Tls/GLbfcEkOGDImvvvoq6SgAAJQTOZlMJpN0CAAA2Jrp06fHmjVrIiKiU6dOJZ7nD3/4Q1x44YUREdG4ceOYNWtW5ObmlkrG8uj111+PQw45JHbaaaeYPn16NGzYMOlI5d5ZZ50VDz/8cERELFy4MJo0aZJwoh0jLZ+Nm266Ka666qro06dP/Otf/0o6DgAA5YAzQAAAKNeOOuqo2GuvvWKvvfb6QfNMmjQpe33RokXxxRdf/NBo5daqVavijDPOiI0bN8bQoUOVHxQpLZ+Niy++OH70ox/F888/Hw899FDScQAAKAcUIAAAVAoDBgyImjVrRkTEQQcdFO3bt084Udn53e9+FzNmzIiWLVvG2WefnXQcdrCJEyfGyJEj4+mnny7W+LR8NmrVqhWXX355RERceuml8c033yScCACApClAAACoFA477LCYPXt2vP/++zFu3LioWrVq0pHKxJIlS+Lee++NiIhLLrkkatSokXAidrR99tknTjnllHj88ceLNT5Nn43BgwfHzjvvHMuXL4+777476TgAACRMAQIAQKXRrFmz6Nq1a1SrVi3pKGXm7rvvjhUrVkT16tXj9NNPTzoOFURaPhu1atWKgQMHRsS3e5vk5+cnnAgAgCQpQAAAICUKCgrinnvuiYiIPn36ROPGjRNOBDveaaedFhHfng1lLxAAgMqtYv+8BwAAimn9+vXx9ttvR8S3v3Zv27Zt9r7FixfH5MmTIyKiRYsWkZeXV+x5p0yZEosWLYqIiK5du0bt2rW3OnbGjBkxbty4+Pzzz2PNmjXRqFGj6NixY/Tq1SsaNWpUkqe1mdGjR2ez9OvXb6vjinotJk+eHK+88kp89dVXsX79+thtt92iV69e0bFjx20ef9GiRTFlypSIiOjcuXPUr18/IiK++uqrmDBhQnzzzTfRrFmz6N69+zY3Zn///ffj7bffjjlz5sS6detip512io4dO0bv3r0jNzd3m1m+a86cOfHiiy/GjBkzYt26ddG8efPo1q1bHHzwwZGTk1PseWbMmBHz58+PiIhu3bpF9erVixw/bdq0WLhwYUREHHjggVGlyrZ/gzZ//vx4+eWXY9q0aZGfnx916tSJ1q1bx8EHHxwdOnT43viVK1fGe++9973bFy1aFOPGjfve7a1atYo2bdpk/3dR/x6K8kPfo02Pu9tuu8Wuu+4aERGZTCZeeeWVmDhxYsydOzdq164dP/7xj6N3797xox/9aJvzdunSJVq2bBlfffVVPPnkk3HxxRcX6/kAAJBCGQAAKMfatWuXiYjMD/1P14ULF2bnOf300ze7b968eZlq1aplIiKz1157FXvO9evXZ1q0aJGJiEyzZs0y69at2+K4iRMnZnr16pU9/ncvtWvXzlx88cWZgoKCH/IUM2eccUZ2zunTp2913JZei+nTp2d69Oix1YyHHnpoZtq0aUUef9SoUdnxr732WqagoCAzaNCg7GtbeMnNzc0sW7Zsq3Ns+p5/91KrVq3MhRdemFm6dGmxXpN58+ZlTjzxxExOTs4W58vLy8u88sormUwmkznzzDOzty9cuHCL8206Zt68eds8/sknn5wdn5+fX+TY2bNnZ0466aRMlSpVtvr8DzzwwMwnn3yy2eM+/vjjrY7f0uVXv/rVZo8v6rOxJaX1Hm163Ouvvz6TyWQyr7/+eiYvL2+L81atWjVz9tlnZ1avXr3NjKecckr2cXPnzt3meAAA0skSWAAAVHrNmzePn/3sZxER8fHHH8f7779frMe98MILMW/evIj4dtmdLe2fMGrUqNh///1j7NixERGRm5sbBx54YBxxxBHRsWPHyMnJiYKCgrjzzjvjkEMOiVWrVpX4eRT+mr5p06ab/cJ/WyZMmBD77rtvvPbaa5GTkxPNmjWLvLy8qFOnTnbMuHHjYr/99ot333232POeeOKJMWLEiFi/fv1mt7dt2zZ7dkihTCYTF154YZx44okxbdq0iIioUqVKtGzZMtq0aRP16tWLiIjVq1fHPffcE/vuu2/MnDmzyOPPmDEjunbtGqNGjYpMJhMREXXq1Im8vLxo2bJl5OTkxOeffx69e/eOZ555ptjPqyy89tpr0blz5/jTn/4UGzdujIiIevXqRZs2baJBgwbZcW+++WYcdNBB8corr2Rvq1KlStSsWTN72drthZdtnbWyNWXxHm1q9OjR0atXr/j888+jTp06sddee8W+++6bXcptw4YNMWzYsBg8ePA25zrooIOy1ws/FwAAVD4KEAAAiNjsS9VHHnmkWI8ZMWJE9vqgQYO+d/8777wTAwcOjLVr10aDBg1i+PDhsXjx4njjjTdi9OjR8cknn8T06dPj8MMPj4iId999Ny666KIS5S8oKMh+Kd2uXbtiP+7jjz+OY445JgoKCuLaa6+NefPmxfz582PGjBmxbNmyeOGFF2LvvfeOiIjly5fHCSecUKyNpYcNGxbPPvtsdOnSJUaOHBlTp06Njz76KIYNGxZXXHHF98bfdttt8Yc//CEiIho0aBB33nlnLFy4ML788suYPn16LFu2LMaPHx8HH3xwRETMnDkz+vbtu9XCaO3atXHcccfF3LlzI+LbJbleeOGFWLZsWcyYMSO+/PLLmDt3blx77bVRrVq1GDhwYIwZM6bYr1tpmjFjRhx11FGxbNmyiIg4/vjj44MPPoj8/PyYPn16LF26NKZOnRpnnHFGREQsW7YsBgwYEEuWLImIiD333DNWr16dvRTq06fPZrcXXm677bYS5Szt92hTkyZNitNOOy37OVm0aFF89NFH8cEHH8SCBQvir3/9a3bZtCeffDI++OCDIufb9DMwYcKEEj1fAABSIOEzUAAAoEg7YgmsTCaTWbt2baZp06aZiMg0atRom8vsLF68OFOzZs1MRGT233//792/cePGzN57752JiEz16tUzb7/99lbnWrNmTaZz587ZZX5mzpy53c9v6tSp2ed3xhlnFDl209ciIjJVqlTJvPDCC1sdv2LFiky3bt2+t1zRd226BFZEZHr27Fms5Yq++OKLTK1atTIRkalXr15m4sSJWx27bt26zLHHHps9xnXXXbfFcffcc092TLdu3TIrVqzY6pyjR4/OVK1adbPsO3IJrMMPPzw75tJLLy1yvuuvvz4TEZkaNWpknn/++S2OKZyrb9++28yXyRRvCayyeI+++++wYcOGmc8++2yr8w4bNiw79rLLLivyOc2ZMyc79he/+EWRYwEASC9ngAAAQERUr149Bg4cGBERS5Ysib/97W9Fjn/yySdjzZo1ERHZX+Zv6uWXX45JkyZl7+/WrdtW56pRo0ZcffXVEfHtMj//+Mc/tjv/V199lb3evHnz7XrsL3/5yzjyyCO3en/dunXjoYceyv7vhx9+eJtz5uTkxIMPPrjZkkxb88c//jF75sLQoUOzZ5xsSbVq1WLYsGHZTbbvvffe7PuwqccffzybY/jw4VG3bt2tznnEEUfEJZdcss2cZeHdd9/NnnnSqVOnuPnmm4scf9VVV8W5554bb7/9dnbZth2hLN6j77rhhhuK3ID9xBNPjKpVq0bEts/q2PQz8OWXX27z2AAApJMCBAAA/tf2LINVuPxVrVq1on///t+7/69//Wv2emGxUpTevXtnr2/PPhuFNl2Wqqgv+7fkwgsv3OaYTp06xYEHHhgREf/+979j+vTpRY7fb7/9ir0UV2HZVKNGjWLt79CkSZM44YQTIiLim2++iddee22z++fNmxfvvfdeRER079499txzz23OeeGFF0ZOTk6x8pamp556Knv94osv3uI+MpuqUqVK3H///bHPPvuUdbTNlPZ79F01atSI0047rcgxDRo0iKZNm0ZExIIFC4ocW61atahRo0ZERLGWbAMAIJ0UIAAA8L86deoUP/nJTyIi4qWXXtrqL8c//fTT7Ebpxx13XHZvgk0VfgFfpUqV2G+//bZ57J122ik7z/z587c7e0FBQfb69hQgrVu3jj322KNYYwv3doiI+Oijj4ocu//++xdrzvz8/Jg6dWpEROy1117RqFGjYj2uR48e2evvvPPOZvd9+OGH2U3PN81clF133XW7No4vLW+88Ub2et++fXf48YujLN6j7+rYsWP2jJGiFG4Iv3Llym2OLdyUfdPPBgAAlUvRPy8CAIBKZvDgwfH+++/Hxo0b47HHHourrrrqe2M23fx8S8tfRXy7AXTEtwVIcZcqKvyitiS/WN/07IXCL/+L48c//nGxx266PNGcOXOKHNu6detizTlr1qwtzr89WQpf60Jff/119npeXl6x52zfvv02z2wpbTNmzIiIiPr160ezZs126LGLqyzeo+/60Y9+tF2ZivNvfOPGjRERiZzZAwBA+aAAAQCATQwYMCAuueSSWL16dYwYMeJ7BciGDRviiSeeiIhvzxo4/PDDtzhPYYmxfv36GD9+/HZlqF69+nbnrl27dvZ6cX4dX6hJkybFHlv46/viHKM4v+aP2LzsqV+/fomyfLcwWrhwYYnm3NKZPGVt+fLlERHZpZ3Ko7J4j75re+YtrsJ/o5t+NgAAqFwUIAAAsImGDRvGcccdFyNHjozp06fH66+/vtkySs8//3x2iarTTz89qlTZ8qqyhb86b9SoUVx00UXblaFTp07bnXvTL5BXrFhR7MetX7++RGO39aVycUucTV+/DRs2lCjLd9+DTffR2J45t2dsca1bt67I+wuzb8/7sKOVxXtU1DFKw7p167KvfVmUKwAAVAwKEAAA+I7BgwfHyJEjIyJi+PDhmxUgmy5/NWjQoK3O0bBhw+yZCEOHDi2LmJtp1apV9vrcuXOL/bhvvvmm2GOXLFmSvb7zzjsX+3FF2XQ/iaVLl5Yoy3f3pNj0bIrtmXPx4sXFHltchWd4bE3jxo1j3rx5m521Ut6UxXtU1jbdv2fXXXfdoccGAKD8sAk6AAB8x+GHHx677bZbRESMGjUqu5TO4sWL45///GdERPTs2bPI/SUK99ZYsmRJLFiwoIwTf/slb9WqVSMitmsfi8mTJ2f3StiWKVOmZK83b958+wJuRevWrbO5P/3002I/bvLkydnr392XYtO9NDYdty3b2tg9Yvv3k9jWe9GhQ4eIiFi1alVMmzZtu+beUcriPSprn332Wfb67rvvvkOPDQBA+aEAAQCA78jJyYnTTz89Ir5dTmrUqFEREfHkk0/G2rVrI2Lrm58X6tatW/b6iy++WEZJ/0/NmjWjY8eOERHb9UX6woUL49133y3W2MLnUbNmzTjggAO2P+QW1KxZM37yk59ExLe5Z8+evV1ZImKzM3QiIg444IDsElwvv/xyseabMGFCsc6cqVWrVvb6qlWrihw7Z86cbT6fXr16Za//7W9/2+bxI749C+nZZ58t1tjSUBbvUVnb9DOw77777tBjAwBQfihAAABgCwYNGpT9tf8jjzwSEf+3/FW9evXihBNOKPLxP//5z7PX77zzzm3unZDJZOJnP/tZXHLJJbFs2bISZT7wwAMj4tuzTrbnzIff/e532xzzr3/9K/ur+p/+9KdRr169EmXckpNPPjkivn0N7rjjjm2O//TTT+P555+PiIg2bdrEfvvtt9n9DRo0iB49ekTEt2cCFI4tyvXXX1+srJue+fLxxx8XOfa+++7b5nynnXZa9uyK22+/fZvLcH3zzTdx0UUXxVFHHRU33njjFsfUrFkzIqJUl9Uq7feorL322msR8e3eIqVV1gEAUPEoQAAAYAtat24dhx56aEREvPrqq/GnP/0pPvjgg4iIOPHEE7dZAPTs2TN7FsiHH34YF154YZFLTQ0dOjRGjx4dd955Z3aZre119NFHZ6+PHTu22I97/vnn44Ybbtjq/Z9//nmcc8452f997rnnlijf1px11lnZZav+8Ic/ZPdf2ZKvv/46+vfvn91g+6qrrtrislSDBw/OXj/nnHNi1qxZW53zhhtuiGeeeaZYWTc9s+f3v/99ZDKZLY576aWX4vbbb9/mfLvttlucddZZEfFtuXHCCSdsdd+QFStWxPHHHx/5+fkREdmS57t22WWXiIj45JNPSm35tbJ4j8rSq6++GhHfloJNmjTZoccGAKD8sAk6AAAVxlNPPVXssbvvvvsP/uX34MGDs0VC4S/gI7a9/FWhhx56KA444IBYuXJl3HffffHuu+/GRRddFN27d4+GDRvGokWL4pNPPolhw4Zllws64IAD4tRTTy1R3t69e0eLFi1i3rx58fe//z0uuOCCbT6mTZs2sXDhwrjmmmvitddei/POOy/22muvqFu3bsyZMyeeffbZuPPOO7Nfuh933HHRr1+/EuXbmtzc3HjooYfi6KOPjo0bN8Ypp5wSzzzzTAwaNCg6deoUtWrViq+++ipeeOGFuOOOO7Ibt/ft23erG9EPGDAghg0bFuPHj48vv/wy9tlnn7jkkkuib9++0apVq1i9enV88MEHce+998Yrr7wS++67bzRu3DheeumlIrP26tUrWrduHbNmzYqxY8fGMcccE9dcc0107tw5Nm7cGFOnTo1HH3007rvvvujUqVMccsghcddddxU552233RavvvpqTJkyJcaOHRtdunSJIUOGxCGHHBLNmzePefPmxRtvvBF33HFHzJw5MyIiTj311K0WIL17945hw4bFqlWr4vjjj49bb701WrduHTNnzowHHnggOnbsGJdffvk23pXNlcV7VFbeeuutbPEzcODAHXpsAADKmQwAAJRj7dq1y0TEdl9OPfXUzeZZuHBh9r7TTz+9WMdetWpVpn79+pvNm5eXt135x40bl2ncuHGxMu+///6ZhQsXbtf833XbbbdlIiJTtWrVzNy5c7c45ruvxfjx4zN16tTZZr7DDz88s2LFiq0ee9SoUdmxjzzyyHZnf+KJJzK1a9cu1mvVr1+/zMqVK4ucb8GCBZnOnTtvc67OnTtn5s6dmznzzDOztxX1PowZMyZTo0aNIufceeedM1OmTMlcd9112dvy8/O3OufcuXMzXbt2LdZzP/LII4t87tOnT8/k5uYWmW316tXZ8dvz2SjN96gkn8nCvwdFfQ7PP//8TERkmjdvnikoKCjWvAAApJMlsAAAYCtq164d/fv33+y27f01+yGHHBKTJ0+OIUOGbHUpnmbNmsU111wTY8eO/cHL9Zx33nmx0047xYYNG+Khhx4q1mN69uwZH330URx77LFRo0aN792/++67x9133x2jR4+OunXr/qB8RTn11FNj0qRJ8Ytf/GKrS4x17do1/ud//if++c9/Rp06dYqcr2nTpvHWW2/F1VdfHTvttNP37m/RokVcd9118e6770aLFi2KnfOwww6LsWPHbrYcVqGqVatGv3794t1334327dsXe84WLVrEW2+9Fb///e+jbdu2WxzTtm3b+OMf/xjPPfdckc+9TZs2MWbMmNh7772/d1/dunVj0KBBUaVKyf6vYGm/R6UtPz8/uzzXxRdfvNmm9QAAVD45mcxWFq0FAABK1caNG2PatGkxa9asWLlyZdStWzdat24d7dq1K/EX0lty4403xtVXXx2NGzeO2bNnf6+0+Oabb6Jp06YREXH66adnN3ePiFi+fHl8/PHHsWDBgqhevXq0bds22rVrV2rZimvt2rXxySefxJw5c2L9+vXRqFGj6NixY3Yfiu21bt26mDRpUsyZMydq1aoVrVq1ij333DO7AXlJzZ07Nz799NPIz8+Ppk2bxh577FHijJuaNWtWTJ06NVauXBm5ubmxxx57ROvWrbd7nunTp8e0adNi7dq10bx589hnn32idu3aPzhfROm/R6Xh1ltvjcsvvzx23nnnmDFjRuTm5iaWBQCA5ClAAAAgZdatWxf7779/TJw4MW644Ya46qqrNru/qAIEKqrly5dH27ZtY8GCBfGXv/wljj/++KQjAQCQMEtgAQBAylSvXj0effTRqF69etx0000xf/78pCNBmbvxxhtjwYIFceqppyo/AACIiIhqSQcAAABKX+fOneMvf/lLTJs2LZYsWRLNmzdPOhKUqXbt2sVtt90WZ555ZtJRAAAoJyyBBQAAlYwlsAAAgMrAElgAAAAAAEDqKEAAAAAAAIDUsQcIAABUMrm5uTFs2LCIiNhjjz0STgMAAFA27AECAAAAAACkjiWwAAAAAACA1FGAAAAAAAAAqaMAAQAAAAAAUkcBAgAAAAAApI4CBAAAAAAASB0FCAAAAAAAkDoKEAAAAAAAIHUUIAAAAAAAQOooQAAAAAAAgNRRgAAAAAAAAKmjAAEAAAAAAFJHAQIAAAAAAKSOAgQAAAAAAEgdBQgAAAAAAJA6ChAAAAAAACB1FCAAAAAAAEDqKEAAAAAAAIDUUYAAAAAAAACpowABAAAAAABSRwECAAAAAACkjgIEAAAAAABIHQUIAAAAAACQOgoQAAAAAAAgdRQgAAAAAABA6ihAAAAAAACA1KmWdAAAANKloKAg1qxZE+vXr48NGzZsdgGIiKhSpUpUq1Ytqlatmr3UrFkz6tSpk3Q0AABSRAECAECJLFy4MMaPHx/vvfdeTJ48OaZPnx7Tpk1LOhZQwbVp0yb22GOP6NChQ+y3335x2GGHRdOmTZOOBQBABZSTyWQySYcAAKD8W7ZsWYwdOzbGjh0br7zySnz66aexpf+UbN68ebRt2zYaNGgQubm5Ua9evcjNzY3c3NwEUgPl0YoVKyI/Pz97Wb58eUyfPj3mzZv3vbE5OTnRqVOnOOyww6JXr17Ro0eP2GmnnRJIDQBARaMAAQCgSO+99148+uijMXLkyFi8eHH29jp16kTXrl3jwAMPjA4dOkT79u2jU6dOUbdu3QTTAhVZfn5+TJkyJaZOnRpTpkyJt99+O957771YuXJldkyDBg3i5JNPjkGDBkX37t0TTAsAQHmnAAEA4Hvmz58fjz76aDz66KMxZcqU7O1HH3109OnTJ7p16xb77LNPggmByuSjjz6Kt99+O0aPHh3/+te/YvXq1RHx7XJZgwYNikGDBkXLli0TTgkAQHmjAAEAIKugoCAefPDBuOWWW7JL0fTt2zdOOumkOP7446NevXoJJwQqu5UrV8Y//vGPePrpp+Pvf/97REQ0adIkLrvssjj//PP9nQIAIEsBAgDA94qP2rVrx3nnnReXX355NGvWLOl4AFu0ePHiuPXWW+Pee++NFStWKEIAANiMAgQAoJJ74YUX4oILLoiZM2dG3bp1s8VH06ZNk44GUCxLly6N2267Le65557Iz8+PvLy8uOuuu6Jfv35JRwMAIEEKEACASmrmzJlxwQUXxAsvvBAREf37948777wzmjdvnnAygJJZuHBh/PrXv45HH300IiL69esXd911V+Tl5SWcDACAJChAAAAqmVWrVsWNN94Yt99+e6xZsybatWsXDz74YPTs2TPpaACl4s0334yzzz47Jk+eHDVr1oxf//rXceWVV0adOnWSjgYAwA6kAAEAqETy8/Nj8ODB8ec//znq1KkTv/nNb+KKK65IOhZAmbjrrrvi2muvjfz8/OjTp0888cQTsdNOOyUdCwCAHUQBAgBQSXz88cfx85//PKZPnx5t27aN0aNHR+vWrZOOBVCmZs+eHcccc0xMmjQpfvSjH8WoUaNi//33TzoWAAA7QJWkAwAAUPZGjBgR3bp1i+nTp8fRRx8dEyZMUH4AlcJuu+0WEydOjJNPPjm++OKL6NGjR4wYMSLpWAAA7AAKEACAlBs+fHicddZZUVBQENdcc038/e9/j7p16yYdC2CHeuqpp+Lmm2+OtWvXxuDBg+Ouu+5KOhIAAGXMElgAACk2dOjQ+O1vfxsRESNHjoz+/fsnnAggWaNGjYqTTjopIiKGDBkSd9xxR+Tk5CScCgCAsqAAAQBIoQ0bNsQ555wTw4cPj3r16sU//vGP6NWrV9KxAMqFt956K/r06RPLli2LE088MUaOHBlVq1ZNOhYAAKXMElgAACl09dVXx/Dhw6NZs2bx1ltvKT8ANtG9e/d45513YrfddotRo0bF//t//y/pSAAAlAEFCABAygwdOjRuueWWaNiwYYwZMyY6deqUdCSAcqddu3YxZsyYaNy4cdx///1xxRVXJB0JAIBSpgABAEiRm2++OX77299GrVq14sUXX4yOHTsmHQmg3MrLy4uXXnopcnNz45Zbbombb7456UgAAJQie4AAAKTEmDFjonfv3hERMXr06DjiiCMSTgRQMbz++uvRhlOYzwAAIABJREFUo0ePiIj485//HD//+c8TTgQAQGlwBggAQArMnz8/Bg4cGBER99xzj/IDYDscfPDB8fjjj0dExNlnnx2zZs1KOBEAAKVBAQIAUMFt3LgxBg4cGPPnz4/jjz/eZr4AJTBw4MA488wzY8mSJTFgwIBYu3Zt0pEAAPiBFCAAABXc7373uxgzZkzk5eVlf8EMwPZ76KGHonPnzvHOO+/Etddem3QcAAB+IHuAAABUYNOmTYu99947qlatGh988EG0b98+6UgAFdrs2bOjU6dOUVBQEG+99Vbst99+SUcCAKCEnAECAFCBnX/++bFmzZq45ZZblB8ApWC33XaLu+++OzZs2BAXXHBBbNiwIelIAACUkDNAAAAqqKeeeioGDBgQXbt2jffffz/pOACpctBBB8Wbb74Z9913X5x33nlJxwEAoAQUIAAAFVB+fn507Ngx5syZEx9//HF06tQp6UgAqTJt2rRo3759NGnSJKZMmRJNmjRJOhIAANvJElgAABXQb37zm5gzZ04MGTJE+QFQBtq1axdXXnllfPPNN3HNNdckHQcAgBJwBggAQAWzdOnSaN26daxfvz7mzJkTDRs2TDoSQCqtWLEidt1111izZk3MmDEjdtlll6QjAQCwHZwBAgBQwdx///2xdOnSuOiii5QfAGWoXr16cemll0ZBQUHcfffdSccBAGA7OQMEAKACKSgoiLy8vFi6dGl88cUX1qQHKGMrVqyIFi1aRPXq1ePzzz+PRo0aJR0JAIBicgYIAEAF8sADD8S8efPivPPOU34A7AD16tWLIUOGxJIlS+KBBx5IOg4AANvBGSAAABVIly5dYtKkSTF37txo0aJF0nEAKoWlS5fGLrvsEs2bN4/PP/88cnJyko4EAEAxOAMEAKCCmDhxYkyaNClOOukk5QfADtSwYcMYMGBAzJo1K8aPH590HAAAikkBAgBQQdx///0REdG/f/+EkwBUPoV/e0eMGJFsEAAAis0SWAAAFcDKlSujWbNmUaVKlVi+fHnScQAqpcaNG8eaNWvi66+/jrp16yYdBwCAbXAGCABABTBq1KhYuXJlHHvssUlHAai0Tj755Fi5cmWMGjUq6SgAABSDAgQAoAKYOHFiRET07ds34SQAlVfh3+Bx48YlGwQAgGKxBBYAQAXQpUuXmDRpUsybNy+aN2+edByASik/Pz/q168fu+22W/z73/9OOg4AANvgDBAAgHJu6dKl8dFHH0Xbtm2VHwAJys3NjX322Sdmz56tAAEAqAAUIAAA5dy4ceMik8lEz549k44CUOkV/i22DBYAQPmnAAEAKOfeeuutiAgFCEA5UPi3uPBvMwAA5ZcCBACgnJs0aVJEROyzzz4JJwGgS5cuEfF/f5sBACi/bIIOAFDO7b777jF79uzwn20A5UNOTk40aNAgli5dmnQUAACK4AwQAIBybP369fHll1/GzjvvnHQUAP7X7rvvHsuWLYtVq1YlHQUAgCIoQAAAyrGVK1fGhg0bIi8vL+koAPyvH//4xxERMX/+/ISTAABQFAUIAEA5VlBQEBERzZo1SzgJAIUK/yYvWLAg4SQAABRFAQIAUI5t2LAhIiJyc3MTTgJAocK/yatXr044CQAARVGAAACUY+vWrYuIiPr16yecBIBChQVI4Vl6AACUTwoQAIByrLAAcQYIQPlR+De58G80AADlkwIEAKAcU4AAlD8KEACAikEBAgBQjm3cuDEiImrXrp1wEgAKFRYgq1atSjgJAABFUYAAAJRjOTk5SUcA4DuqVq0aEf9XUgMAUD4pQAAAAAAAgNRRgAAAAAAAAKmjAAEAAAAAAFJHAQIAAAAAAKSOAgQAAAAAAEidakkHAAAAKK8ymUzMnj076RiUolq1akXz5s2TjgEAwA6gAAEAqCQOPfTQ+Oabb6JJkyZJR4HETJ48OV5++eXo3LlzscYvX748jjvuuDjmmGPKOBk7wooVK2LChAkxZsyYpKMAALADKEAAACqR66+/Po477rikY0BiTj755O1+zL777htDhw4t/TDscF9//XWccsopSccAAGAHsQcIAAAAAACQOgoQAAAAAAAgdRQgAAAAAABA6ihAAAAAAACA1FGAAAAAAAAAqaMAAQAAAAAAUkcBAgAAAAAApI4CBAAAAAAASB0FCAAAAAAAkDoKEAAAAAAAIHUUIAAAAAAAQOooQAAAAAAAgNSplnQAAACAtNm4cWNs3Lgx6RipV7Vq1cjJyUk6BgAA5ZQCBAAAoJQNHTo0nnvuucjNzU06SmrNmjUrnnjiiejRo0fSUQAAKKcUIAAAAGXgwQcfjK5duyYdI7WuueaapCMAAFDO2QMEAAAAAABIHQUIAAAAAACQOgoQAAAAAAAgdRQgAAAAJG7ixIkxevTord7/3nvvxYwZM3ZgIgAAKjoFCAAAAInr0qVLzJgxIy666KLv3XfRRRfFhx9+GG3atEkgGQAAFZUCBAAAgHLhggsuiNatW8d//ud/Zm8bMmRIdOjQIc4999wEkwEAUBFVSzoAAAAAFLr44ovj1ltvjSuvvDLWrFkTe+yxR5x//vlJxwIAoAJyBggAAADlymWXXRbNmzePPffcM375y18mHQcAgArKGSAAAACUO7/61a+SjgAAQAXnDBAAAAAAACB1nAECAABQBt5///3Iz89POkZqzZ49O+kIAACUcwoQAACAUta9e/d48cUXY+rUqUlHSa0mTZpEy5Ytk44BAEA5pgABAAAoZX369Ik+ffokHQMAACo1e4AAAAAAAACpowABAAAAAABSxxJYAAAkZty4cUlHoAzl5eXFrrvumnQMAACgklKAAACQmF69eiUdgTJ0++23x6WXXpp0DAAAoJJSgAAAkKj3338/unbtmnQMStmBBx6YdAQAAKCSswcIAAAAAACQOgoQAAAAAAAgdRQgAAAAAABA6ihAAAAAAACA1FGAAAAAAAAAqaMAAQAAAAAAUkcBAgAAAAAApI4CBAAAAAAASB0FCAAAAAAAkDoKEAAAAAAAIHUUIAAAAAAAQOooQAAAAAAAgNRRgAAAAAAAAKmjAAEAAChjl1xySeTk5Lj8wMujjz6a9FsJAEAFogABAAAAAABSRwECAAAAAACkjgIEAAAAAABIHQUIAAAAAACQOgoQAAAAAAAgdRQgAAAAAABA6ihAAAAAAACA1FGAAAAAAAAAqaMAAQAAAAAAUqda0gEAAADS7pe//GUcffTRSceo8Nq3b590BAAAKhAFCAAAQBlr06ZNtGnTJukYAABQqVgCCwAAAAAASB0FCAAAAAAAkDoKEAAAAAAAIHUUIAAAAAAAQOooQAAAAAAAgNRRgAAAAAAAAKmjAAEAAAAAAFJHAQIAAAAAAKSOAgQAAAAAAEgdBQgAAAAAAJA6ChAAAAAAACB1qiUdAAAAIO3mzZsXixYtSjpGhdeqVato2LBh0jEAAKggFCAAAABlbPXq1bFs2bKkY1R4O++8c9IRAACoQCyBBQAAAAAApI4CBAAAAAAASB0FCAAAAAAAkDoKEAAAAAAAIHUUIAAAAAAAQOooQAAAAAAAgNRRgAAAAAAAAKlTLekAAABUbplMJukIJbZ48eI4//zz49VXX4358+eXypy1atWK9u3bx0033RQ/+9nPSmVOkteoUaOoWrVq0jEqvLp16yYdAQCACkQBAgAAJbBkyZLYd999o1mzZvHb3/429thjj1KZNz8/P15++eXo06dPjBw5Mvr3718q85Kshg0bRsOGDZOOAQAAlYoCBACgEqnIZ1uUN7/+9a+jZcuW8cYbb5T63EcddVT85Cc/iXPOOSf69u0bubm5pX4MAACAtLMHCABAJZKTk5N0hNR444034txzzy3x45cvXx6DBw+Oxo0bR6tWreLKK6/c7P7TTjst1q9fHxMmTPihUQEAAColZ4AAAFQiCpDS8+WXX8auu+5a4sf369cvCgoK4vbbb4/ly5fHPffcE4sWLYoHH3wwO6ZNmzYxY8aM6NmzZ2lEBgAAqFQUIAAAlcjGjRuTjpAaGzZsKPGSYm+++Wa89tprsWTJkuy+EN26dYvu3bvHLbfcEo0aNcqO9Z4BAACUjCWwAAAqEWeAlJ6cnJwSv56LFy+ORo0abbYpdtu2bSMiYsGCBZsdAwAAgJJRgAAAwA7WrVu3WL16dYwYMSJ724UXXhitWrWKdu3aJRcMAAAgRSyBBQAAO1jTpk3j4YcfjlNOOSWuu+66yM/Pj40bN8bzzz+fdDQAAIDUUIAAAEACBgwYEPvvv3/MmTMnIiL23HPP2HnnnRNORVmZN29eLFq0KOkYFV6rVq02WzoOAACKogABACBRFXWfi0wmU+JN0Avl5eVFXl5ekceoqK8Pm1u9enUsW7Ys6RgVnpIQAIDtYQ8QAAAS9UNLhKQUtQn6Z599Fi1atIinn376Bx+jor4+AAAASVOAAABUIr5MLz1bOwNk8uTJ0aNHj9hzzz2jf//+8dhjj/2gYwAAAFAyChAAgEqkPC6nVB4zldSnn34ahxxySPTr1y/GjBkTf/rTn+L000+P4cOHl3jONL0+AAAAO5ICBACARFXUsxy+uwTWBx98EAcffHCceuqp8fDDD0dExIknnhjPPPNMnHnmmfH73/++yPn69u0b/fv3/94xKurrAwAAkDQFCABAJeLL9NKz6RJYb731VvTq1SvOPffcuOuuuzYbd+yxx8Zzzz0XQ4YMif/6r//63jwFBQXRu3fvmDlzZrzyyivRt2/fzY4BAABAyShAAAAqkfK4nFJ5zLQ93nzzzTjiiCPiP//zP+Pmm2/e4pj/+I//iJdffjl+85vfxMUXX5y9ffny5XHYYYfFwoUL4/XXX4933nknPvnkkzj44IMjPz8/Iir+6wMAAJAUBQgAQCVSHr9Mr6hnOVSpUiXGjRsXP/3pT+O6666La6+9tsjxhx9+eIwfPz6GDRsWl1xySSxevDgOO+yw2LhxY4wfPz4aN24crVu3jjfeeCO+/vrr6NmzZ6xYsaLCvj4AAABJq5Z0AAAAdhxfppeeTCYT119/fTz22GNx2mmnFesxPXv2jJdffjmOOOKIGDFiRHTu3DmeffbZqFevXnZMq1at4s0334yf/vSnMWvWrLKKzw7WqFGjqFq1atIxKry6desmHQEAgApEAQIAUImUxzNAKqqcnJx44IEHil1+FDrggAPi1VdfjTvuuCMefPDBqFWr1vfGNG3aNMaNGxft27cvrbgkrGHDhtGwYcOkYwAAQKWiAAEAqETK4xkgFbWU2bhxY+Tl5ZXosV26dInHHnusyDENGzaMxo0bV9jXBwAAIGn2AAEAIFHlsZQpjgYNGsSyZcvK9BiLFi2KBg0alOkxAAAA0koBAgAAJdCtW7f4y1/+Umbzv/766/H1119H9+7dy+wYAAAAaaYAAQCAErjpppviySefjAceeKDU5542bVoMHDgwBg8eHC1btiz1+QEAACoDe4AAAEAJdOjQIV599dU4/vjj4/rrr482bdqUyrz5+fnx4Ycfxi9+8Yv47//+71KZEwAAoDJSgAAAQAn16NEjFi5cGFOmTImvv/66VOasXbt2dOjQIerXr18q8wEAAFRWChAAABKVk5OTdIQfrEOHDtGhQ4ekYwAAALAJe4AAAAAAAACpowABAAAAAABSRwECAAAAAACkjgIEAAAAAABIHQUIAAAAAACQOgoQAAAAAAAgdRQgAAAAAABA6ihAAAAAAACA1FGAAAAAAAAAqaMAAQAAKMLw4cMjJyfHJQWX5s2bJ/3PCQCAHaha0gEAAADKqwYNGkQmk0k6BgAAUALOAAEAAAAAAFJHAQIAAAAAAKSOAgQAAAAAAEgdBQgAAAAAAJA6ChAAAAAAACB1FCAAAAAAAEDqKEAAAAAAAIDUUYAAAAAAAACpowABAAAAAABSRwECAAAAAACkjgIEAAAAAABInWpJBwAAACiv1q1bFw8++GDSMShFrVq1imOOOSbpGAAA7AAKEAAAgK0oKCiI5557Li677LKko1AKFi9eHPfcc48CBACgklCAAAAAFKF58+Zx6KGHJh2DUjB//vz44x//mHQMAAB2EHuAAAAAAAAAqaMAAQAAAAAAUkcBAgAAAAAApI4CBAAAAAAASB0FCAAAAAAAkDoKEAAAAAAAIHUUIAAAAAAAQOooQAAAAAAAgNRRgAAAAAAAAKmjAAEAAAAAAFJHAQIAAAAAAKROtaQDAAAApN29994bf/7zn5OOUeFdccUVceSRRyYdAwCACkIBAgAAUMY+//zzGDduXNIxKrxBgwYlHQEAgArEElgAAAAAAEDqKEAAAAAAAIDUUYAAAAAAAACpowABAAAAAABSRwECAAAAAACkjgIEAAAAAABInWpJBwAAYMfJZDJJR/ieBx54IHbZZZekY1DK5syZUy7/vZXHTAAAQNlQgAAAVCI5OTlJR9jMIYccEp999ll89tlnSUehlOXl5cWuu+6adIzvKW+fAQAAoOwoQAAASMy4ceOSjgA7xJFHHhn169dPOkaF16VLl6QjAABQgShAAAAAytiRRx4ZRx55ZNIxAACgUrEJOgAAAAAAkDoKEAAAAAAAIHUUIAAAAAAAQOooQAAAAAAAgNRRgAAAAAAAAKmjAAEAAAAAAFJHAQIAAAAAAKSOAgQAAAAAAEgdBQgAAAAAAJA6ChAAAAAAACB1FCAAAAAAAEDqVEs6AAAAQHk2YcKEGDp0aNIxKAUrVqxIOgIAADuQAgQAAGAr6tatG4888kjSMShF5513XtIRAADYQRQgAAAAW1G1atXo0qVL0jEAAIASsAcIAAAAAACQOgoQAAAAAAAgdRQgAAAAAABA6ihAAAAAAACA1FGAAAAAAAAAqVMt6QAAAFRe48aNSzoCZSgvLy923XXXpGMAAP+fvfuPrrq+7wf+isEIGiDij4IRiCJiRQ9xMIS6mWg3kY0DsZUfO4KNHj09Ezxl0jrO5mZoz47Hzh9YdO4UpumKToRNcKIHdsQwdDJcjqFKrbXUQIqZOjACAkYZ3z++B9Y0QvmR5J37uY/HORzh/b587vMPvCfwzPv1BshTChAAAJK56qqrUkegE913330xZ86c1DEAAIA8ZQQWAAAAAACQOQoQAAAAAAAgcxQgAAAAAABA5rgDBAAA4Ag+//zz1BHoQAUFBVFYWJg6BgAAXUABAgAAcBg7d+6MYcOGxbBhw1JHoQO0trZGcXFxrF69OnUUAAC6gAIEAADgCMaPHx+PPfZY6hh0gObm5vjGN76ROgYAAF3EHSAAAAAAAEDmKEAAAAAAAIDMUYAAAAAAAACZowABAAAAAAAyRwECAAAAAABkjgIEAAAAAADIHAUIAAAAAACQOT1SBwAAoOscOHAgdYQ27r777tQR6ERjx45NHaGd7vb/AAAA0HkUIAAAeaSgoCB1hDZqampSRyDPdLf/BwAAgM5jBBYAAAAAAJA5ChAAAAAAACBzFCAAAAAAAEDmKEAAAAAAAIDMUYAAAAAAAACZowABAAAAAAAyRwECAAAAAABkjgIEAAAAAADIHAUIAAAAAACQOQoQAAAAAAAgc3qkDgAAAJB1jzzySCxbtix1jJw3d+7cGDduXOoYAADkCAUIAABAJ9u8eXPU1dWljpHzqqurU0cAACCHGIEFAAAAAABkjhMgAAAk88Ybb6SOQCcaMGBAnHnmmaljAAAAeUoBAgBAMjt37kwdgU7Ur1+/1BEAAIA8ZgQWAAAAAACQOQoQAAAAAAAgcxQgAAAAAABA5ihAAAAAAACAzFGAAAAAAAAAmdMjdQAAAICsGzduXPTp0yd1jJxXXl6eOgIAADlEAQIAANDJxo0bF+PGjUsdAwAA8ooRWAAAAAAAQOY4AQIAQDJXXHFF6ggAAABklBMgAAAAAABA5ihAAAAAAACAzFGAAAAAAAAAmaMAAQAAAAAAMkcBAgAAAAAAZI4CBAAAAAAAyBwFCAAAAAAAkDkKEAAAAAAAIHMUIAAAAAAAQOb0SB0AAID89corr6SOQCcqKyuL0tLS1DG6hebm5ti+fXvqGDnv3HPPjZKSktQxAADIEQoQAACATrZv3774+OOPU8fIeWeffXbqCAAA5BAjsAAAAAAAgMxRgAAAAAAAAJmjAAEAAAAAADJHAQIAAAAAAGSOAgQAAAAAAMgcBQgAAAAAAJA5ChAAAAAAACBzeqQOAABA/urTp0/qCHSiU045JXWEbuP000+PwsLC1DFy3mmnnZY6AgAAOUQBAgBAMpdeemnqCNAlSkpKoqSkJHUMAADIK0ZgAQAAAAAAmaMAAQAAAAAAMkcBAgAAAAAAZI47QAAAADpZS0tL7Ny5M3WMo9a/f/8oKipKHQMAAE6IAgQAAKCTffTRR/Hee++ljnHUzjjjDAUIAAA5zwgsAAAAAAAgcxQgAAAAAABA5ihAAAAAAACAzFGAAAAAAAAAmaMAAQAAAAAAMkcBAgAAAAAAZI4CBAAAAAAAyJweqQMAAABkXc+ePaNv376pYxy1wsLC1BEAAOCEKUAAAAA62YABA2LAgAGpYwAAQF4xAgsAAAAAAMgcBQgAAAAAAJA5ChAAAAAAACBzFCAAAAAAAEDmKEAAAAAAAIDMUYAAAAAAAACZowABAAAAAAAyRwECAAAAAABkjgIEAAAAAADIHAUIAAAAAACQOQoQAAAAAAAgcxQgAAAAAABA5ihAAAAAAACAzFGAAAAAAAAAmaMAAQAAAAAAMkcBAgAAAAAAZE6P1AEAAAC6q1/+8pexefPmWLx4ceoodICdO3emjgAAQBdSgAAAABzG9u3b43/+53/itddeSx2FDrBv377UEQAA6EIKEAAAgMP43d/93bj88svjoYceSh2FDtDc3Bzf+MY3UscAAKCLuAMEAAAAAADIHAUIAAAAAACQOQoQAAAAAAAgcxQgAAAAAABA5ihAAAAAAACAzFGAAAAAAAAAmaMAAQAAAAAAMkcBAgAAAAAAZE6P1AEAAABy1SeffNLp71FYWBg9e/bs9PcBAICsUYAAAAAch1WrVsW1117b6e9z+eWXx/r16zv9fQAAIGuMwAIAAAAAADJHAQIAAAAAAGSOAgQAAAAAAMgcBQgAAAAAAJA5ChAAAAAAACBzeqQOAAAAkIsuvPDCuOeeezr9fc4555xOfw8AAMgiBQgAAMBxOO+882Lu3LmpYwAAAIdhBBYAAAAAAJA5ChAAAAAAACBzFCAAAAAAAEDmKEAAAAAAAIDMUYAAAAAAAACZowABAAAAAAAyRwECAAAAAABkTo/UAQAA6DpPPfVUbNy4MXUMSObNN99MHQEAAOgiChAAgDzxrW99K7Zt25Y6BiT1p3/6p1FaWnpMv+fxxx+Pxx9/vJMS0dX+8A//MHUEAAC6iAIEACBPXHfddakjQM7p06dPHDhwIHUMAADgOLgDBAAAAAAAyBwFCAAAAAAAkDkKEAAAAAAAIHMUIAAAAAAAQOYoQAAAAAAAgMxRgAAAAAAAAJmjAAEAAAAAADJHAQIAAAAAAGSOAgQAAAAAAMgcBQgAAAAAAJA5ChAAAAAAACBzFCAAAAAAAEDm9EgdAACArnHXXXdFjx6+/IOpU6fGl7/85aN6bVNTU2zevLmTE9FVioqK4itf+UrqGAAAdBF/AwYAyBPnnHNO3HbbbaljQHJvvfXWUb/2qaeeijvvvLMT09CVzj777Hj//fdTxwAAoIsYgQUAAAAAAGSOAgQAAAAAAMgcBQgAAAAAAJA5ChAAAAAAACBzFCAAAAAAAEDmKEAAAAAAAIDMUYAAANDOihUroqGh4bD7jY2NsWLFimhsbDziM1asWHFCzwAAAIDjpQABAKCNq666KqqqquKyyy6LmpqadvsNDQ1x3nnnHXrNFxUYs2fPjqqqqqiqqorZs2e3229sbIzLLrssqqqq4rzzzjti2QIAAADHQwECAMAhLS0tUVdXd+jXv/7zg5YvX37Y1x/00EMPfeHPf/0ZLS0tX/hMAAAA6AgKEAAADikpKYnBgwcf+nV5eXm71/zmWmVlZbvXVFRUfOHPD6qqqjriMwEAAOBE9UgdAACA7qWhoSHmz58fJSUlXzi+qqqqKp555ploaGiIysrKKCsra/ea5cuXR21tbUREVFdXt9svKyuLl156Kerq6qK8vLxdIQIAAAAnSgECAEAbJSUlX3j3x687eL/HkZ7xReXJr6usrPzC0yMAAADQERQgAAAAhzFo0CBFXYaUlJSkjgAAQBdSgAAAABzG1KlTY+rUqaljAAAAx8El6AAAAAAAQOYoQAAAAAAAgMxRgAAAAAAAAJmjAAEAAAAAADJHAQIAAAAAAGSOAgQAAAAAAMgcBQgAAAAAAJA5ChAAAAAAACBzFCAAAAAAAEDm9EgdAACA7qOlpSU2btyYOgZHMHjw4CgrK0sdAwAAoNtTgAAAcEhDQ0NcddVVqWNwBHfffXfU1NSkjgEAANDtGYEFAAAAAABkjhMgAAAAh7Ft27ZobGxMHYMOcvLJJ8fo0aNTxwAAoIs4AQIAAAAAAGSOAgQAAAAAAMgcBQgAAAAAAJA5ChAAAAAAACBzFCAAAAAAAEDm9EgdAACA7qOkpCQqKipSx+AIysrKUkcAAADICQoQAAAOKS8vj7q6utQxAAAA4IQZgQUAAAAAAGSOAgQAAAAAAMgcBQgAAAAAAJA5ChAAAAAAACBzFCAAAAAAAEDmKEAAAAAAAIDM6ZE6AAAA3Udra2u8/fbbqWPkjfPPPz9OO+201DE4gtLS0igtLU0dAwAAOA4KEAAADvnf//3f2LlzZ+oYeePzzz9PHQEAACCzjMACAAAAAAAyRwECAAAAAABkjgIEAAAAAADIHAUIAAAAAACQOQoQAAAAAAAgc3qkDgAAQPfRs2fPuOKKK1LHAAAAgBPmBAgAAAAAAJA5ChAAAAAAACBzjMACAAA4jG3btkXKLdgBAAAgAElEQVRjY2PqGJkwZMiQ6N+/f+oYAADkESdAAAAAAACAzFGAAAAAAAAAmaMAAQAAAAAAMkcBAgAAAAAAZI4CBAAAAAAAyBwFCAAAAAAAkDkKEAAAAAAAIHMUIAAAAAAAQOb0SB0AAICu8bOf/SwqKytTx4DkHn300dQRAACALqAAAQDIExdddFH84Ac/SB0DknvrrbdSRwAAALqAEVgAAAAAAEDmKEAAAAAAAIDMUYAAAAAAAACZ4w4QAACAwygtLY3S0tLUMQAAgOPgBAgAAAAAAJA5ChAAAAAAACBzFCAAAAAAAEDmKEAAAAAAAIDMUYAAAAAAAACZowABAAAAAAAyp0fqAAAA5J9XXnkldYS8cOqpp8Zll12WOgYAAEASToAAAAAAAACZ4wQIAADttLS0xMaNG6OxsTFGjBgR5eXlqSMBAADAMXECBACANhoaGmL27Nlx4MCBGDx4cDQ0NER1dXW0tLSkjgYAAABHzQkQAAAOaWlpifnz50dtbW2b9crKypg/f37U1NQkyQUAAADHSgECAMAhtbW1MXv27GhpaYnZs2dHSUlJlJWVHVoDAACAXKEAAQDgkJaWligvL4+6urqoqqqKqqqqQ6c+SkpKorGxMcrKyk74ffr06XPCz+C369mzZ+oIAAAAyShAAAA45GDJUVlZGdXV1bFixYqoqKiIiOiw8iMi4tJLL+2Q5wAAAMDhKEAAADikqqoqamtro6amps09IMZfAQAAkGtOSh0AAIDuo6ysLFpaWtoVHvPnz4/q6uo0oQAAAOA4KEAAAGijpqYmZs+efejXjY2NERFRWVmZJhAAAAAcByOwAABoo6SkJCorK6O2tjaqq6ujpqYm5s+f36HvsXXr1g59XndSUFAQAwcOTB0DAAAg7ylAAABop7q6OmbPnn3ovyUlJR36/Kampg59XnejAAEAAEhPAQIAwBeaP39+1NXVRXl5eeooAAAAcMzcAQIAwGG59wMAAIBcpQABAAAAAAAyRwECAAAAAABkjgIEAAAAAADIHJegAwDQ5S655JLUETpNQUFB6ggAAACEAgQAgAT69u2bOgIAAAAZZwQWAAAAAACQOQoQAAAAAAAgcxQgAAAAAABA5ihAAAAAAACAzFGAAAAAAAAAmaMAAQAAAAAAMqdH6gAAAHSNXbt2xdq1a1PHgOTOPvvs1BEAAIAuoAABAMgTu3btipdeeil1DEhu6tSpqSMAAABdQAECAJAnzjnnnLjttttSx4Dk3nrrrdQRAACALqAAAQAAOIwf/vCH8U//9E+pY9BBBg8eHLW1taljAADQRRQgAAAAh/Huu+9GXV1d6hh0kIsvvjh1BAAAutBJqQMAAAAAAAB0NAUIAAAAAACQOQoQAAAAAAAgcxQgAAAAAABA5rgEHQCALrd169bUEfJCUVFR9O/fP3UMAACAJBQgAAB0uaamptQR8sKpp56qAAEAAPKWEVgAAAAAAEDmKEAAAAAAAIDMMQILAIB2Hnroofjoo4+isbExSkpKorq6OsrLy1PHAgAAgKOmAAEAoI3Zs2dHVVVVVFZWHnENAAAAujMjsAAAOKSuri7Ky8ujsrIyli9fHvPmzYvGxsaYP39+1NbWpo4HAAAAR80JEAAADqmrq4vZs2dHQ0NDNDY2xre+9a2oqamJ+fPnR1lZWbS0tERJSckJv88ll1zSAWn5bQoLC1NHAAAASEYBAgBAGyUlJVFSUhJbtmyJlpaWTnmPvn37dspzoaPdeuutMW7cuNQx6CCnnXZa6ggAAHQhBQgAAIeUl5fH8uXLo6qqKiZNmhS1tbVRU1MTERENDQ0dcvoDcsn5558f559/fuoYAADAcXAHCAAAh1RVVcXy5csjIqKysjJqamqipKQk6urqoqqqKnE6AAAAOHpOgAAA0MbBEuTXC4/a2toOvQT9448/7rBndTcFBQXRp0+f1DEAAADyngIEAIA2qqqqoqqqKiorK6OkpCTmz58f1dXVHfoeb775Zoc+r7u54oorUkcAAADIe0ZgAQDQTm1tbVRXV0dDQ0M0NjZGZWVl6kgAAABwTJwAAQCgnZKSkqipqYmamppDd4IAAABALnECBACAL1ReXq78AAAAIGcpQAAAAAAAgMxRgAAAAAAAAJnjDhAAALpcnz59UkfoNCed5HuMAAAAugMFCAAAXe7SSy9NHQEAAICM8+1pAAAAAABA5ihAAAAAAACAzDECCwAA4Ai2bdsW+/fvTx2DDnL66adH7969U8cAAKALKEAAAACOYNu2bfHZZ5+ljkEHKSwsVIAAAOQJI7AAAAAAAIDMUYAAAAAAAACZowABAAAAAAAyRwECAAAAAABkjgIEAAAAAADIHAUIAAAAAACQOQoQAAAAAAAgcxQgAAAAAABA5ihAAAAAAACAzOmROgAAAF3jvffei3nz5qWOAclNmTIldQQAAKALKEAAAPLEOeecE7fddlvqGJDcW2+9lToCAADQBYzAAgAAAAAAMscJEAAAgCMoLS2N/fv3p45BB+nTp0/qCAAAdBEFCAAAwBGUlpamjgAAABwHI7AAAAAAAIDMUYAAAAAAAACZowABAAAAAAAyRwECAAAAAABkjgIEAAAAAADInB6pAwAAAHRn27Zti/3796eOkfNOOumkOPfcc1PHAAAgjyhAAAA4ZPbs2bFx48bUMY7Lgw8+GOXl5aljZEJtbW386Ec/Sh3juHTGn4Nt27bFZ5991qHPzEeFhYUKEAAAupQCBACAQxoaGmLt2rWpYxyXlpaW1BEyo7GxMerq6lLHOC7+HAAAAAe5AwQAAAAAAMgcBQgAAAAAAJA5ChAAAAAAACBzFCAAAAAAAEDmKEAAAAAAAIDM6ZE6AAAA3cf8+fOjpaUldYzjUl5enjpCZlRXV0dlZWXqGMfFnwMAAOAgBQgAAIf4x2MiIsrKyqKsrCx1DAAAgBNiBBYAAAAAAJA5ChAAAAAAACBzFCAAAAAAAEDmKEAAAAAAAIDMcQk6AADAEZSWlsb+/ftTx8h5J53k++8AAOhaChAAAIAjKC0tTR0BAAA4Dr4FBwAAAAAAyBwFCAAAAAAAkDkKEAAAAAAAIHMUIAAAAAAAQOa4BB0AIE/s2rUr1q5dmzoGJHf22WenjgAAAHQBBQgAQJ748z//89QRAAAAoMsYgQUA0I0VFBRERMS+ffsSJwHgoL1790ZExEkn+Ss1AEB35qs1AIBu7OSTT46IiE8++SRxEgAO2r17d0REnHrqqYmTAABwJAoQAIBuTAEC0P0oQAAAcoMCBACgGyssLIyI//vHNgDSO/iZ3KtXr8RJAAA4EgUIAEA3dnC+vBMgAN3HwQLk4Ck9AAC6JwUIAEA3dnC8yn//938nTgLAQc3NzRER0bdv38RJAAA4EgUIAEA3VlxcHBER77zzTuIkABx08DO5f//+iZMAAHAkBQcOHDiQOgQAAIfXv3//eP/998OXbQDdQ0FBQRQXF8fHH398aFQhAADdj6/UAAC6uYsuuigiIn7yk58kTgLA5s2bIyJiyJAhyg8AgG7OV2sAAN3cwQLEGCyA9A5+Fh/8bAYAoPtSgAAAdHNjxoyJiIj6+vrESQA4+Fl88LMZAIDuSwECANDNVVZWRkTESy+9lDYIAIc+iw9+NgMA0H25BB0AIAeUlZXFli1bYteuXVFcXJw6DkDeKigoiJKSktixY0cUFBSkjgMAwBE4AQIAkAMOfqfxyy+/nDYIQB5bt25dRERUVFQoPwAAcoACBAAgBxwsQJ599tm0QQDy2MHPYOOvAABygxFYAAA54MMPP4zS0tIoLi6OHTt2pI4DkJe+9KUvxYcffhjvvvtuDB48OHUcAAB+CydAAABywFlnnRV/9Ed/FB999FE8//zzqeMA5J26urr44IMP4sorr1R+AADkCAUIAECOqK6ujoiIJ554Im0QgDz05JNPRsT/fRYDAND9GYEFAJAjPvvssygtLY3du3fH9u3bo1evXqkjAeSN3r17x4EDB+L999+P0047LXUcAACOghMgAAA54uSTT44bb7wx9u7dG4899ljqOAB5o7a2Nnbv3h3Tpk1TfgAA5BAnQAAAcsh7770XF1xwQZSUlMR7772XOg5AXhg8eHC899578dOf/jSGDh2aOg4AAEfJCRAAgBxyzjnnxI033hjNzc2xcOHC1HEAMu+JJ56IrVu3xte//nXlBwBAjnECBAAgx/z85z+P4cOHR2lpaTQ2NqaOA5BpQ4cOjc2bN8d//dd/xe/8zu+kjgMAwDFwAgQAIMdceOGFccMNN8SWLVti/vz5qeMAZNYPf/jD+MUvfhETJ05UfgAA5CAnQAAAclBTU1MMHTo0TjrppPjlL38Z/fv3Tx0JIFO2b98eF1xwQezatSs2bdoUw4YNSx0JAIBj5AQIAEAOGjhwYMydOzf27t0bt99+e+o4AJlzxx13REtLS8yaNUv5AQCQo5wAAQDIUZ9++mkMHTo0mpqa4vnnn4/x48enjgSQCa+++mp85StfiYEDB8amTZuid+/eqSMBAHAcnAABAMhRp5xySvzgBz+IiIibbroptm/fnjgRQO5raWmJP/mTP4mIiO9///vKDwCAHKYAAQDIYVVVVTFt2rR4//33Y/LkyanjAOS8qVOnxpYtW+KP//iPY9q0aanjAABwAhQgAAA57u/+7u/ivPPOi5deeim++93vpo4DkLPuu+++WL16dfTv3z8WLVqUOg4AACfIHSAAABnwn//5n3HllVdGa2trrFmzJq666qrUkQByysF7P0466aRYvXp1fPWrX00dCQCAE+QECABABlx++eUxb968iIi47rrr4ic/+UniRAC546233ooJEyZERMRf/dVfKT8AADLCCRAAgAyZPHlyLFu2LPr16xcvv/xyfPnLX04dCaBbe/fdd+Pyyy+PDz/8MCZOnBgrVqxIHQkAgA6iAAEAyJDPP/88rrvuunjuuefirLPOildeeSWGDh2aOhZAt9TU1BRXXHFFNDU1xZVXXhmrVq2Knj17po4FAEAHMQILACBDevToEUuXLo3Kysr48MMP48orr4xNmzaljgXQ7fziF7+I3//934+mpqYYOXJkrFy5UvkBAJAxToAAAGTQrl274qtf/Wq89tprUVJSEqtWrYrRo0enjgXQLTQ0NMQ111wTH374YVx88cWxbt266NevX+pYAAB0MCdAAAAyqHfv3lFXVxcVFRXR0tISlZWVsXr16tSxAJJbu3ZtXHHFFfHhhx9GRUVF/Md//IfyAwAgoxQgAAAZdeqpp8aqVati8uTJsXfv3hg3blwsXrw4dSyAZJYtWxaVlZWxZ8+eGD9+fKxatSr69u2bOhYAAJ1EAQIAkGGnnHJKLFmyJGbPnh0RETNmzIhvf/vbiVMBdL2/+Iu/iMmTJ0dExM033xz/+q//GqecckriVAAAdCZ3gAAA5Ina2tq47bbbYu/evTFixIhYvnx5lJWVpY4F0KmamppiypQpsX79+igqKor77rsvbr/99tSxAADoAgoQAIA88sYbb8TXv/71eOedd6K4uDj+4R/+IaZMmZI6FkCnWLlyZdxwww3x8ccfx6BBg2Lp0qUxevTo1LEAAOgiRmABAOSRSy+9NOrr6+P666+P3bt3x9SpU6Oqqiq2bNmSOhpAh/nVr34VU6ZMiQkTJsTHH38c48ePj9dff135AQCQZxQgAAB5pnfv3rF06dJYtmxZDBw4MFasWBFlZWVx1113xZ49e1LHAzhu+/bti3nz5sWFF14YS5cujS996Uvxox/9KFauXBn9+vVLHQ8AgC5mBBYAQB7bs2dP3HPPPfG3f/u38emnn8bZZ58df/ZnfxYzZ86M3r17p44HcFQ++eSTePTRR+OBBx6I5ubm6NGjR9x+++0xb948n2UAAHlMAQIAQGzevDnmzJkTK1asiIiIvn37xqxZs+KOO+7wXdNAt9XS0hLz58+PBQsWxI4dOyIi4tprr40HH3wwLrroosTpAABITQECAMAhr7/+enzve9+L5cuXx8EvEydOnBhTpkyJSZMmRXFxceKEQL7bs2dPPPvss/H000/HCy+8EPv27YuI/1983H333TFmzJjECQEA6C4UIAAAtPP6669HTU1NPPvss23WJ02aFBMmTIgJEyZE//79E6UD8s0HH3wQzz33XKxcuTKef/75Q6VHRMSECRPiL//yLxUfAAC0owABAOCwtm3bFk8++WTU1tbGT3/60zZ7w4cPj6uvvjrGjRsXl1xySQwePDhRSiBrtm7dGm+++Wb827/9W7z44ovxxhtvtNm/4IIL4sYbb4zq6uoYOHBgopQAAHR3ChAAAI7K+vXrY9myZfHiiy9GQ0NDu/1evXrFsGHD4qKLLoqhQ4dG3759o3fv3lFcXBy9e/d2ETFwyO7du2PXrl1tfvz85z+Pn/3sZ/H222/Hnj172v2e4cOHxx/8wR/E1KlTY+zYsQlSAwCQaxQgAAAcsx07dsS///u/x5o1a2LDhg2xadOm2L17d+pYQEaceuqpcfHFF8eoUaPi6quvjsrKyjjrrLNSxwIAIMcoQAAA6BA7duyIX/3qV9HU1BQffPBBfPLJJ7F3797Ys2dP7N27Nz799NPwpWf+aW5ujpUrV8Ynn3wSp512Wuzfvz/27dsXp5xySowfP97otDzVs2fP6NWr16EfxcXFceaZZ8a5554bAwcOjDPPPDN1RAAAMkABAgAAdIpFixbFzJkzo7W19Qv3CwoK4s4774y/+Zu/icLCwi5OBwAAZJ0CBAAA6FCtra0xc+bMWLRo0VG9/vd+7/fiySefdJk1AADQoU5KHQAAAMiO5ubmqKioaFd+FBUVxcKFC+P555+Pfv36tdl7+eWXY8SIEbF69equjAoAAGScAgQAAOgQ69evj5EjR8b69evbrA8YMCDWrl0bt9xyS4wfPz5ef/31qKioaPOajz76KK699tqYO3du7N+/vytjAwAAGaUAAQAATtiiRYuioqIimpub26yPGTMm6uvrY8yYMYfWBg0aFC+++GLMnTs3CgoKDq0fOHAg7r333qisrIympqYuyw4AAGSTO0AAAIDjdqT7Pm655ZZ45JFHoqio6LC//4UXXojp06fHjh072qyffvrp8dRTT8U111zT4ZkBAID84AQIAABwXH7bfR8LFy48YvkREUc1Euuzzz7r8OwAAED2OQECAAAcs40bN8b48ePbjbwaMGBA/Mu//EubkVdHY//+/XHXXXfFvffeG7/5V5SRI0fGM888EwMHDjzh3AAAQP5QgAAAAMdkyZIlcdNNN8XevXvbrI8YMSJeeOGFGDBgwHE/20gsAACgoxiBBQAAHJX9+/fHt7/97Zg2bVq78mPq1Knx6quvnlD5EWEkFgAA0HGcAAEAAH6r7du3x5QpU2LNmjVt1gsLC+P73/9+3HHHHR36fkZiAQAAJ0oBAgAAHNHGjRtj0qRJsWXLljbrZ5xxRjz99NNx9dVXd9p7G4kFAAAcLyOwAACAw1qyZEmMHTu2XfkxYsSIqK+v79TyI8JILAAA4PgpQAAAgHaO5r6PwYMHd0mWQYMGxYsvvhhz586NgoKCQ+sHDhyIe++9N8aOHRtNTU1dkgUAAMgdRmABAABtdPV9H8fCSCwAAOBoKUAAAIBDUt73cbS2bt0akydPjg0bNrRZLygoiDvvvDO+973vxcknn5woHQAA0F0YgQUAAERE+vs+jtagQYNi3bp1RmIBAABHpAABAIA8153u+zhaRUVFcc8998TKlSujX79+bfbq6+tjxIgRsXz58kTpAACA7sAILAAAyGPd+b6Po3W4kVgRETNnzowHH3zQSCwAAMhDChAAAMhTuXDfx9FqbW2Nu+++O+699974zb/ijBw5Mp555pkYOHBgonQAAEAKChAAAMhDS5YsiZtuuqndyKsRI0bEihUrut3Iq6P1wgsvxPTp02PHjh1t1k8//fR47LHHoqqqKlEyAACgq7kDBAAA8siBAwdy7r6PYzF+/Ph4/fXXY/To0W3WP/roo7juuuti1qxZ8dlnnyVKBwAAdCUFCAAA5ImdO3fGxIkT4/7772+zXlhYGPfff3889dRT0atXr0TpOs6gQYNi3bp1MXfu3CgoKGiz98gjj8TYsWOjqakpUToAAKCrGIEFAAB54O23345JkybF22+/3WY9F+/7OBZGYgEAQP5yAgQAADLuueeei9GjR7crP4YNGxb19fWZLT8ijMQCAIB8pgABAICMOnDgQMybNy8mTpwYO3fubLM3YcKE2LBhQ07f93G0jmYk1ubNmxOlAwAAOosRWAAAkEFbtmyJWbNmxXPPPddmvaCgIO6+++7467/+63ZlQD443Eis4uLi+PGPf2wkFgAAZIgCBAAAMmbNmjUxZcqU2L59e5v13r17x+LFi2PixImJknUPW7dujcmTJ8eGDRva7c2cOTMefPDBOPnkkxMkAwAAOpIRWAAAkCEPPPBAXHPNNe3Kj2HDhsVrr72W9+VHhJFYAACQL5wAAQCADGhtbY0bb7wxlixZ0m5vwoQJ8cQTT0SfPn0SJOvejMQCAIDscgIEAAByXHNzc1RUVLQrPwoKCqKmpiaeffZZ5cdhjB8/Pl5//fUYPXp0m/Xdu3fHddddF7NmzYrPPvssUToAAOBEOAECAAA5bP369fG1r30tmpub26wXFRXFP//zP8eECRMSJcstra2tMWfOnHj44Yfb7Y0cOTKWLFkSQ4YMSZAMAAA4Xk6AAABAjlq0aFFUVFS0Kz8GDBgQa9euVX4cg6KioliwYEEsXbo0+vXr12avvr4+ysvLY/ny5YnSAQAAx0MBAgAAOaa1tTVuvfXWuPXWW6O1tbXN3pgxY6K+vj7GjBmTKF1uu/76643EAgCAjFCAAABADjl438eiRYva7d1yyy2xdu3aGDBgQIJk2TFo0KBYt25dzJo1q93eI488EmPHjo3NmzcnSAYAABwLd4AAAECO2LhxY4wfP77dyKvCwsL4+7//+7jlllsSJcuuZcuWxTe/+c3YsWNHm/Xi4uL48Y9/HFVVVYmSAQAAv40TIAAAkAOWLFkSY8eObVd+nHHGGbF69WrlRyc5mpFY+/btS5QOAAA4EgUIAAB0Y/v374/vfOc7MW3atNi7d2+bvREjRkR9fX1cffXVidLlh982EmvUqFFGYgEAQDdkBBYAAHRT27dvjylTpsSaNWva7U2dOjUef/zx6NWrV4Jk+ctILAAAyB1OgAAAQDe0cePGGDlyZLvyo7CwMO6///546qmnlB8JGIkFAAC5wwkQAADoZpYsWRI33XRTu5FXZ5xxRjz99NNGXnUDra2tMWfOnHj44Yfb7Q0fPjxWrFgRQ4YMSZAMAAA4yAkQAADoJtz3kTuKiopiwYIFsXTp0ujXr1+bvU2bNkV5eXksX748UToAACDCCRAAAOgWdu7cGdddd537PnLQ1q1bY/LkybFhw4Z2ezNnzoz77rsvevbsmSAZAADkNydAAAAgsbfffjtGjx7tvo8cNWjQoFi3bl3MmjWr3d4jjzwSo0aNis2bNydIBgAA+c0JEAAASOi5556LG264IXbu3Nlm3X0fuWnZsmXxzW9+M3bs2NFmvbi4OB599NGYPn16omQAAJB/FCAAAJDAgQMH4rvf/W7MmzcvfvNL8mHDhsWqVati8ODBidJxIo40Emv69OmxcOFCI7EAAKALKEAAAKCL7dy5M2644YZ47rnn2u1NmDAhnnjiiejTp0+CZHSU1tbWmDNnTjz88MPt9oYPHx4rVqyIIUOGJEgGAAD5wx0gAADQhQ7e9/Gb5UdBQUHU1NTEs88+q/zIgKKioliwYEEsXbo0evfu3WZv06ZNUV5eHosXL06UDgAA8oMTIAAA0EUOd99Hnz594oknnogJEyYkSkZneuedd2L69OlGYgEAQBdzAgQAALrAvHnzYuLEie3Kj2HDhsWGDRuUHxk2dOjQWLduXcyaNavd3uLFi2PUqFGxefPmBMkAACDbnAABAIBOtHfv3rjppptiyZIl7fbc95F/li1bFjfffHPs2rWrzXpxcXE8+uijMX369ETJAAAge5wAAQCATrJly5YYO3Zsu/LDfR/56/rrr4/6+voYPXp0m/Xdu3fHjBkzYsaMGbFv375E6QAAIFucAAEAgE6wZs2amDJlSmzfvr3Nuvs+iIhobW2NOXPmxMMPP9xub/jw4bFixYoYMmRIgmQAAJAdToAAAEAHe+CBB+Kaa65pV36474ODioqKYsGCBbF06dLo3bt3m71NmzZFeXl5LF68OFE6AADIBidAAACggxzpvo+rr746nnnmGSOvaOedd96J6dOnx4YNG9rtTZ8+PRYuXBg9e/ZMkAwAAHKbEyAAANABmpubv/C+j4iIOXPmxOrVq5UffKGhQ4fGunXrYtasWe32Fi9eHKNGjYpNmzYlSAYAALnNCRAAADhB69evj6997WvR3NzcZr1Xr17x+OOPx9SpUxMlI9csW7Ysbr755ti1a1eb9Z49e8bChQtj+vTpiZIBAEDucQIEAABOwKJFi6KioqJd+TF48OB49dVXlR8ck+uvvz7q6+tj9OjRbdb37dsXM2bMiBkzZsS+ffsSpQMAgNyiAAEAgOPQ2toat956a9x6663R2traZu/qq6+O+vr6GDFiRKJ05DIjsQAAoGMoQAAA4Bg1NzdHRUVFLFq0qN3ewfs+zjjjjATJyIqioqJYsGBBLF26NHr37t1mb9OmTTFq1KhYvHhxonQAAJAb3AECAADHwH0fdLV33nknpk+fHhs2bGi3N3369Fi4cGH07NkzQTIAAOjenAABAICj5L4PUjASCwAAjo8CBAAAfov9+/e774OkjMQCAIBjpwABAIAj2L59e1xzzTXu+6BbuP7666O+vj4uvfTSNuv79u2LGTNmxIwZM2L37t2J0gEAQPfiDhAAADiMjRs3xiaxQd8AACAASURBVKRJk2LLli1t1ouKiuIf//Efjbwimb1798add94ZDz/8cLu9IUOGxIoVK2L48OEJkgEAQPfhBAgAAHyBJUuWxNixY9uVHwMGDIi1a9cqP0iqV69ehx2JtXnzZiOxAAAgFCAAANDG/v374zvf+U5MmzYt9u7d22ZvzJgxUV9fH/+PvXuNi7pO/z/+xlEENU0pjdKsFKkMKSmEtDAq7EDgCoqGJwqtFTeP2VlFbVNLc83Dr6QgFVdMEQyPtXh4aIqJSoYuoRZpWhZmiIwih/8N1/k7zoCowAzwet4aPp/vd+b6dkON93yuy8fHx0bVAeZoiQUAAACUjQAEAAAA+J+L8z4++OADi73IyEht3rxZrq6uNqgMKJubm5vS0tI0fPhwi73Fixfr/vvvV2Zmpg0qAwAAAGyLGSAAAACAyp/3MXfuXEVGRtqoMqDili9frhdeeEGnT582W3dyctKCBQvUv39/G1UGAAAAVD8CEAAAANR5KSkp6tOnj0XLK1dXVyUmJtLyCjVKdna2QkJCtG/fPou9/v37a/78+WrSpIkNKgMAAACqFy2wAAAAUGeVlpYqOjpaQUFBzPtArUFLLAAAAOACToAAAACgTsrLy1N4eLhSUlIs9iIjIzV37lw5OjraoDKg8tASCwAAAHUZAQgAAADqnKysLAUHBysrK8tsnXkfqI1oiQUAAIC6igAEAAAAdUpKSorCw8OVl5dntu7i4qKUlBRaXqFWMhqNGjdunObMmWOx165dOyUnJ6tjx442qAwAAACoOswAAQAAQJ1w6byPy8MPT09P5n2gVnN2dtZHH32kL774QjfccIPZ3qFDh/TQQw8pJibGRtUBAAAAVYMTIAAAAKj1jEajIiIilJCQYLEXFham2NhYOTs726AyoPqV1xIrNDRUn332mUVIAgAAANREnAABAACoBXJzc21dgt3KycmRr6+vRfhhMBg0Y8YMLV26lPADdYqbm5vS0tI0fPhwi73ly5fLy8vLajgCAAAA1DQEIAAAADVYfn6+evfurUceeUSnT5+2dTl2JzU1VV5eXsrIyDBbd3Fx0YYNGzR69GgbVQbYVnktsbKzs9WlSxd9+umnNqoOAAAAqBwEIAAAADXYmDFjtHz5ch04cEADBw4U3U3/v5kzZyogIMDidMzFeR/+/v42qgywH6GhoUpPT5eHh4fZutFoVGRkpHr37k24CgAAgBqLAAQAAKAGe/fdd9W2bVtJUlJSkiZPnmzjimzPaDSqb9++GjNmjIqLi832wsLCtH37dtN/MwC0xAIAAEDtxRB0AACAGm7Pnj3q2rWrjEajHBwclJycrOeee87WZdlETk6OgoODLVpeGQwGTZ8+nZZXwBUsX75cL7zwgsWpj4sts1588UUbVQYAAABcPQIQAACAWiA+Pl79+/eXJDVt2lQ7d+6Uu7u7jauqXqmpqerTp49FyysXFxctW7aMlldABWVnZyskJMTqqY/Q0FB99tlnFnNDAAAAAHtECywAAIBaIDw8XKNGjZIk5eXlqWfPnsrLy7NxVdWnrHkf7u7uzPsArhItsQAAAFBbcAIEAACgliguLlZAQIBSU1MlSUFBQUpKSpKDg4ONK6s6hYWFGjhwoBISEiz2AgMDFR8fr6ZNm9qgMqB2oCUWAAAAajJOgAAAANQSBoNBCQkJpgHfq1atUnR0tI2rqjrHjx+Xn5+fRfjh4OCgiRMnatWqVYQfwHUKDQ1Venq6PDw8zNaNRqMiIyPVu3dvi3AEAAAAsBecAAEAAKhlLh+KvnLlSgUHB9u6rEq1Y8cO9erVS8ePHzdbb9q0qeLj4xUYGGijyoDayWg0aty4cZozZ47Fnpubm1asWGERkgAAAAC2RgACAABQgxUVFenzzz/X4sWLdeDAAZ09e1YeHh7av3+/Tp48KelCKJCWlqa7777bxtVWjpiYGEVFRamwsNBs3d3dXcnJyXVu+DtQnWiJJZWUlCg1NVVbtmzR8ePH5eTkpI4dOyowMFCtW7e2dXkAAAC4BAEIAABADZWZman+/ftr7969prUGDRqotLRURUVFZte6u7tr586dNbolVGFhoaKiohQTE2Oxx7wPoPpkZ2crJCTE6iD00NBQffbZZ7rhhhtsUFnVW7Jkid58803l5ORY7NWrV099+/bVBx98IFdXVxtUBwAAgMsxAwQAAKAG2r17t7p162YKP/r06aOdO3fKaDSqsLBQu3bt0uDBg00D0LOyshQeHq6a+t2Xi/M+Lg8/mPcBVD83NzelpaVp8ODBFnvLly+Xl5eX1XCkJissLNSAAQMUHh5uFn44ODjIyclJ0oWTIUuWLJGHh4c2bdpko0oBAABwKQIQAACAGiYvL0/BwcE6deqUDAaDPv30UyUkJOihhx6SwWCQg4ODvLy8FBsbqy+//NL0TeyUlBRNmDDBxtVfvR07dsjLy0s7duwwW2/atKlWrVqlCRMmmIIeANXD2dlZsbGxio2NtTjtkZ2drS5duiguLs42xVWy4uJihYSEaPHixaa13r17a9OmTSoqKlJBQYEyMjI0dOhQ1atXT7m5uerRo4fWr19/VZ9x6tSpqigfAACgTiMAAQAAqGGmT5+uo0ePSpKmTJmiF154ocxrn332WaWkpJi+oTxlyhQlJSVVS52VISYmRn5+fhbDzi+29GLYOWBbgwcPVnp6usUAdKPRqIiICEVERFjMC6lpRo8erZSUFEkXgp/ly5dr2bJl8vPzU7169eTg4KBOnTrp448/1vr169W4cWMVFhaqd+/e+umnnyr0Ga+//roeeOAB7dq1qwqfBAAAoO5hBggAAEAN06ZNGx09elS33HKLjhw5ovr161/xnoULF2rQoEGSpBtuuEFpaWm65557qrrUa8a8D6BmMRqNGjZsmNVTH25ublqxYoVFSFITrFu3Tk8//bQkqX79+kpJSVGPHj3KvWfNmjV69tlnJUnh4eFmJ0esWblypXr16iVJuvnmm/XTTz+pUaNGlVA9AAAAOAECAABQg/z++++m0x/du3evUPghSQMHDlRISIgk6fTp0+rZs6f++uuvKqvzepQ170OSxowZw7wPwA7VxpZYRUVFGjFihOnnKVOmXDH8kKRnnnlGAQEBkqTExESdPXu2zGuzs7PNZqnMnz+f8AMAAKASEYAAAADUIEaj0fT6Yluripo2bZopMPnhhx8UHh6ukpKSSq3vemVkZFid9+Hs7KylS5fqgw8+YN4HYMdqU0uspKQk/fDDD5Kkzp07a+zYsRW+19/fX9KF587OzrZ6TUFBgUJCQpSXlydJGjt2rCmoBgAAQOUgAAEAAKhBWrVqJYPBIEnat2/fVd3brl07+fn5mX5evXq1xo8fX6n1XY+EhAT5+vpazPto27attm/frrCwMBtVBuBquLm5KS0tzexkw0VxcXHy8vK66j+/bGHZsmWm15MmTTL92VsRDRs2NL0uKiqyes3LL79s+u/w6KOP6r333rvGSgEAAFAWAhAAAIAapGHDhurcubMkKT09Xfv377+q+318fMx+/uc//6nExMRKq+9aFBcXa+zYserbt6/ZCRfpwreo09PT5enpaaPqAFyL2tASa/v27ZKkli1b6qmnnrqqe++++271799fISEhat++vcX+//3f/2nRokWSpFtuuUUJCQkVbmkIAACAiiMAAQAAqGH69etnev3mm29e1b2Ojo6SpNGjR0uSSktLFRkZaWrBUt1yc3MVEBCgGTNmWOyNGTNGGzZskIuLiw0qA1AZanJLrIun0Tp27HhVpz8k6amnntKiRYu0fPlyiwBo165dGjlypKQLg9WXLVumW265pXKKBgAAgBkCEAAAADuSnZ2tlStXKikpST/99JPVayIjI3XzzTdLkpKTk7V48eIKv/93330nSXrllVf0xhtvqFWrVkpOTrbJUPGL8z5SU1PN1i+d93G1v3QEYH9qakusi4FxkyZNKu09c3NzFRoaqnPnzkmSpk6dqkceeaTS3h8AAADmHEpLS0ttXQQAAEBdt2LFCk2aNMkUUFzUrVs3TZ8+Xb6+vmbrsbGxeuGFFyRd+OXcli1b9MADD5T7GT///LM6dOigBg0aKDc3V/Xr19fvv/+uVq1aVe7DVEBCQoIiIiIsWl61bdtWycnJtLwCaqm4uDi98sorFqc+nJ2dNW/ePKshia14eXlp9+7datu2bZmB9NUoKSnRs88+q3Xr1kmSQkJCtHz58ut+XwAAAJSNEyAAAAA2VFBQoH79+ik0NNQi/JCkrVu36tFHH9WcOXPM1iMiIhQSEiJJys/P1zPPPFPuN6jPnDmj559/XufOnVOPHj3k6OioevXqVXv4wbwPoG6rSS2xevbsKUnKycnRqlWrrvv9Jk2aZAo/OnTooM8+++y63xMAAADl4wQIAACAjRiNRj355JPatm2bJMnPz0//+Mc/dO+99+ro0aP65JNPzL4dPG/ePP397383/Zyfn69HHnlEe/fulSQ1bdpUH330kQYOHGj2Ofv379eAAQO0e/du1a9fX3v37lXHjh2r4QnN5ebmqk+fPhYtr6QL8z6mTZtGyyugjjAajRo2bJjVQehubm5asWKFRUhS3XJzc9W+fXudOnVKbdq00ebNm3XnnXde03utX79ezzzzjEpKStSoUSOlpaXpvvvuq+SKAQAAcDkCEAAAABsZNGiQFi5cKAcHB02dOlXjxo2zuGbRokV64YUXVFRUpHr16mnNmjXq0aOHaf+3337Tk08+aXb6o0OHDnrqqafUpEkT7d69Wxs2bFBJSYkkadasWRoxYkTVP9xlMjIyFBwcrJycHLN1Z2dnxcbGKiwsrNprAmB79t4Sa9myZaY/n1q3bq24uDg9/vjjZtfs3r1brq6ucnV1tfoeP//8szp37qzc3FxJ0uLFixUeHl61hQMAAEASAQgAAIBNbN261TT4dvLkyXr77bfLvHbatGl6/fXXJUk33XSTjhw5IicnJ9P+X3/9pcGDByspKanM96hfv74+/PBDDR8+vJKeoOJSUlLUp08f5n0AsCo7O1shISFW2/gNHjxYs2fP1g033GCDyi6YPXu2Ro4cqYv/69ylSxfTn9/bt2/Xtm3bNHLkSH344YcW9xYWFqpbt2769ttvJUlRUVEWLQ0BAABQdQhAAAAAbKBfv35aunSp2rVrp6ysrDJbP61bt079+vXTqVOn5OjoqNmzZ+ull16yeu2qVas0ffp0ffPNN6Zf1BkMBj399NOaNGnSFYekV7bS0lJNmjRJ0dHRuvyfnD4+PkpJSZGLi0u11gTAPtl7S6x169bpxRdf1LFjx6zu33333Tpw4IDF+ssvv6yPP/5Y0oXgZMuWLXJ0dCz3s86ePauDBw+qsLBQt99+u2666abrfwAAAIA6igAEAADABlxdXfXrr79qxIgRmjVrltVrpk6dqrfeekslJSW65ZZbtGLFCj388MNXfO8//vhDP/zwgwwGg+6++241a9asssu/ory8PIWHhyslJcViLzIyUnPnzr3iLwEB1D323BKroKBAMTEx+uKLL7R//36VlJTIzc1NPXv21LBhw3TjjTeaXb9o0SLTTKabbrpJu3fvVps2bcp8/127dmnq1KlavXq1zp49a1r38PDQ0KFDNXToUP7cBAAAuEoEIAAAADbg4OAgSXrnnXc0adIks70zZ87ohRde0LJlyyRdOC2xYsUK3XrrrdVe57XIyspScHCwsrKyzNYdHR01d+5cRUZG2qgyADWBvbfEqoh9+/bJx8dHBQUFqlevntatW6cnn3zS6rVFRUV67bXXNGvWLNO8JmvuueceLVmyRPfff39VlQ0AAFDr1LN1AQAAAHVRo0aNJEmZmZlm6z/++KMefvhhU/jx4osvavPmzWbhh9Fo1BdffKGpU6cqPz+/+oqugJSUFHl7e1uEH66urtq8eTPhB4ArcnNzU1pamtXTHnFxcfLy8rIajtiL06dPKyQkRAUFBZKk6OjoMsOPc+fOqWfPnpo5c6Yp/PD09NS7776rRYsW6b333jO1Lzxw4IC6deum9evXV8+DAAAA1AKcAAEAALABb29vffvtt3J2dtaxY8d044036uuvv1ZYWJhOnjypBg0aaNasWRo2bJjFvXv27FHnzp0lSZs3b9ajjz5a3eVbuNK8j8TERLm6utqoOgA1lT23xCrLsGHDNH/+fEnSs88+qy+//NJ06u9SpaWl6tevnxISEiRdOCX3r3/9Sy+99JLF9Z9//rmGDRumgoICNWrUSN988408PT2r/mEAAABqOE6AAAAA2MCzzz4r6cJpjqlTp2rGjBl66qmndPLkSbVq1UqpqalWww9JatGihen1qVOnqqXe8uTl5SkoKEgTJ060CD8iIyO1efNmwg8A12Tw4MFKT0+3GIBuNBoVERGhiIgIi3DElk6dOqVPP/1U0oW5HwsXLrQafkjSrFmzTOFHw4YNtWbNGr388stWrx80aJA2bNighg0bqqCgQBERERZ/3gIAAMASAQgAAEAl++OPP64YTAwZMsQ0zHbatGkaO3asiouL5e3trfT0dHXr1q3Mey9t/dKqVavKKfoaZWVlydvb22LYuaOjoxYsWKAFCxYwtBfAdalJLbGysrJUWFgoSerXr59ZYH2pw4cP64033jD9HBsbq8cff7zc9+7atasmTJgg6cJJwHXr1lVS1QAAALUXAQgAAEAlOH/+vGbNmqX27dvr5ptvVvPmzeXl5aUvv/zS6vW33nqrRo8ebbb2/PPPa8uWLbrtttvK/ax58+ZJkpo1a2bqDW8LzPsAUF2cnZ0VGxur2NhYiwHo2dnZ6tKli+Li4mxT3CXuvPNOGQwGSdK2bdtkNBqtXvf222/r3LlzkqShQ4eqX79+FXr/S0+IXB48AwAAwBIBCAAAwHX68ccf1aVLF40aNUqHDh0yre/evVtBQUEaM2aM1VYl48eP13333Wf6OTs72/TN4bJMnjxZa9eulSQNHz7cJqcrSktLFR0draCgIOXl5Znt+fj4KD09XT4+PtVeF4Daz95bYrVs2VJDhgyRdOHvgAceeECZmZlm1/z222/64osvJEkuLi764IMPKvz+zZs3V8uWLSVJP/zwQyVVDQAAUHsRgAAAAFyHn376Sd27d9eePXskSR06dNDzzz9vdjJj5syZevXVVy3udXZ21ooVK0wtUr799lt17drV4kSFJJ05c0YvvfSSxo8fL0m6//779dZbb1XFI5XLaDQy7wOATdl7S6xZs2bp+eeflyT9/vvvFqf61q1bp6KiIknSK6+8YnGipTylpaV2NfMEAADA3hGAAAAAXIcBAwbo559/VpMmTRQbG6usrCzFx8dr9+7dWrx4sRo2bChJmjFjhj7++GOL+zt06KDVq1erWbNmki7M9/Dw8NCgQYP0+eefKyEhQa+//rrat2+vTz75RJLk4eGhtWvXytnZufoeVFJOTo58fX0t2q4YDAbmfQCoVvbcEqthw4aKj4/X6tWrFRMToxtvvNFs/9ITIX/729+u6r137NihgoICSdIdd9xx3bUCAADUdg6l1voxAAAA4Iq++uorBQQEyMnJSZs2bVKXLl0srlm5cqVCQ0NVUlIiR0dHbdy4UQ8//LDFdd9//7169eql7Ozscj8zNDRUMTExpsCkuqSmpqpPnz7Kzc01W3dxcdGyZcvk7+9frfUAwEXZ2dkKCQmxeupj8ODBmj179lWdsqhqUVFRpllO+fn5aty4cYXvDQ8P15IlSyRJ8fHxppMmlzt69KiSk5MVFRV1/QUDAADUYJwAAQAAuEonTpyQJG3cuFGSNGHCBKvhh3Th271TpkyRJBUWFiokJETHjh2zuO6+++7T3r17NXnyZN1yyy0W+w8//LBSUlL0xRdfVHv4MXPmTAUEBFiEH56enkpPTyf8AGBT9t4S63KtWrUyvf7jjz8qfF9aWpqWLl0qSbrxxhvVs2dPq9edP39evXv31vDhwxUWFnbF2VIAAAC1GQEIAABABRmNRvXv31/e3t76448/dOzYMTk4OOill14q97433nhDvXv3liT9+uuvCgkJ0blz5yyua9Sokd5++20dPXpUe/bsUVJSktatW6djx45p27ZtevbZZ6vkucpiNBrVt29fjRkzRsXFxWZ7YWFh2r59u9q2bVutNQGANfbcEutyfn5+ptcrV66s0D35+fkaOHCgSkpKJEmvvvqqGjVqZPXa0aNHa8eOHZKk+vXr05oQAADUabTAAgAAqKBZs2Zp1KhRkqTu3bvrlltu0datW3XkyJEr3nvmzBn5+vqavoX84osvKiYmpkrrvR45OTkKDg5WRkaG2brBYND06dM1evRoG1UGAOWz95ZYJSUl8vDw0P79+9WiRQvt3btXbdq0KfP6oqIiBQUFae3atZKke++9V+np6XJycrK4dunSperXr5/pup07d6qgoEBnz57VzTffbPUeAACA2owABAAAoIKKi4v1zDPPaMOGDaa15s2b6+TJkxW6//Dhw3rwwQf1559/SpLmzZunv//971VS6/Vg3geAms5oNGrYsGFWT324ublpxYoV8vDwqP7C/mfjxo16/PHHVVpaqvbt22vt2rVq3769xXX5+fnq27evVq9eLUlq3LixvvnmG3Xq1Mni2gMHDuihhx7SmTNnJEkeHh4yGo06ePCgJKlBgwZ65plnNGnSJKv3AwAA1Ea0wAIAAKggg8GgpUuXql27dqa1P//8U3v27KnQ/XfddZeWLl0qg8EgSRoxYoS2bt1aJbVeK+Z9AKgN7L0l1mOPPaYPP/xQknTw4EF5enoqOjpaOTk5kqTTp09r0aJFuu+++0zhh6OjoxISEqyGF/n5+erVq5cp/JCkX375RR06dFBQUJBuv/12nT9/XsnJyXrwwQc1d+7canhKAAAA2+MECAAAwFX6/vvv5ePjY/pF04ABA7Rw4cIK3//+++9r3Lhxki4Mw01PT9dtt91WJbVWlNFoVEREhBISEiz2wsLCFBsbK2dnZxtUBgDXx55bYn322WeKiorS2bNnTWuOjo4Wg8ubN2+upUuXKiAgwOr79O3b1/Tnt5OTk9577z0NHz5c9evXlySVlpYqKSlJ//jHP/TLL79IkqZNm2b6uwgAAKC2IgABAAC4BsuXLzcNNq9Xr562bNmirl27Vvj+S39Z5e3trS1btqhhw4ZVUuuVHD9+XE8//TTzPgDUWvbcEuvAgQMaO3as1qxZY7Hn4OCgkJAQzZgxQ7fffrvV+//1r39p5MiRkqQbb7xRa9aska+vr9Vrjx07Jn9/f2VlZV3T310AAAA1DQEIAADANXrzzTf13nvvSZLuuOMO7d69W82bN6/QvQUFBXr44YeVkZEhDw8PrVu3TrfeemtVlmvVjh071KtXLx0/ftxsnXkfAGqjuLg4vfLKKzp9+rTZurOzs+bNm6fBgwfbpjBJhw4d0tq1a3Xw4EGVlpaqQ4cOeuaZZ3TnnXeWec8333yj7t276/z582rQoIHWrVt3xT+3d+/eLS8vL0lSUFCQkpOTK/U5AAAA7AkBCAAAwP+UlJRo//79+vnnn+Xk5KT77rtPLVu2LPf6wMBArV27VpLUo0cPrVmzRvXqVWzM2k8//aQpU6boX//6lxo3blwpz3A1YmJiFBUVZdFqxd3dXevXr1fbtm2rvSYAqGpXaok1b968GtHy78SJE+rcubOppdVHH32k4cOHV+jeO+64Qzk5OXJ1ddWxY8eqskwAAACbIgABAAB13unTp/XBBx/ok08+0a+//mq25+fnpzfffLPMvuunTp2St7e3srOzJUnjxo3TtGnTqrzm61FYWKioqCjFxMRY7AUGBio+Pl5Nmza1QWUAUD3Ka4nl4eGh+Ph4m7XEqoji4mIFBAQoNTVVktSvXz8tWbKkQveWlJTo5ptv1smTJ3XnnXfq8OHDVVkqAACATVXs64kAAAC11JYtW3Tvvfdq0qRJFuGHJG3evFk9evTQwIEDVVBQYLF/4403KikpyTRAd/r06VYHiduL48ePy8/PzyL8cHBw0MSJE7Vq1SrCDwC1nrOzs2JjYxUbG2sxAH3fvn3q0qWL1XDEXrzzzjum8OPee+/VggULKnzvl19+qZMnT0oS8z8AAECtxwkQAABQZyUmJqpfv36mFlA9evRQWFiYWrdurZ9//llLliwx/YJJknx9fbV27Vo1a9bM4r2SkpLUq1cvlZaWqlGjRtq+fbs6depUbc9SEWXN+2jatKni4+MVGBhoo8oAwHZqWkuslJQUBQUFqbS0VDfccIO+/fZbubu7V+jeM2fOyMPDQz/++KOkCzNEyhqYDgAAUBsQgAAAgDrp22+/1SOPPKJz586pefPmWrx4sZ555hmL6xITEzVo0CDl5+dLkh577DGtW7dOjo6OFteOHz9ekydPliTdeeed2rVrl1q0aFG1D1JB5c37SE5OrvAvzwCgNqopLbEOHz4sLy8vnTp1SpL0xRdfKDQ0tML3DxgwQIsXL5Yk9e7dW8uWLauSOgEAAOwFAQgAAKhzSkpK1KlTJ2VmZqpx48batm2bPD09y7x+9+7d8vf3119//SVJGj16tGbMmGFxXWlpqYKDg/Xll19Kkp544gmtW7dOBoOhah6kApj3AQAVFxcXp2HDhsloNJqtOzs7a968eRo8eLBtCvufxx9/3HQycdSoUZo5c2aF7503b56ioqIkSa6urvruu+900003VUmdAAAA9oIABAAA1FhFRUWaOHGihg4dqttvv73C93355ZcKCgqSJH344YcaOXLkFe/ZuHGjnnzySRUXF8vBwUHffPONfHx8LK7Ly8uTt7e3srKyJElvvfWWpkyZUuHaKtPx48fVq1cv7dixw2zdwcFBEyZM0Pjx4+Xg4GCT2gDAXu3bt0/h4eF22RLrxx9/VGhoqBo1aqSNGzeqfv36Fbrv22+/Vbdu3VRYWKj69etr5MgkfQAAIABJREFU48aN6tatW5nXZ2ZmKi0tTSdPnpSLi4t8fHx0zz33VNZjAAAAVBsCEAAAUCOdOnVKvXr10saNG+Xl5aWtW7fKycmpQve+/PLL+vjjj1WvXj2dOnXKYgBuWSZPnqzx48dLkvz8/LRp0yar12VlZcnb21utW7dWUlKS3NzcKvT+lYl5HwBw7ey5JdbZs2eVn59f4dMbubm56ty5s37++WdJ0syZMzVq1Cir16akpOidd97R3r17LfYefPBBvfvuuwoICLj24gEAAKpZPVsXAAAAcC0aNWqkc+fOSZLS09M1dOjQCt976NAhSRdagFQ0/JCkN954wxRmbN68Wfv377d6nbu7u9avX68dO3bYJPxISEiQn5+fRfjh7u6unTt3En4AwBU4OzsrNjZWsbGxFqc99u3bpy5dulgNR6qDk5NThcOPkpIShYeHm8KP0NBQq+FHYWGhXnzxRT333HNm4Yezs7MaNGggSdq1a5d69OihqKgoFRcXV8KTAAAAVD0CEAAAUCM5Ojpq+fLluvXWWyVJixYt0qxZsyp078W2T6dOndLVHIatX7++Xn31VdPPa9asKfNaHx+fqwpXKkNxcbHGjh2rvn37Wgw7DwwM1M6dOxl2DgBXYfDgwUpLS7M47WE0GhUREaGIiAiLeSH2JDo6WuvXr5d0IQT/7LPPLK45f/68evbsabb3wgsvKDMzUwUFBcrPz9f69etNbR/nzZun3r17q6SkpHoeAgAA4DoQgAAAgBrL1dVVK1askKOjoyTp1Vdf1caNG69431133SVJOnPmjLZt23ZVn3lxdoikMk+A2EJubq4CAgKsDmcfM2aMVq1axbBzALgGHh4eSktLszoAPS4uTl26dLE6L8TW1q1bZ5pB1bhxYyUmJloN5l966SWtXbtW0oXTlatWrdKnn36qe++9V9KFLxwEBARo27ZtGjt2rCRp5cqVmjRpUjU9CQAAwLUjAAEAADWaj4+P5s6dK+nCUPQ+ffooJyen3HueeOIJ0+sPP/zwqj6vVatWpqGz9vKt34yMDHl5eSk1NdVs3dnZWUuXLtUHH3zAsHMAuA723BLLmpycHIWHh5tOaSxYsMAUaFxq4cKFio2NNf384IMPqnv37lbfs169enr//ffVr18/SdK0adMsWi0CAADYGwIQAABQ40VGRurll1+WJP3xxx/629/+Vm448dxzz6lVq1aSpMTERP3nP/+p8GedOHFCRUVFkqTWrVtfR9WVIyEhQb6+vhahT9u2bbV9+3aFhYXZqDIAqH1qQkusc+fOKTQ0VCdPnpQkDR8+3BRaXCo3N1cjR440W9uyZYseeughZWZmlvn+0dHRki4MY09MTKzEygEAACofAQgAAKgVZs+era5du0qS9uzZoyFDhpR5bcOGDfXWW2+Zfh44cKBOnDhRoc/597//bXrt7+9/jdVev0vnfVz+yzZ/f3+lp6fL09PTRtUBQO1l7y2x8vLyTIPLfXx8NHPmTKvXTZs2TX/++ackKSQkRHFxcXJ2dlZWVpa6dOmiJUuWWL3Pzc3NdArmu+++q4InAAAAqDwOpVcz+RMAAMCO/fbbb/Ly8tIvv/wiSZoxY4ZGjx5t9dri4mI98sgj2r59uyTJy8tLmzZtUpMmTcp8/8OHD6tz587666+/1KFDBx04cED16lX/90lyc3PVp08fi5ZX0oV5H9OmTZPBYKj2ugCgromLi9OwYcMsgmhnZ2fNmzfPakhSHc6fP68JEyZo2LBhVk8rFhUVqWXLlvrzzz/VoEEDHT58WK1bt9Z3332nkJAQHTx4UJIUFRWlmTNnmmZtSRcClubNm6ukpERDhgzRJ598Um3PBQAAcLU4AQIAAGqNVq1aKTExUQ0bNpQkjRs3rsz2VgaDQUuXLlXLli0lSenp6fLz89PRo0etXr937175+fnpr7/+Ur169TR//nybhB8VmfdB+AEA1cNeW2I1aNBA//znP8ts1ZiWlmZ2+uPidZ06ddKuXbsUHBwsSZo7d64effRRHTlyxHTvqlWrTLNFLn9uAAAAe0MAAgAAahVvb2/NmzdP0oVTHmFhYfrpp5+sXnv77bcrJSVFzZo1kyTt3r1bHTt21JQpU3TgwAGdPHlSu3bt0ogRI+Tt7a2jR4/KwcFBH330kU3aXzHvAwDsj723xLImKyvL9PrJJ58022vWrJlWrlypqVOnymAwKC0tTZ07d9bXX3+twsJCTZkyRdKFLxIEBQVVa90AAABXixZYAACgVoqKijIFIffff7+2bdumRo0aWb02IyNDPXv2LDMouahx48ZasGCB1WGyVam0tFSvvvqqZsyYYbHn7++vZcuWycXFpVprAgBYsteWWJf7+OOP9fLLL0uSkpOTywwyNm3apL59++q3335TvXr15Ovrq23btkmS+vfvr0WLFlVbzQAAANeCEyAAAKBGOX/+vL788ku9/fbbGjlypD744AN9//33FtfNmjVLjzzyiKQL7asiIyPLfE9PT0/t2bNHI0aMsBqSGAwGhYaG6rvvvqv28CMvL09BQUFWw48xY8Zow4YNhB8AYCfstSXW5e68807T60OHDpV5Xffu3bVnzx5169ZNJSUlpvDDxcXF6t9Lv/76q9577z35+/urffv28vT0VEREhL7++usK1fX777/r8ccft7sTMwAAoObiBAgAAKgxFi5cqDfeeEPHjh2z2MvIyFCnTp3M1k6cOCEvLy/TXI/3339fY8eOLfcz/vrrL3399df673//q+LiYt11113y9/fXrbfeWnkPUkFZWVkKDg42a1UiXfgmcWxsLC2vAMBOGY1GDRs2THFxcRZ7Hh4eio+Pt+n8DKPRqFatWun06dPq1KmT9uzZU+5cq6KiIo0bN04ffvihHBwclJycrOeee860X1JSoqlTp2rKlCllBjz+/v6KjY3V7bffbnW/pKREPXr00Ndff61GjRpp7dq1evTRR6/vQQEAQJ1HAAIAAOye0WjUoEGD9MUXX1jdd3Fx0YkTJ6z+8ubbb7/VI488onPnzslgMGjdunV64oknqrrk65aSkqLw8HDl5eWZrbu6umrt2rXy9PS0UWUAgIqy55ZYb7/9tt59911J0vjx4xUdHX3Fe1asWKHffvtNw4YNM62dPXtWoaGhWr16tWnNYDCoffv2ki6cMCkqKpIk3Xbbbfrqq690zz33WLz3W2+9pX/+85+SpHvvvVc7d+5U48aNr/0BAQAARAACAADsXGFhoZ566ilt3LhRktSuXTtNmDBBTz31lBwdHbVnzx4dP3683NZUcXFxioiIkCS1aNFCu3btMmv/YU9KS0s1adIkRUdH6/J/pvn4+CgxMVGurq42qg4AcLX27dun8PBwq22dBg8erHnz5snZ2bna6zp79qx8fHyUkZEhSRo7dqzee+891a9fv8LvUVRUpMDAQK1fv17SheBj1KhRevXVV9WyZUtJF05jzpw5UzNmzFBRUZHuvPNO7du3zyzcSElJUVBQkEpLS3XDDTdo586duvvuuyvxaQEAQF1FAAIAAOzaqFGjNGvWLEnS888/r5iYmGv6RdE//vEPzZkzR5LUqVMnffPNN6ZfvmzYsEEdO3bUbbfdVnmFX4O8vDyFh4crJSXFYi8yMlJz586Vo6OjDSoDAFwPe22Jdfz4cT322GOmVov33Xefxo0bp65du6qwsFCbNm1Sw4YNTV8iuNwrr7yijz76SJLUuHFjLV++XE899ZTVa//zn/8oODhYZ86c0TvvvKNJkyZJkg4fPiwvLy+dOnVKkrRs2TL17t27sh8VAADUUQQgAADAbh08eFB33323iouLFRAQoDVr1shgMFzTexUVFemJJ57Q5s2bJUndunXT9OnT9d1332nEiBFydXXVf/7zH911112V+QgVVta8D0dHR82dO7fcIe4AgJrBHlti/fnnnxo4cKDV8F2SWrVqpaNHj1qcDElJSTHNATEYDFq9erV69OhR7md9+umnioyMVLt27XTw4EGdPXtWvr6+2rt3ryRp5MiR+vDDDyvhqQAAAC4gAAEAAHbr9ddf17Rp0+Tg4KDvv/9e995773W934kTJ+Tt7a2cnByLvRYtWigjI0OtW7e+rs+4FuXN+0hMTJSPj0+11wQAqBr22hLr3//+t6ZMmaL9+/ebrXt5eWnVqlW69dZbTWtGo1F33323fv75Z0nS+++/r7Fjx17xM0pKStS2bVsdPXpU58+f19ChQxUbGytJ6tq1qzZt2nRVLbgAAACuxHJSKAAAgJ3YtGmTJOmOO+647vBDklq2bKkNGzaoXbt2Zut33XWXUlNTqz38KC0tVXR0tIKCgizCDx8fH6WnpxN+AEAt4+HhobS0NKunPeLi4tSlSxer4UhV69evnzIzM7V//34lJiYqKSlJBw8e1K5du8zCD0lasGCBKfzo1q2bRo8eXaHPqFevnh5++GFJ0jvvvGMKP1q1aqVly5YRfgAAgErHCRAAAGC3br/9dh05ckRdu3bV1q1br/r+0tJS/fXXX7rxxhvN1gsKCvTvf/9bhw4d0n333aeQkBA1bNiwssquEOZ9AADssSVWRXh4eOj777+XJG3fvv2qwvoBAwZo8eLFpp8NBoO++uorPfbYY5VeJwAAAAEIAACwW25ubjp48KDatGlj+qZpRb3//vuaMGGCbrvtNmVnZ1dRhdcmJydHPXr0YN4HAMBuW2KV5dixY7rtttskSZ6enqb5HRXl5eWl3bt3m36eOnWqXnvttUqtEQAA4CJaYAEAALvVoUMHSdKRI0dM3zStqJtvvllGo1EHDx7UiRMnqqK8a5KamiovLy+L8MPV1VWbN28m/ACAOsZeW2KV5b///a/ptZ+f31Xdm52drT179ph+Dg4O1rhx4yqtNgAAgMsRgAAAALsVEBBgej179uyrutfFxcX0+o8//qi0mq7HzJkzFRAQoNzcXLN15n0AQN3m7Oys2NhYxcbGWpz22Ldvn7p06aK4uDjbFHeZ8+fPm143adLkqu6Njo7WxSYU7du31+effy4HB4dKrQ8AAOBSBCAAAMBuDRgwQI0aNZIkffrpp1c1B+THH380vb40DLEFo9Govn37asyYMSouLjbbCwsL0+bNm+Xq6mqj6gAA9mLw4MFKS0uTh4eH2brRaFRERIQiIiIs5oVUt7vuusv0+rvvvqvwfWvWrFF8fLykC4HP8uXL1axZs0qvDwAA4FIEIAAAwG61aNFCY8eOlSSVlJRo0KBBFWpnVVJSotjYWEkXvmHaqlWrKq2zPDk5OfL19VVCQoLZusFg0IwZM7R06VKGnQMATOy9JZabm5vuueceSdLatWsr1KLy4MGDGjRokOnn+fPny9PTs8pqBAAAuIgABAAA2LU33njD9E3Yw4cPKyAgQH/++We597z99tumoazDhw+v8hrLcnHeR0ZGhtm6i4uLNmzYoNGjR9uoMgCAPbP3lljR0dGSpOLiYoWGhuqXX34p89qDBw+qR48epnaUQ4cONQtDAAAAqhIBCAAAsGtOTk5asWKFqY1VRkaGHnjgAW3atMni2lOnTikyMlLvvfeepAuzNaKioqqzXJOy5n14enoqPT1d/v7+NqkLAFBz2GtLrN69e5v+fs3KypK3t7eSkpJM8z2kC+FIXFycfHx8dPjwYUnSgw8+eNUzvQAAAK6HQ+ml/0IBAACwU7t27dLTTz9tNtDc29tbTz/9tJo1a6bMzEytWrVKv//+uySpU6dO+uqrr9SyZctqrfPiL6Uub3klXZj3Ye3bvAAAlMdoNGrYsGFWT314eHhoxYoVcnNzq9aaSktLNWnSJE2ePNk036pt27bq3LmzioqKlJaWZta2skWLFtq9e7fatm1brXUCAIC6jQAEAADUGIcPH9bzzz+vtLS0cq/r3bu3FixYUO3DVXNychQcHGzR8spgMGj69Om0vAIAXJe4uDgNGzbM4tTHDTfcoNmzZ1udG1LVdu/ercmTJ2vt2rU6d+6cJKlx48YqLS1VQUGBJMnBwUGrV6/W008/Xe31AQCAuo0ABAAA1CilpaVKSEjQxx9/rG3btun8+fOSpEaNGunxxx/XiBEj9Pjjj1d7XTt27FBgYKBFyysXFxctW7aMllcAgEqxb98+hYeHWx2EPnjwYM2fP19OTk7VXldhYaF+++03FRUVqUWLFvL29tYPP/wgSRo/frxpbggAAEB1IgABAAA11tmzZ/XLL7/IYDCodevWql+/vk3qiImJUVRUlAoLC83WPT09lZycTLsPAEClMhqNGjp0qBYvXmyx17FjRyUkJKhjx442qOyCvn37mlpBBgQEaO3atapXjxGkAACg+vEvEAAAUGM5OTmpXbt2uuOOO2wSfhQWFmrIkCEaMmSIRfgRFham7du3E34AACqds7OzFi1aZHWuVGZmph588EGr4Uh1KCgoMM3ratOmjZYsWUL4AQAAbIYTIAAAANfg+PHj6tWrl3bs2GG2zrwPAEB1Kq8lVv/+/bVgwYJqb4lVUlKiCRMm6LnnnpO3t3e1fjYAAMClCEAAAACu0o4dO9SrVy8dP37cbL1p06ZauXIl8z4AANXKaDRq2LBhiouLs9izh5ZYAAAAtsI5VAAAgKsQExMjPz8/i/DD3d1dO3fuJPwAAFQ7Z2dnxcbGKjY21uK0h61bYgEAANgSJ0AAAAAqoLCwUFFRUYqJibHYCwwMVHx8vJo2bWqDygAA+P8yMzMVFhamzMxMi73+/ftr/vz5atKkiQ0qAwAAqH4EIAAAAFdQ1rwPBwcHTZgwQePHj5eDg4ONqgMAwNzZs2c1ZMgQq6c+2rVrp+TkZFpiAQCAOoEABAAAoBzlzfuIj49XYGCgjSoDAKB8ixcv1pAhQ3T27FmzdScnJy1YsED9+/e3UWUAAADVgxkgAAAAZbjSvA/CDwCAPevfv7927dplcdrj7NmzGjBggAYMGKD8/HwbVQcAAFD1OAECAABwmeLiYr388svM+wAA1Aq0xAIAAHUVJ0AAAAAukZubq4CAAIvww8HBQRMnTtSqVasIPwAANYqTk5MWLVqkRYsWycnJyWzv0KFDevDBB62GIwAAADUdJ0AAAAD+JyMjQ8HBwcrJyTFbZ94HAKC2yMzMVFhYmDIzMy32+vfvr/nz56tJkyY2qAwAAKDyEYAAAABISkhIUEREhIxGo9m6u7u7kpOT5e7ubqPKAACoXLTEAgAAdQUtsAAAQJ1WXFyssWPHqm/fvhbhh7+/v3bu3En4AQCoVWiJBQAA6gpOgAAAgDorNzdXffr0UWpqqsXemDFjNG3aNBkMBhtUBgBA9aAlFgAAqM0IQAAAQJ1U1rwPZ2dnxcbGKiwszEaVAQBQvWiJBQAAaitaYAEAgDonISFBvr6+FuFH27ZttX37dsIPAECdcmlLrMtPexw6dEgPPfSQYmJibFQdAADAteMECAAAqDOKi4v12muvacaMGRZ7/v7+WrZsmVxcXGxQGQAA9uHQoUMKDg622hKrZ8+eVkMSAAAAe8UJEAAAUCfk5uYqICDAavgxZswYbdiwgfADAFDntWvXTrt27VL//v0t9pKSknT//fdbDUcAAADsESdAAABArZeVlaUePXow7wMAgKuwePFi/f3vf1d+fr7ZurOzs2bPnq3IyEgbVQYAAFAxBCAAAKBWS0lJUXh4uPLy8szW27Ztq+TkZHl6etqoMgAA7B8tsQAAQE1GCywAAFArlZaWKjo6WkFBQRbhh7+/v9LT0wk/AAC4AlpiAQCAmowABAAA1Dp5eXkKCgrSxIkTdflhV+Z9AABwdZycnLRo0SKrpz0OHTqkhx56SDExMTaqDgAAoGy0wAIAALVKVlaWgoODlZWVZbbu6OiohQsXMu8DAIDrQEssAABQk3ACBAAA1BopKSny9va2CD9cXV21efNmwg8AAK4TLbEAAEBNQgACAABqvPLmffj4+Cg9PV0+Pj42qg4AgNqFllgAAKCmoAUWAACo0fLy8hQeHq6UlBSLvcjISM2dO1eOjo42qAwAgNqPllgAAMCecQIEAADUWFlZWfL29rYIPxwdHbVgwQItWLCA8AMAgCpUkZZY6enpNqgMAACAAAQAANRQqamp5c77iIyMtFFlAADULVdqieXr66tZs2bZqDoAAFCX0QILAADUODNnztS4ceNUXFxstu7j46PExES5urraqDIAAOo2WmIBAAB7wgkQAABQYxiNRvXt21djxoyxCD8iIyO1efNmwg8AAGyIllgAAMCeEIAAAIAaIScnR76+vkpISDBbZ94HAAD2hZZYAADAXtACCwAA2L3U1FT16dNHubm5Zuuurq5KTEyUj4+PjSoDAADloSUWAACwJU6AAAAAuzZz5kwFBARYhB8+Pj5KT08n/AAAwI7REgsAANgSAQgAALBL5c37CAsLY94HAAA1BC2xAACArdACCwAA2J2cnBwFBwcrIyPDbN1gMGj69OkaPXq0jSoDAADXg5ZYAACgOnECBAAA2JXU1FR5eXlZhB8uLi7asGED4QcAADXYxZZYUVFRFnu0xAIAAJWNAAQAANiNsuZ9eHp6Kj09Xf7+/jaqDAAAVBYnJyfNmTNHK1eupCUWAACoUrTAAgAANldYWKiBAwcqISHBYi8sLEyxsbFydna2QWUAAKAqXakl1meffabmzZvboDIAAFAbcAIEAADY1PHjx+Xn52cRfhgMBs2YMUNLly4l/AAAoJa6Ukusi6dAAQAArgUnQAAAgM3s2LFDvXr10vHjx83WXVxctGzZMlpeAQBQhyQlJWnAgAHKz883W2/QoIGmT5+ukSNH2qgyAABQUxGAAAAAm4iJiVFUVJQKCwvN1j09PZWcnKy2bdvaqDIAAGArtMQCAACViRZYAACgWhUWFmrIkCEaMmSIRfgRFham7du3E34AAFBH0RILAABUJgIQAABQbS7O+4iJiTFbZ94HAAC4yMnJSXPmzNHKlSvVpEkTs70jR47I19dXs2bNslF1AACgJqEFFgAAqBZlzfto2rSpVq5cybwPAABggZZYAADgenACBAAAVLmYmBj5+flZhB/u7u7auXMn4QcAALCKllgAAOB6EIAAAIAqU968j8DAQO3cuVPu7u42qg4AANQEFW2JRYMLAABwOVpgAQCAKpGbm6vAwEDt2LHDbN3BwUETJkzQ+PHj5eDgYKPqAABATVReS6yAgAAtXbqUllgAAMCEAAQAAFS6jIwMBQcHKycnx2y9adOmio+PV2BgoI0qAwAANd3Zs2c1duxYzZ0712KvTZs2Wrlypby8vGxQGQAAsDe0wAIAAJUqISFBvr6+FuHHxXkfhB8AAOB60BILAABUFCdAAABApSguLtZrr72mGTNmWOwFBgYqPj5eTZs2tUFlAACgtqIlFgAAKA8nQAAAwHXLzc1VQECARfjh4OCgiRMnatWqVYQfAACg0rVr1067du1SVFSUxd6GDRvk6emp9PR0G1QGAADsASdAAADAdWHeBwAAsAdJSUkaMGCA8vPzzdYbNGig6dOna8SIEXJwcLBRdQAAwBYIQAAAwDVLSEhQRESEjEaj2bq7u7uSk5Pl7u5uo8oAAEBdREssAABwKVpgAQCAq1ZcXKyxY8eqb9++FuGHv7+/du7cSfgBAACqHS2xAADApQhAAADAVSlr3ockjRkzRhs2bGDeBwAAsBknJyfNmTNHK1euVJMmTcz2jhw5Il9fX82aNUs0xAAAoPajBRYAAKiwsuZ9ODs7KzY2VmFhYTaqDAAAwNKhQ4cUFhZm9dQHLbEAAKj9OAECAAAqJCUlRb6+vhbhR9u2bbV9+3bCDwAAYHfatWun7du3l9sSa+vWrTaoDAAAVAcCEAAAUK7S0lJFR0crKCjI6ryP9PR0eXp62qg6AACA8jVo0KDclljdu3fXlClTaIkFAEAtRAssAABQpry8PIWHhyslJcVib8yYMZo2bZoMBoMNKgMAALh6tMQCAKBuIQABAABWZWVlKTg4WFlZWWbrzPsAAAA12fnz5zVq1CjNnTvXYq9NmzZasmSJunXrZoPKAABAZaMFFgAAsJCSkiJvb2+L8IN5HwAAoKajJRYAAHUHJ0AAAIBJaWmpJk2apOjoaIv/6ff399eyZcvk4uJio+oAAAAqFy2xAACo3TgBAgAAJF2Y9xEUFKSJEydahB9jxozRhg0bCD8AAECt0q5dO23fvl1RUVEWexs2bJCnp6e2bt1qg8oAAEBl4AQIAAAoc96Ho6OjFi5cSMsrAABQ6yUlJWnAgAHKz883WzcYDJo4caLeeustOTg42Kg6AABwLQhAAACo41JSUhQeHq68vDyzdVdXVyUmJsrHx8dGlQEAAFQvWmIBAFC70AILAIA6LDo6WkFBQRbhh4+Pj9LT0wk/AABAnUJLLAAAahcCEAAA6iCj0ai+fftanfcRGRmpzZs3y9XV1UbVAQAA2E6DBg00Z84crVy5Uk2aNDHbO3LkiLp3764pU6ZY/BsKAADYH1pgAQBQx+Tk5Cg4OFgZGRlm646Ojpo7d64iIyNtVBkAAIB9uVJLrIULF6pVq1Y2qAwAAFQEAQgAAHVIamqq+vTpo9zcXLN15n0AAABYd/78eY0aNUpz58612GvVqpWWL1+ubt262aAyAABwJbTAAgCgjpg5c6YCAgIswg/mfQAAAJStvJZYv/32Gy2xAACwY5wAAQCglisuLta4ceM0c+ZMi70hQ4bok08+sUFVAAAANQ8tsQAAqFkIQADg/7F332FRXO/bwG9AiqIiRZq9UUTE3kXsJXa/EluMiokaS4yJUWMsaRo0ib1ETbGX2DvYo2KPYgEUA4I0QRGkSznvH7w7v13ZhrIskPtzXVzZuGfPPLNT9px5zpwhKsNevHgBb29vnD17VuHf+bwPIiIiorfDKbGIiIhKD06BRUREVIalp6fj3r17Cv/m4OCACxcuMPlBRERE9BY0TYl18+a/kVeBAAAgAElEQVRNPUVGREREb+IdIERERGXc5cuX0blzZ2RnZ8PDwwMnTpyAg4ODvsMiIiIiKvXenBJr0KBB2L9/v56jIiIiIhkmQIiIiP4Dtm3bhqNHj+KPP/5A+fLl9R0OERERUZkhmxJr3759CA4ORpUqVfQdEhEREf1/TIAQEREREREREb2j58+fw8bGRt9hEBERkRwmQIiIiIiIiIiIiIiIqMzhQ9CJiIiIiIiIiIiIiKjMYQKEiIiIiIiIiIiIiIjKHCZAiIiIiIiIiIiIiIiozDFauHDhQn0HQUSkS7t378a2bdtw+vRpeHp6wsjISN8hURmQl5eH77//HidOnEDbtm1hYmKi75CoDLlx4wZWrVqF06dPw9HREVWrVtV3SMXmr7/+wqFDh1CtWjVYWlrqO5y38ssvv+DQoUNo1KgRKlasqO9wiKiMKgvny8LasmULdu7cCTs7O9jZ2ek7HCpDXrx4gW+//RanT59GZmYmnJyc9B1SsYmMjMTatWsRFRWFRo0awcDAQN8hFdrBgwfx559/okKFCqhRo4a+wyGiEqacvgMgIuUiIyPx+vVrpe8ZGBjAxMQElSpVQpUqVYo5stLnyJEj2L59OwDg66+/5oVqKhI//fQT5s+fj86dO8Pc3Fzf4VAZExgYCF9fXwBAmzZt0LBhQz1HVDzWr1+PSZMmAQBWrlyJsLAwVKhQQc9RFV5KSgp8fX0RHByMQ4cO6TscojIhLy8PN27cwOPHjxEfHw8AsLa2hqOjI9q1a1cqzxXvoqycLwvj6tWrGDduHKpUqYJZs2bpOxwqY16+fCm1vTIzM9G3b189R1Q8srOz0b59e0RFRQEAYmNjMWPGDD1HVXiWlpbw9fXFjh07cO/ePVhYWOg7JCIqQZgAISqhevTogYcPH2osZ2FhgUaNGqFbt24YOXIkGjRoUAzREf23BQUFYf78+TA0NMSyZcv0HQ5RmXHz5k3p9bNnz/D06VM4OzvrMaK3M3PmTGzcuBGHDx/G5s2b8eGHH+o7JKJSKyUlBd9++y22bNkiJT7eZGpqii5duuC7775D8+bNizlC/Sgr50ttZWRkYMyYMcjNzcWCBQv+M3e8EOnas2fPpOQHkH8XcmnUqVMnDBo0CAcOHMD06dPxxx9/6DskIipB+AwQolIuOTkZly9fxjfffANnZ2cMHToUT58+1XdYRHoVExMDPz8/rFu3Tif1f/TRR8jKysLgwYPh4eGhk2UQlQUhISHYv38/Dh48qFX5999/X7pLr3379qhfv74uw9OZChUq4MsvvwQAfPrpp0hMTNRzRESl06NHj+Di4oKffvpJZfIDALKysnDixAm0bNkS33zzjdo6k5OTcfHiRfz666+Ii4sr6pCLTVk5X2rr+++/x8OHD1GtWjVMmDBB3+EQlViF7QdVq1YNXbp0AQAYGxtjxIgRugxPp2Qz/P/55584c+aMfoMhohKFCRCiEs7Q0BCnTp0q8Hf48GH8/vvvmDVrFlq3bg0AEEJg7969aNKkCc6fP6/fwIn0aMSIEejVqxfmzJlT5HWfOXMGAQEBAKCT+onKEldXVwwZMgR//vmnVuW7d++O8PBwXL16FefOnSvVz2waP348bGxskJycjFWrVuk7HKJSJzU1FT179kRMTAwAoHXr1ti9ezeioqKQk5ODzMxMREREYPv27ejVqxeA/LbwwoULsWvXLpX1Llu2DJ6enpg4cWKpToCUpfOlJklJSdJ5dMaMGZzOlkiNwvaDDAwM4O/vj+vXryMsLAz9+vXTcYS607hxY/Tu3RtAftKUiEiGU2ARlXAGBgbo1q2bxnJBQUGYMWMG/Pz8kJiYiL59++LChQv/mWkAiIrL4sWLAQDNmzdHs2bN9BwNUdnj6OgIR0dHfYfxzipUqICRI0dixYoVWLlyJT7//HM+EJ2oEDZt2oQnT54AAAYNGoS//vpL4SK/kZERatasiREjRmDEiBE4evQohg0bhmrVqpWZufv9/Pzw66+/on379vjoo49QuXJlhfdLw/ly5MiRqFq1KgYOHAgvL6+3qmP16tVISUmBiYkJxowZU6TxEVH++bRly5b6DqNIfPzxxzhx4gTOnz+PK1euoG3btvoOiYhKAN4BQlRGNGzYECdOnMDkyZMBAGlpaRgxYgSysrL0HBlR2XHr1i3pdupRo0bpORoiKuk++OADAEBiYiI2bdqk52iISpfDhw9Lr5ctW6bxDoe+ffvi/PnzOHjwYJlJNh48eBAHDhyQptQrbZ49e4YdO3ZgxYoVOHbs2FvVkZWVhZUrVwIAevfuDSsrq6IMkYjKmD59+kjnCdlD7YmIeAcIURliYGCAFStW4NatW7h69SoePXqENWvWYMaMGVp9PikpCWfOnEFQUBBevXqFypUro06dOujcuTOqVaum9DNPnz7Fs2fPAAD16tUr1AMJb9++jdzcXJiamsLd3V1t2SdPnuDcuXMICwtDVlYWrKys0KhRI3h6ehYYDVdUkpOTcfbsWQQFBSEpKQmmpqaoVasWOnToAFdXV63qePDgATIyMmBmZoZGjRpJ/56QkIATJ04gIiICKSkpsLe3R9u2bdGmTRsYGBiorTMnJwd37twBkD9nq4ODA4D8DuKxY8cQEhKC1NRUVKtWDZ6enkq/29evX+P48eN4+PAhEhMTYW1tjTZt2qBjx44al/+mW7du4cqVK4iOjgYA2NraomXLlmjdujWMjY3VfjYyMhLx8fEwMDBQuFspPj4ex48fR2RkJNLT01G1alW0atUK7du3h6Gh8tz9tWvXkJ2dDSB/2wFAbm4uLl26VKBspUqV3urZHdu3b5deq7s9/OXLl/j3338BAC4uLtKFmMzMTBw/fhyhoaF48eIFqlSpAnd3d3Tu3LnQF2uKYv8syu//XRTncZKRkYGbN28iOjoaVapUQePGjTWOnr19+zauXr2KqKgoZGdnS+efLl26oEKFCoVe37S0NJw6dQr37t1DSkoKbGxs4Obmhu7duxdqWo+IiAgkJCQAAJo0aYJy5dQ368LCwqRnUbRo0UKrZWRmZuLcuXMIDAzEixcvYGJiAkdHR7Ro0QKtWrUqsB3S09Pxzz//FKgnMTFR6bFYvXp11K5dW/p/+e1WtWpV1KpVS6s433UbqdpfhBC4cOEC7ty5g9jYWFSoUAH16tVD165dpTLqNG/eHA4ODoiNjcWOHTswffp0rdaHiCDd/VGxYkWtzwWqzm0hISF4/vw5gPzfPpk7d+4gNTW1QPl27dqp/L1LTU3FqVOnEB4ejmfPnsHU1BQ1atRAx44d4eLiolWcMjk5OTh79izu37+PZ8+eoXz58mjYsCF69eoFY2NjKQk0YMCAAu1dbc6Xujq3yXv69Cn8/f0RFRWF9PR0ODo6omPHjmjWrJk0FZmBgQFGjhxZqHpl/Pz8pN86dW2v4lhXoOT+3hSWfFu1bt260gVjIQQuXbqEf/75B7GxsTAxMYGLiwt69uwJa2trjfWqals+fvwYISEhyMjIQI0aNdCqVSu1bcqiaOfKk/UJrl+/joSEBKmf26dPn0L1XxMTExEWFgZAu75vQkICIiIiAADOzs6oVKmSxmUIIXDt2jVcu3YNsbGxAAAbGxu4u7ujU6dOMDMzK/CZd+0HybYbAHh4eGjsw8mWU1R95cqVK8PJyUn696CgIFy4cAFRUVEwMDCQ+rVubm4a6zQxMUGPHj2wa9cuHD9+HMnJybCwsNAqHiIqwwQRlUjOzs4CgDAyMir0Z8+dOycACACidu3aIi8vT235Fy9eiAkTJggTExPpc/J/hoaGwtvbW8TExBT47M6dO6Vy06dP1zrGO3fuSJ8bNmyYynL37t0TPXr0UBoXAFGxYkUxe/ZskZWVpbKOkSNHSuVTUlI0xvbixQvx8ccfq/w+AIgWLVqIs2fPaqzLzc1NABD16tUTQgiRkpIifHx8RLly5ZTW27BhQ3HmzBm1dSYkJEjlv/vuOyGEEPv27RNVq1ZVWuewYcPE69evpc/v2rVL2NraKi3brFkzERYWpnG9hBDi4MGDomHDhiq/oxo1aog///xTbR2TJ09W2M+zsrLElClTVH73zs7O4tq1a0rrsra2VhnLm3/NmzfXah3fVK9ePWnd1Pnrr7+kZV28eFEIIcSvv/4qLC0tlcZjZWUlfv/9d61iKMr9syi//3dRXMfJqlWrhJWVlUJd5cqVExcuXFBah6Z93NzcXHz++edanVeEECI7O1t8++23olKlSkrrs7S0FBs3bhRCCLFx40bp3w8cOKC0Ph8fH6lMQkKCxuUPGTJEKp+dna22bGZmpliwYIGwsLBQuf7169cXx48fV/jcvXv3tD4OAYjPP/9c4fPy283Hx0fjOhXVNlK2vwQEBIgGDRoordfY2FhMnz5d4/cohBDDhg0TAISBgYGIjY3VWJ6I8jk5OUnHXHJy8jvVJX/+0+ZP2TkjLi5OjBkzRpQvX17l53r06CGePn2qVUxbtmxR2R6rWLGiaNOmjdTmiIyMLPB5bc6Xujy3xcbGioEDBwoDAwOldbVp00aYm5sLAGLhwoVafSfKyP/W/fvvvyrL6XJdhSgdvzeFId9W3bp1qxBCCD8/P1GnTh2VcUydOlWkpqaqrffNtuXTp09Fly5dCtTXvXt3pZ8vynauzJ49e0Tt2rXVfr/p6ekiNDRU+vdPP/1UaV1bt26Vyvz1118al71q1Sqp/KlTpzSW37Ztm6hbt67KdbewsBBLly4t8Ll37QfJthsAjecwXfSVu3btKoQQIiYmRnTr1k1lvT179hTPnj3TWO/69eulz+zatUtjeSIq+5gAISqh3iUBIoRQaOTdvn1bZbng4GBRo0YNqWy5cuWEh4eH6NKli2jatKnCBUgHBwfx6NEjhc9nZmZKF3VtbGwULrSr8+mnn0r1+vn5KS2zb98+YWpqqtCxaN26tejcubNCpxiA6NChg8jIyFBaT2ESIEFBQaJ69eoKdZuZmYkaNWoUuHBqYGAgfvzxR7X1yV/YTUpKkv4fgChfvryoUaNGgY60oaGh2Lx5s8o63+w4/fnnn1Ln097eXjRr1kzUrFlToc5PPvlECJF/EV5W1tLSUjRp0kTUr19fofPq7Ows0tPT1a7XF198oVC/nZ2d6NChg/D09BQODg4K7715gVOefCcpJydHdO3aVfqco6OjaNq0qahbt65CfObm5iI0NLRAXXZ2dsLIyEgYGRkpLF/2b/J/rVu3Vrt+ysTHx0t1qkvaCVEwAbJw4ULp/6tUqSI8PDyEi4uLMDMzU4h1586daust6v2zKL//d1Ecx8ny5ctVdnyVXVibMWNGge/T2tpaVK9evUCHz9nZWenFKXmZmZkFkrmGhobCzs5O2NvbC0NDQ+nf58yZo9cESFxcnGjatGmBWB0dHQskb4yMjMTatWulz96/f1/hWJP//pQdi19++aXCsguTACnKbfTm/uLn5yfVYWZmJlxdXUXjxo1FlSpVFOqdMGGCxu9d/uKHqm1JRAXJn7M2bdr0TnV5e3tL5x353zRl5yUjI6MCF3n9/f0LHP8ODg6iadOmwtXVVRgbG0v/3qBBA/Hq1Su18cyfP1+hrrp164r27dsLV1dXhd8DLy8vER8fr7SOt0mAFNW5LTo6WqG9Z25uLlq0aCHatGlToD2izUVidWRJB3t7e7XldHkeLy2/N4XxZgJEvo9gYGAg7OzsRNWqVQskuJo3by6SkpJU1ivftkxOTha1atVS2v6aNWtWgc8WdTtXCCHmzZtXYNmWlpYFtl2nTp1EUFCQ9P/FnQDJzs4Wo0ePLhBr1apVhY2NTYF/HzVqlMjJyZE+/679IG0TILrqK3ft2lVER0cLR0dH6bP16tUTTZs2LdC3bNy4sdrBj0IoDshRtS2J6L+FCRCiEupdEyBjxoyRfvRXrlyptMzLly+lUT4GBgZi5syZ4sWLFwplXrx4ISZOnCjV5e7urtDYEkKITz75RHp///79GmN7/fq1dLdC9erVRW5uboEy169flxqllStXFps2bSqQXAkJCREdO3aUli27yP8mbRMgiYmJCo10Ly8vceHCBYX1jYiIEHPnzlVoMO/YsUNlnbJGnbW1tfDy8hIAxJAhQ8StW7ekMrm5ueLKlSuiZ8+eUp2mpqbi3r17SuuU7zh5eXmJChUqiMaNG4tLly4plLt69arUiCxXrpzYuXOnMDMzE46OjmL//v0K6xUaGioaN24s1fvrr7+qXKcVK1YodPKUje7x9/cX1apVk8rt2bNHaV2yxrahoaGYMmWKACD69+8v7t+/r1AuKipK9OvXT6rv/fffVxmfEEJ06tRJAPmjpIqKn5+ftPwFCxaoLSvfqZwyZYowNDQUjRo1En5+fgr7e0pKisJFEEdHxwLHl4wu9k9dff+FpevjxNvbW1SqVElYWVmJJUuWiOvXr4vAwECxc+dOpR2zn3/+WfpspUqVhK+vr8LI/aysLHHixAnRrFkzqZyHh4fKJKwQih1LKysrsWbNGpGYmCi9n5iYKNasWSON4HN3d5fKF2cCJDMzU7Ro0UIq16hRI7F3716FjmZUVJSYN2+elCA3NDQUN2/eVFqfrJ4BAwZojE8I7RMgRb2N5Jf7/vvvC1tbW2FlZSU2btwo0tLSpHI5OTli165dComgoKAgtevk7+8vlZ03b55W3wMR5Q+Ekb9gWZgR3+osWLBAqlfdICGZ4OBgacCCoaGh+PTTT8Xjx48Vyrx8+VKMGDFCqnfRokUq6/v777+li8qNGjUSd+7cUXg/MjJS9OrVSwAQtWrVEhEREUrrKWwCpCjPbfIDJr7//nuFc2tubq7YsmWLdPfHN998o7IeTdLT06WEUKdOndSW1dW6lqbfm8KQb6v2799fGBsbi6pVq4r169crJPASEhLE8uXLFRIyI0aMUFmvfNtS1h/t27evOHz4sLh//764ePGimD9/foH2my7aufLraGRkJL744gsRHh4uvZ+VlSUOHz4stUPl217FnQCZOnWqQjtx+fLl4uXLl9L7KSkpYtOmTQp3jS1btkxpXW/TD9ImAaLLvnLjxo2Fl5eXMDQ0FLNmzSpwl8f169el6yMAxLp169SuT2ZmpnTu6Nixo9bfAxGVXUyAEJVQ75oA8fX1lRoIqhID06dPl8oou5VW3tixY6Wyu3fvVnjv5s2b0nv9+vXTGNuBAwek8nPnzi3wfl5enjT62NjYWAQEBKisKyMjQxoZZmxsrLTBpm0CRL7hOXLkSKWJGRk/Pz9phI2NjY3KqRnkR7ID+SO7VcnLy1NIXKn6LuU7TkD+dECqRhru2bNHoayFhYXK6QPkpyUbOHCg0jLR0dGiQoUKUqf8+fPnKtcnJCREGrXfsGFDpWXkG9sAxMSJE1XWl56eLt3ZYmpqqnbkjy4SIPK3Um/btk1tWfkOFwDRsmVLtaNBhw4dKpU9f/680jK62D919f0XVnEcJ7a2tmqnzpCJioqS9ltzc3OFJMybMjIyRPfu3TVe8Lp3757UCbO0tBTBwcEq63z06JGws7NTiL04EyDff/+9VMbT01PtfnvixAlpvb799lulZWR1FWUCRBfb6M39xcLCQu12WrNmjVRW09Qu4eHhUtnRo0erLUtE/ycvL6/AnXNdu3YVGzZsKJCAKIzCJkByc3OFp6enMDMzEydPnlRZLjMzU7ro3759e5XlZOdiExMThYux8jIyMqRpN/v27au0TGETIEV1bpMfWf3xxx+rrEt2J6OBgYG4ceOGynLqhISESMsaP3682rK6WNfS9ntTGG+2VR0dHdW2kwIDAxWSMaoGPrzZtvziiy+0iqeo27lZWVkKsxyomwYpNTVVYVAdULwJkIsXL0plHBwcREhIiMr6njx5Iuzt7aXzoTK6SoAUR19Z3d3w9+/fl5LHXl5eGtdJlqypWbOmxrJEVPYxAUJUQr1rAmTbtm1SQ2LQoEEF3k9KSpIuZDs7O6ttwAiRP5pD1uBQNvpbdvdAuXLlNM5xPmDAACk2ZVPpnDp1SuvOjhCKDVFlo0G0SYDIfx92dnZazek/bdo0qd5Vq1YpLSPfqGvSpInK0f0yr169kkb2GBoaiujo6AJl3uw4qeuMp6SkKNy6vmTJErXLl91i7OrqqvT9uXPnSnVpSgIIoXiBVlnnTr6xXb16dZGZmam2Pvmp0/755x+V5XSRAJG/hf706dNqy77ZqXzzjoo3yScFf/nllwLv62r/1NX3X1jFcZxs2LBBq1i++uorrY8XIfKTgrKRwfb29koTC/J3ya1Zs0ZjnW/uP8WVAElPT5emLyhfvrzKC3Pyvv32W7XnAtnyijIBoott9Ob+omk7vXjxQkr+9O/fX23ZjIwMqd4uXbpojJeI/s+rV69E7969FY5P+QuF3t7eYsOGDUp/B1QpbAJEiPx2sDbz97u6umq84CZLcnfr1k1tXbI7RI2MjBTuGJR5mwRIUZzb1q1bJ9X35t3H8jIyMqRR4J999pna5apy5swZaVlff/212rK6WNfS9ntTGG+2Nfbu3avxM/ID7FQNmpFvW9auXVurATO6aOfKDwIbOnSoxvoiIyMVpqYtzgSI/DnuzYGGyhw5ckTMmTNH5dTTukiAFEdfWZvt5OHhIYD8GSI0ad26tQDyr09oeiYqEZV9hiCiMsnc3Fx6nZqaWuB9Pz8/pKenAwBGjBgBQ0P1p4OaNWvCxcUFAHD9+vUC748dOxYAkJOTg61bt6qsJyEhAcePHwcAdOzYEfXr1y9QZv/+/dLrDz74QG1cANCjRw/ptbLYtCH/fXzwwQeoWLGixs988skn0usDBw5oLD958mQYGRmpLVOpUiWMGDECAJCXl4fTp0+rLW9tbY3u3burfL9ixYoK+4KsblXs7OwAAMnJyUrfl22b8uXLY/DgwWrrAgq3bUaPHg1TU1O1ZeT3l2fPnmlcflFKSUmRXmuzf8i0a9cObm5uastoWq/i2D/f9fvPysqCjY2Nxr+9e/eqXYYujhMTExMMGzZMbRkZ2XdlYmKC8ePHayzv6OiIgQMHAgDi4uJw5cqVAmWOHTsGADAzM9PqnDZ48GDUqFFDq3iL0unTp5GYmAgA8Pb2Ru3atTV+Zt68eRg5cqSOI1Oki20kz9TUFKNHj1ZbxsrKCpaWlgA0n4vMzMykfVrZ7zERqVapUiUcP34cu3fvRsuWLRXei42NxZ49e/Dxxx+jRo0a6N+/P27fvq2TOGrWrIlu3bqpLfPo0SM8fvwYQP5vojJ5eXmIj48HANSqVUttfbJzcG5uLiIjIwsZcUFFdW6Li4uTXqtbBzMzM9jb2wMAwsPDCxsugLdvexXVupaG35tevXppbHt99tlnapdRvXp1DBkyRG0ZABg3bhzKlSsHIL9tqsmwYcNgYmKisZwu2rmythcAfPTRRxrrq1GjhlbfQVFLSkqCv78/gPzjydvbW+Nn+vbti0WLFsHY2FjX4UmKoy+izXaS9UVevXqFzMxMtWVlfeCcnByNZYmo7GMChKiMysvLk14bGBgUeF/+YnSbNm20qrNu3boAlDe+R40aJTVw//jjD5V1bN++HdnZ2QD+L2miKjZDQ8MCnV1lbG1tpQbO214Ul/8+PD09tfqMs7MzqlatWuDzqvTp00erejt27Ci9vnPnjtqyHh4eGpNXsgtvdnZ2qFatmlZlc3NzC7yXkpKC4OBgAECTJk1Qvnx5tXUB/7fPAJq3Tbt27TTWZ2FhIb1OS0vTWL4oZWRkSK/lk0qaFMV6Fcf++a5xCiHw4sULjX+aOiC6OE4aNmyISpUqaaxTfh9v1KiRdMGhMLFcu3ZN4b2XL18iIiICAODu7q5VHIaGhujUqZNWyy5Kly9fll5rux2Kmy620Zvc3d216tjLjgdtzkWyc4bs4gERFY63tzeuX7+OsLAwrFu3DsOGDVNo0+Tl5eHIkSNo2bIlfH19izW2x48fY/HixWjXrp3UxlXF0NBQOm+pGmwik5SUJL2W//19W0V1brO2tpZeq1sHIYT0/tvG/7Ztr6JY19Lye5OUlKSx7SWfSFKmd+/eGmMAABsbG7i6ugLIT2q9evVKbXlt+5i6aOfKkqEGBgZo27atVnV27txZq3JF6erVq1K/q6S2vQDd90UMDAy02l8K0xeUP7bY/iKicvoOgIh0Q75BoKxhLT8Sa8GCBViyZInGOu/fvw8gvwGRl5encOHdxsYGffv2xf79+xEcHIxr166hdevWBer4888/AeR3YoYOHap0ObLYjIyM0K9fP41xAZA6nJoa+KqEhYVJr52cnLT+nJOTExISEpCamornz5/DxsZGaTlTU1M4OjpqXadMVFSU2rKyOza0oSn5ocmTJ0+k1//++6/GkZCAYmNT07bRNBISUEzmCSE0li9Kb7vsolgvXe+fRRGnsbExvvvuO411NGnSROV7ujpO6tSpo1Wd8ufFwn7PMvLHCQCFUbvK7nhTRXaBoTjJRi4DhVv/4qSLbfQmbY4F4P+OB23OB7IyygYkEJH26tSpg4kTJ2LixIkAgKCgIOzfvx/r1q1DTEwMcnNzMXv2bFhaWuLjjz8u8uXn5eXh0qVLuHjxIgICAnDr1q1CD75p2bIl/Pz8cOHCBWRmZsLMzExpOdkI9ipVqqB69ervHHtRndvkByedPHlS5V2uly9flhIg7u7uhQm1QCzq4lGmKNa1tPzeTJw4EX379lX7+aZNm6p9X37AkiZOTk64d+8egPz2V8OGDVWW1bb9pYt2rqz9ZW9vr/XdQ2x7qabrvoiVlZVWg4QKc06Qf5/tLyJiAoSojHr69Kn0WtlUKvIjdq5evVqoug0MDJTedTBu3DhpiqQ//vijQAIkMDAQgYGBAID//e9/Khujstiys7Nx5syZQsUmuy27sOQvzleuXFnrz8mPQnn16pXKRp26C8/q6tSUNKhQoYLW9RZm5Jwy8vtMfHx8kW+bwnzv+tzWWosAACAASURBVCB/x0th7j4pivXS9f5Z2HqVMTIywtdff/1OdejqONGmQ/VmPe/yPcuTn/JI2ziA/AtexU1+JG9htkVx0sU2epMuzkWyZLA2d84RkfYaNmyIhg0b4osvvsDUqVOxadMmAMCsWbMwbNiwIjuehRBYt24dlixZIt3VJ8/W1hbTpk3DsWPHNE57NG3aNPj5+SEhIQE+Pj5Yv369wu9DTk4OFi9eLLWz5KcdehdF9V20adMGrVq1wvXr1/Hdd9+hWbNmBUbOBwcHS1NGaTPNkyploe2lTlHEOWbMmHeuo6y0v+TXQ9b+YturaOi6L6KLtpf8OYPtLyJiAoSojJKNzAGUj2aRHwUxderUt27IyOvVqxccHBwQGxuLXbt2YdmyZQqNDfmpsVRNfyUfW5UqVTB58mSt4wLUjy5XRz6hIz99mCY5OTlK63iTsimltKmzKBtrmqbK0kR+n/Hw8NA42uxN7733ntr33zU+XZPvQBWmE14U66Xr/VOb94uDro4TbedI1sX3LP9clcLUWZjvQlvaTM0iI79OJUlpPBYyMzOl7VnSE71EpZWZmRk2bNiABw8e4MqVK0hKSsKJEyfw/vvvv3PdQgh4e3tLz7AyMDBA69at0aZNG3h4eKBp06Zwd3eHoaGhxuQHkD/NzaxZs+Dr64sdO3bg7Nmz6Nq1K2rVqoW4uDhcunQJjx49ApDfhl+wYME7rwNQtOe2Xbt2oV27doiLi0OXLl3QuXNnuLu7w8TEBA8fPsTJkyel35zVq1dL0+AUFttexaOstr9ycnLY9ioiuj4edHEsyM4ZxsbGKu+0I6L/DiZAiMqg3NxcnDt3Tvp/Ly+vAmXkkxgfffTRW9+aLs/IyAijR4+Gr68vkpOTceDAAelBxdnZ2dixYweA/Nus1c0damFhgefPn8PQ0BDff//9O8elDfkRPy9fvtR6uij5+ZnVjRp6/vw5hBBa3X4rX6etra1WcRQH+X2mXr16xbZtSgr56SdiYmKKddm63j9LCn0fJ29+z9pS9z3LX/SRL6eJ7GHkRUnTSFQrKyvpdUJCglYPQS9uuthGuiZ/viiKaWyISDkDAwMMGzZMSkIEBgYWSQJk06ZNUvKjadOm2L59u8qpcrS9MPjjjz/C3d0do0aNQlxcHLZv316gTNeuXbFly5YSmTitU6cO7t69iwEDBuDKlSs4d+6cQt8DyJ+Cd8WKFRg3btxbL6cktb20VdraXkD+b762iqP9VRTt3KpVqyItLa3Utb1KqtLYF5GdM6pVq8YpsIiID0EnKouOHDkizUfs5uYGZ2fnAmXk53oNCQkpsmXLd3Lk7/g4duyY1KgbM2aM2kaILLbExMRiawg2aNBAev3gwQOtPiOEkB6OaGNjo7ZRl5OTI43m00RWJ5A/b21JUadOHWm7FeU+U1rIHzOhoaHFumxd758lhb6Pkzp16sDIyAiA9t/zm2XltxWQf3FAdtzIx6yJ/F18qhS2M6dpv3VxcZFeyx4eWtLoYhvpmvw+XRKTSkRlifzvgfwDtN/Fli1bAOSPUD5w4IDa5wQ8f/5cqzq3bduGRYsWwdDQEB4eHmjVqhU8PDzQtWtXTJo0CefOncOpU6e0fi5WcYuLi8Pnn3+OO3fuwNbWFm3atEHTpk3RqlUrDBo0CMuXL8e///77TskPAKhZs6Z0zi/utldp/L15W4VZP1lbxsjI6K3v7HmTLtq5suckPn/+XOvjkm0v1UpbXyQjI0N6RiDbXkQEMAFCVOZkZGRgzpw50v/PmDFDabk2bdpIr0+dOlVky3dyckK7du0AAGfPnpUeQCd7+LmBgQE+/PBDtXXoKjZ1OnToIL329/fX6jNXrlyR5kOV/7wqR48e1apePz8/6bWyu3f0pUKFCtKdQsHBwRofPF3WyD9A8uHDh8W67OLYP0sKfR4nZmZmaNGiBYD8baxsnndl5LfJm991+fLlpX0nODgY0dHRGuvLzMzE2bNntYpXRvaMCVWePHmicdny3+OhQ4c0Lh/If8jt2rVrdTJthDK62Ea6Jn++aN68ebEum6g0W7p0Kbp3716o6VZiY2Ol19qOUNZE9pDiunXrqn1o9evXr7VqH2zfvh0ffPABgoKCcObMGdy5cwfXrl3DnTt3cPr0aaxduxZeXl4ldsRyTk4OunTpgq1bt6Jjx454+vQprly5gn/++QfXrl3D/v378emnnxbJ3QGmpqbSQ9aLu+1VGn9v3tbJkye1mn4pPDxcuqDfoUMHKUH0rnTRzm3fvr30Wtv+5LFjxzSWKUzbSwiBy5cvqy3TunVraSqxEydO4PXr1xpjePHiBebOnVuou1veVWnrizx69Eh6CDrbXkQEMAFCVKZkZmZi+PDh0uj8li1bqnwwXvfu3aV5dXfs2KHQYVTlq6++wuDBgzV2AGSjvfLy8rB582YkJCTg+PHjAPJv569Zs6bazw8ZMkR6vWzZMo0X1vLy8tC1a1fMnj27UPMDy+vSpYs0imn37t0KD5FX5aeffpJeDxs2TGP5ZcuWaXxYYFRUFPbt2wcAsLa2RseOHTXWW5xk20YIgV9++UVj+djYWDRs2BC///671AgtDrLOyatXr5CVlVUkdVpZWUl3U126dKlI6tRWceyfJYW+jxPZdCna7uO3b9+WHlTr4uICDw+PAmVkz8vJy8vDqlWrNNa5bt06rabbkB/pfP/+fbVl165dq7G+jh07ok6dOgDyO+GaOu0A8Nlnn2Hy5Mno37+/0vdlz0Apyrv5dLGNdEl2vjA0NETr1q2LddlEpZW/vz9mz56N06dPY9asWVp/bs+ePdLrZs2aKS0jfwFTm3OTLAEje6iyKkePHtU43Q0AHDx4EABgbm5eoga6aOvhw4fSqO7u3bvDxMREp8tr27YtACA+Pr7Y7wIpbb83byspKQkrV67UWG758uXS60GDBhXZ8nXRzpV/VuHKlSs19kNu3bql1YX9wrS9Tpw4gSdPnqgtY2ZmhqFDhwLI3w7y66XKjz/+iEWLFsHZ2Vlp31cX/aDS1heR76vJBmcS0X8bEyBEZUBeXh5OnDiBVq1aSaN2bW1tsXv3bpUPFKtYsSImTZoEIP8BYf/73//UjiI5duwYli5digMHDsDX11dtPN7e3jA3NweQf+fH77//Lj0ATt3Dz2U8PT2li0Q3b97E9OnT1Y7+mzdvHs6ePQtfX1+lI3fkH9AXHx+vtA4TExPMnDkTQP734e3tjeTkZJXL/Pnnn3HgwAEAgLOzMwYPHqxxvaKjozF69GhkZmYqfT81NRUjRoyQGrLjx48vspFVRWXixIlS4mzFihXYtWuXyrJpaWn48MMPERwcjE8++USrhnJRkU0ZIYQoMCf1uxgwYACA/Dlli3MkYnHsnyWFvo+T8ePHS9MmrF69Gjt37lRZNiYmBsOHD5fOT1999ZXScqNHj0a5cvmPXfvll19w4sQJlXWeOnUKc+fO1SpW+Yvpy5cvV9m5P3nyJJYtW6axPkNDQ3zzzTcA8o+dkSNHqt3Pp02bhhs3bgCAyuc6yY7Fu3fvaj0FhSa62Ea69PfffwPIv4hXVNOFEJV18lOl/PTTTxgwYIDKNhyQ3xaeO3cuAgICAAD169dH586dlZaVn1ZKdrFanfr16wPIn/bp7t27Sss8f/5c4a5rdaPpZeeBtLQ0LF269K0H7+iLtbW11L/YvHkzHjx4oNNBLrK2FwCt7o4sSqXt9+ZdzJ8/X+3xsH//fqxZswZA/sPphw8fXmTL1kU719PTUzp2r169innz5qmsLyIiAu+//75Wd5s1adJESvpt2bJF5XNDwsPDMXHiRI31Afl9WdmAkW+//VZKkiqzZ88eKRHVrFkzqc8tTxf9oNLWF7lw4QKA/GRQjx49inXZRFRCCSIqkZydnQUAYWhoKNatW1fgb9myZWLu3Lli6NChwt7eXgCQ/urVqyeCgoI0LiMlJUW4urpKn6tWrZr46aefRGBgoIiPjxf//vuvOHXqlPDx8RFGRkYCgLC0tBTx8fEa6/7www8VYgIgLCwsRHp6ulbrf/fuXVGhQgXpsy1bthRbtmwRoaGhIj4+XgQHB4vdu3eLbt26SWU6dOigtK6lS5dKZUaNGiUiIiLE/fv3RUpKikK5169fi3bt2il8Hz///LO4e/euiI+PF+Hh4WL//v2iV69eUhkTExMREBCgcj3c3NwEAFGxYkVpm7q5uYmNGzeKBw8eiGfPnokHDx6I1atXi1q1ailsw1evXimtMyEhQSrn4+Oj8bu0sLAQAESnTp00lm3evLkAIOzs7FSW+e2336TlGxgYiKFDh4qjR4+KiIgIERcXJ+7cuSNWrVolXFxcpHJff/210romT54slXn69KnG+LZu3SqV/+uvv1SW2759u1SuRo0a4tChQyIqKkrcvn1bzJs3T3h7e2tcljJ3796V6vX19VVZ7q+//pLKbd26VWO9T58+lcpPnjxZaRld7J+6+v4LqyQcJ/KOHDkiDAwMpM97e3uLY8eOiYiICPHs2TNx69Yt8f333wsrKyupTP/+/UVeXp7KOufMmSOVNTIyEh9//LE4d+6ciIqKEtHR0eLcuXPSudbKykqMGzdOKn/gwAGldebk5Ch8HwMGDBDXr18XGRkZIi0tTdy8eVNMmTJFlCtXTrRo0UJ88sknUtns7GyVsXp7eyuct2fNmiWuXr0qYmJiRFBQkNi9e7do3769VKZhw4YiIyNDaV0fffSRVM7T01MEBASImJgYcenSJTFy5EixdOlShfLabrei3kZvs7/Uq1dP2ldVCQgIkOpdv369VvUSUb7169crHOfGxsZi0KBBYu3ateLw4cPi4sWL4ujRo2LRokXC3d1dKleuXDlx9uxZlfVGRkYKQ0NDAUCYmZmJlStXirCwMPHw4UOxYcMG0bJlS4U24rJly6S6XVxcxLVr16T38vLyxPHjx0W9evWEqamp6Nmzp8K5Ozw8vEB789GjR8La2lqhjVylShXh6Ogo6tatK9zc3ESLFi1Enz59xKxZsxSWJ0+b85auzm3Tpk1TiN/U1FTY2tqKmjVrCicnJ+Hh4SE8PT3FBx98IDZs2KDyt1obr1+/Fg4ODgKA6N27t8pyulrX0vJ7U1jybVVZ+9/Y2FhMmDBBXLhwQURFRYnIyEjh7+8vRo8erfAdrFmzRmW9hW1byuiinXvy5EmFuLt16yb2798vwsLCpG23cOFCYWFhIQwMDMTnn38ulf30009V1jtq1CipXKNGjcTRo0dFcnKyyMrKEqGhoWLJkiXC2tpaWFhYKJw/Tp06pbLOtWvXSuUMDQ3FyJEjxalTp0RERIQICwsT/v7+Yvjw4VKf3NzcXGV//236QdpsN132levVq6eyjDwfHx+p7oSEBKVlMjIypP7vsGHDtKqXiMo+JkCISijZRcDC/FWqVEnMmjWrQEdLnadPnyp0GtX92dnZiVu3bmlV7/nz5wt8fsKECYX6Ds6dO6fQmVD317ZtW/H8+XOV6yifTJH97d+/v0DZxMRE4enpqdUyLSwsxPHjx9Wug3yjLiYmRtStW1djvbVr1xahoaEq69R3AkQIIX7++WepAa7pb9KkSSI3N1dpPbq6AJ+VlSU8PDzUxhUYGKhxecq89957AoBwd3dXWUYXCRAhin7/LGkJEH0eJ2/atm2bKF++vFbf9YABAzQmd3NycsTw4cM11mVjYyMuXbokNm7cKP2bqgSIEEL4+/sLY2NjtXXa29uLR48eiVmzZkn/pi4BkpWVpdC5V/fn5OQkwsPDVdYVGhoqKlWqpDa2rKwsqXxhtltRbiNdXZCaNGmStJ6qkkREpNqhQ4cKDPTR9Nu3a9cujfXKjk1VfytXrpTKZmRkiFatWim8X7VqVeHm5ia1sQCI1atXi+Dg4ALto23bthVY/t9//631OgEQo0ePFjk5OQp16DMBkp2drXCRU9OfnZ2duHjxolbLV0Y2mKlcuXLi2bNnSsvoMrFQGn5vCuvNturixYu1Wr+vvvpKbb1vmwARoujbuUIIsXLlSinhqeqvXLlyYvXq1SI0NFT6N3UJkJiYGCkpp+rP2NhY7N27V5w4cUL6N3UJECGEWLFihcY2HZA/YOjkyZMq63mbfpC2202XfWVtaJMA2b17t1Tm9u3bWtVLRGUfp8AiKqWMjY1hbW2NZs2a4cMPP8TWrVsRHR2NH3/8ERUrVtS6nurVq+PGjRv46aefpNuE32Rubo4PP/wQN27cUDmf8ps6depUoD5VzyNRxcvLCw8ePMC0adNgY2OjtIy9vb10y7a1tbXSMtWrV8e+ffukW9hllM0jbGlpiXPnzmHDhg1o1KiR0vqqVKmCSZMm4f79++jdu7fW6+Pg4IDbt29j2rRpClM7yC97xowZuHPnjsptUVLMmDEDN27cwJAhQxTm0pbn5uaGzZs3Y+3atSqnYtMVExMT+Pv7Y8CAAQUeImpoaIj//e9/CnP4FsacOXMAAPfu3cOVK1feOdbC0OX+WVKUlONk5MiRCAwMxOjRo1WeU1u2bImdO3fi4MGDClPtKWNkZIQdO3bgt99+Q7169Qq8b25ujnHjxuHevXsKD+7UpHv37jh79ixatmypdJn9+/fH9evX0aBBA63rNDExwdatW3HkyBF06NBB6YN4bWxsMHv2bNy8eRO1a9dWWVf9+vVx5swZpfOgV6xYEWPHjn3r80NRb6OilpKSIk2X8tlnn6k8VxKRav3790doaChWrFiBZs2aqZzy0NHREVOmTMH9+/el5zaos2LFCnz55ZdKzwstWrRQmDPezMwMp0+fxqRJk6TjOCEhAQ8ePEBycjKcnZ2xb98+TJ48GS4uLtiwYYPUJjUwMFB4ptPDhw/RpUsXdOrUCebm5ujZsyd8fHzg4+MDb29v9OnTB506dYKHh4c05SiQP9XOokWLtPvSdCgvLw9Lly6Fvb09Tp48CTc3N3h7e2PChAkYNWoUBg4ciO7du6Nt27YKvw3Pnj3DwIED3/qhzRMnToSlpSVycnLw22+/FdHaaK+k/94UhdmzZ8Pf31968Pub2rZtC39/f/zwww86i0EX7dypU6fi/PnzSh/CbWhoiF69eiEgIACTJ0/WOk4HBwdcu3YNQ4YMUdqGad68OU6dOqXwXEttTJs2Df/88w+8vb2VthlMTU0xfPhwBAYGomfPnirr0WU/qDT0RX799VcAQO/evdGkSZNiXz4RlUwGQhTjU2mJqMSLjIzEw4cPkZycDBMTE1SrVg1ubm56v3CTl5eHkJAQhIeHIz09Hebm5qhbty6cnJy0vniWlZWF69evIz4+HlWrVkWrVq00rld0dDSCg4ORlJQEU1NT1KxZE25ubtJ8/po0atQIDx48QL169fD48WPp37OzsxEYGIjY2Fjk5OSgZs2aaNy4MYyNjbWqtyTJyMjAgwcPEB0djZycHFhYWMDFxQXVq1fXd2gA8jvdgYGBSElJQZUqVdC0aVNYWVm9U53du3fH6dOn0bdvXxw5cqSIIi28d90/S4qSfpxkZWXh/v37iIqKQk5ODqysrODm5gZbW9u3rjMkJAShoaEQQsDR0RGurq5K53EujOjoaDx48ACpqamoWrUqnJ2d3ylGmefPn+Pu3bt4+fIlTE1NUatWLTRs2LDQz14JDQ3Fw4cP8fr1a9jb26Np06ZFdpFIF9voXS1ZsgSzZs2Cra0tHj9+rHAxk4jeTkpKCoKCgvDixQtkZWXBxsYG9vb2qF+/vtJkrSZpaWm4desWnj9/jvLly8PV1VVtUjctLQ3//PMPEhISULFiRdSsWRMuLi5Ky8bHx6N8+fLSsR8XFwc3NzckJiaiXbt2OHLkiNr2SG5uLjZv3ozx48dDCIHq1asX6/PUlPnqq6+wePFiGBgYYNu2bRgxYoTa8pGRkRg+fLj0bJZNmzbBx8fnrZb9ww8/4Ouvv4atrS2ePHmityRDSfy9eRt79+6VHr69detWjBo1SnovOjoajx49QmJiIipVqgR3d3c4ODgUe4xF3c6NjY3F3bt3kZaWBjs7Ozg5Ob3zs7mSk5Nx584dvHjxApUrV0adOnWUDnQprPT0dAQGBiIuLg4GBgawt7dH48aNUaFChULVo4t+kLyS1he5fv06WrduDQMDA1y+fBlt27bVSxxEVPIwAUJEpEOqLuxS6RYWFobGjRsjLS0NV69eVXgYNRUejxMqa169eoUGDRogPj4e+/btK/aHfxJRybN48WLpwdjnz59Hp06dtPpchw4dcPnyZQD5CZjCXgAtKnl5eahYsSIyMjLg5eWl9cOVT58+je7duwMAZs6ciSVLlrzV8rOzs9GyZUsEBgbC19cXX3755VvVQ/nUJUCISqtevXrBz88P06ZNw4oVK/QdDhGVIJwCi4iIqJDq1q2LpUuXAsif2oaISN6iRYsQHx+PkSNHMvlBRADyB0/IODo6av052Z0OxsbGMDU1LfK4tBUbG4uMjAwAbxc/gEJN0/smY2NjbN68GcbGxvjhhx8QHx//1nURUdlz8uRJ+Pn5oUGDBli8eLG+wyGiEqZ0zZFBRERUQkycOBFA/mjM9PR0vY3IJKKSx9nZGUuXLn3rqV6IqOyRn3Pf399fq2czRURE4NKlSwAAd3f3Qk89WJSsra1hbGyM7OxsXLx4EZmZmVpNkbt9+3bpddOmTd8pBg8PD+zbtw8PHz7Ey5cvS920U0SkO+XKlcPSpUvRo0cP9suIqAAmQIiIiN6CgYEBJk2apO8wiKgEGjt2rL5DIKISZujQoVi0aBHy8vLw5ZdfwtjYGGPHjlX5XKvjx49j8uTJyMzMBKD/O07NzMwwYMAA7N27F0+fPkW/fv2wdu1alYmc+Ph4fPfdd1i3bh0AwMnJCe+99947x9GvXz/069fvneshorKlW7du6Natm77DIKISigkQIiIiIiIiIh1q3Lgx5s+fj4ULFyI9PR0TJkzAzJkz0bJlS9SoUQPly5dHWloaEhIScOPGDTx//lz67JgxY0rEMxqWLVuGq1evIioqCqdPn4aTkxMaNmyIhg0bSg9WTk5OxqNHj3D37l3k5uYCAKysrLBz504YGnIGbiIiIip+TIAQERERERER6diCBQtQu3ZtfPXVV4iJicGrV69w5swZleWrV6+OBQsWlJjp9KpXr46rV69i+vTp2LdvH4QQCAoKQlBQkNLyhoaGGDx4MH766SfUqlWrmKMlIiIiymcghBD6DoKIqKw6dOgQXr58icqVK/NBuEQq8DghIqL/ktzcXFy8eBFXrlxBaGgoXr58ifT0dJQrVw42NjaoX78+OnToAE9PT70+90OdmJgY+Pn54f79+4iKikJqaipyc3Nhbm6O6tWrw8PDA7169SrUA9Op+ERERODcuXMAAE9PT9StW1fPEREREekOEyBERERERERERERERFTmcBJOIiIiIiIiIiIiIiIqc5gAISIiIiIiIiIiIiKiMocJECIiIiIiIiIiIiIiKnOYACEiIiIiIiIiIiIiojKHCRAiIiIiIiIiIiIiIipzmAAhIiIiIiIiIiIiIqIyhwkQIiIiIiIiIiIiIiIqc5gAISIiIiIiIiIiIiKiMocJECIiIiIiIiIiIiIiKnOYACEiIiIiIiIiIiIiojKHCRAiIiIiIiIiIiIiIipzmAAhIiIiIiIiIiIiIqIyhwkQIiIiIiIiIiIiIiIqc5gAISIiIiIiIiIiIiKiMocJECIiIiIiIiIiIiIiKnPK6TsAIqKSRgih8EdEJGNgYKDwR0REVFzYRiUiVdhGJSJSjQkQIvpPSk5Oxvnz53Hz5k2Eh4fj6dOniIyMxJMnT/QdGhGVIo6OjqhZsyZq1qyJ2rVrw8PDA126dIG9vb2+QyMiolIoLi4Of//9N+7cuYPw8HBERkYiMjISUVFR+g6NiEoRWftU1kZt3rw5vLy8YGVlpe/QiIiKnYHg0BEi+g/IyMiAv78//P398ffff+P+/fsqy1paWqJSpUrSX/ny5ZGXl1eM0RJRSZSXl4ekpCSkpqYiJSUFz58/V1m2Tp066NixI7y8vDBw4EBYWloWY6RERFRavHr1CocPH8b58+dx9uxZhIeHqyxrbW0ttU+rVKkCQ0POaE1E+V68eIGUlBSkpKQgMTFRZTlXV1d4enqiW7du6N27N8zNzYsxSiIi/WAChIjKrOTkZBw8eBD79+/HqVOnkJGRIb1nZWWF1q1bw8XFBS4uLmjYsCGcnJxga2urx4iJqLR59eoVgoODERISIv3dvn0bERERCuVkiZAhQ4agevXqeoqWiIhKgri4OOzduxeHDh3C6dOnFd6rUaMGmjVrBmdnZ7i4uMDZ2RmNGzdGxYoV9RQtEZVGiYmJCA4OVminXrt2rcAAnj59+sDb2xvvvfcebGxs9BQtEZFuMQFCRGWKEALnz5/Hb7/9hv3790tJj+bNm6NDhw7o2LEjmjVrhjp16ug5UiIqy168eIErV64gICAAV65cwfnz5wEARkZG6NmzJ8aNG4d+/frBxMREv4ESEVGxyMnJwfHjx/H777/j2LFjyMnJAQB4enqiTZs2aN++Pdq2bYuqVavqOVIiKssiIiJw69YtXLp0CQEBAbh27RoAwMTEBAMHDoSPjw+6d+/O54gQUZnCBAgRlQnp6en47bffsHz5coSFhQEAmjRpAm9vb4wcORI1a9bUc4RE9F+WmJiIPXv2YPfu3VIyxMbGBhMnTsSUKVNgZ2en3wCJiEgnXr58iTVr1mDNmjWIi4sDAHTo0AHe3t54//33efcxEelVVFQUdu3ahT179uDGjRsA8p8fMnXqVEyaNIlTZBFRmcAECBGVai9fvsSKFSuwatUqaa7TCRMmYMaMGXByctJzdEREBcXFxWHt2rVYsWIFXr16BTMzM4wdOxYzZ87k3WlERGVETEwMli5dio0bNyItLQ0VKlTAlClTMHXqVE6FSEQlUnh4OFasWIEVNxffEwAAIABJREFUK1YAyH/u0JQpUzBt2jQ+PJ2ISjUmQIioVBJCYP369ZgzZw6Sk5MBAJ988gm+/vprODg46Dk6IiLNUlJSsHz5cixbtgwvX76EsbExZs6cifnz58PU1FTf4RER0VvIzs7Gjz/+iB9++AFZWVmoXLkypk6dii+++AJVqlTRd3hERBo9e/YMvr6+WL9+PTIyMmBubo7vv/8e06ZNg6Ghob7DIyIqNCZAiKjUCQ0NhY+PDy5evAgAGDhwIFatWsXRdERUKiUnJ+Prr7/G6tWrAQANGjTAb7/9ho4dO+o5MiIiKoyLFy9i8uTJuHfvHgBg/Pjx8PX15chpIiqVYmNj8dlnn2H37t0AgBYtWuD333+Hu7u7niMjIiocJkCIqFTx9fXF7NmzAeRfJNy4cSM6deqk56iIiN7dgwcP4OPjIz2McsyYMVi9ejXnXiYiKuHS0tLw5ZdfYu3atQCA5s2b47fffoOHh4eeIyMieneXL1/G+PHjERISAgBYsGABFi5cqN+giIgKgQkQIioVHj58iA8//BDXrl1DxYoVMW/ePHz55Zf6DouIqMjt2LEDM2fORExMDGrXro0//vgDXl5e+g6LiIiUuHbtGoYNG4YnT57A1tYWixcvxrhx4/QdFhFRkVu5ciXmz5+P5ORkeHh4YPPmzUz0ElGpwAQIEZV4q1evxtSpUwEA7u7uOHr0KGrWrKnnqIiIdCc5ORnDhw/HiRMnAADTpk2THkhJREQlw1dffYXFixcDALp164bdu3dzuisiKtOio6MxePBgXL9+HQCwaNEizJkzR89RERGpx6cXEVGJlZubi6lTp0rJj3HjxuHu3btMfhBRmWdhYYHjx49LF9ZWrlyJPn36IDk5Wc+RERFReno6evXqJZ2j582bh1OnTjH5QURlXrVq1XDt2jVMmTIFQH4i2MfHB1lZWXqOjIhINd4BQkQlUnp6OgYPHgw/Pz8AwPbt2zFixAg9R0VEVPwCAgIwcOBAJCQkwM3NDSdPnkT16tX1HRYR0X/S8+fP0atXL9y6dQtWVlbYvXs3unXrpu+wiIiK3d69ezFmzBikpaWhU6dOOHToECwsLPQdFhFRAUyAEFGJk5qaip49eyIgIADm5ubw9/dHu3bt9B0WEZHePHnyBJ06dUJkZCQcHR1x6dIl1KlTR99hERH9p8TFxaF9+/YICwuDra0tLl68CCcnJ32HRUSkN7du3ULnzp2RkpKCZs2a8W44IiqROAUWEZUoqamp6N27NwICAlC5cmWcO3eOyQ8i+s+rXbs2AgICULduXcTExKBr164IDw/Xd1hERP8ZcXFx6Ny5M8LCwlCtWjVcuXKFyQ8i+s9r3rw5/v77b1haWuKff/5Bjx49kJqaqu+wiIgU8A4QIioxMjMz0b17d1y6dAmWlpY4e/YsmjRpou+wiIhKjGfPnqFdu3YICwtDnTp1cPnyZTg4OOg7LCKiMi0xMRHt27dHSEgIatWqhQsXLqBWrVr6DouIqMR48OABvLy88Pz5c3h6euLYsWOoWLGivsMiIgLABAgRlSB9+/bFsWPHUKFCBVy+fJnJDyIiJeSTIK6urrh48SKsra31HRYRUZmUkpKCzp0749atW7C1tcXNmzdRo0YNfYdFRFTihISEoG3btkhKSoKnpyf8/PxgZmam77CIiDgFFhGVDB988AGOHTsGADhy5AiTH0REKtjZ2cHPzw82NjYIDg5Gnz59kJmZqe+wiIjKnJycHAwcOBC3bt1CpUqVcObMGSY/iIhUcHFxwYkTJwAAf//9N95//33k5eXpOSoiIiZAiKgEWLhwIbZt2wYA2LNnD7p06aLniIiISrb69evDz88P5cuXx/Xr19nBJCIqYnl5eRg7dizOnj0LADh+/DgaNWqk56iIiEq2Nm3aYP/+/QCAw4cPY8aMGXqOiIiICRAi0rPdu3fjm2++AQAsXrwYQ4cO1XNERESlQ7NmzbB3714A+R3MuXPn6jkiIqKyw9fXV2GATocOHfQcERFR6TBo0CD8+uuvAIAVK1ZIr4mI9IXPACEivYmNjYWbmxtevnwJHx8fbNq0Sd8hERGVOhs2bMCECRNgaGiIixcvol27dvoOiYioVLt37x5atGiB169f4+eff+YIZiKitzBr1iwsWbIE5ubmCAwMRL169fQdEhH9RzEBQkR607NnT/j7+6N58+a4efOmvsMhIiq1fHx88Pvvv6NevXoIDAyEubm5vkMiIiqVXr9+jRYtWuDevXsYMGAADh48qO+QiIhKrQ4dOuDy5cto164dLl68CENDTkRDRMWPZx4i0os1a9bA398fZmZm2L17t77DISIq1VauXIlatWrh33//xRdffKHvcIiISq05c+bg3r17qFq1Kv744w99h0NEVKpt374d5ubmCAgIwM8//6zvcIjoP4p3gBBRsYuKioKrqytSU1OxevVqTJ48Wd8hERGVepcvX5bmqD979iw6d+6s54iIiEqXW7duoXXr1sjNzcXJkyfRs2dPfYdERFTq/fHHHxg3bhxMTU0RGBgIZ2dnfYdERP8xvAOEiIrdlClTkJqaCi8vLyY/iIiKSPv27TF9+nQAwKRJk5CVlaXniIiISo/c3FxMmDBB+i+TH0RERWPs2LHo3bs3srKy8Omnn+o7HCL6D+IdIERUrA4ePIhBgwahcuXKCAkJgYODg75DIiIqMzIzM9GoUSP8+++/WLx4MWbPnq3vkIiISoXly5fjs88+Q82aNREUFMRnKRERFaH4+Hi4uroiMTERBw4cwMCBA/UdEhH9hzABQkTFqkGDBnj8+DG2bduGkSNH6jscIqIy58aNG2jVqhXMzc0RGhrKRDMRkQZJSUmoU6cOkpKSpIf1EhFR0ZINhqxWrRpCQ0NRvnx5fYdERP8RnAKLiIrNn3/+icePH6NZs2ZMfhAR6UjLli3h4+ODtLQ0+Pr66jscIqISb/ny5UhKSsKoUaOY/CAi0pGBAwfCy8sL0dHR2Lx5s77DIaL/EN4BQkTFIicnB66urnj8+DEO/z/27j3IyvK+A/jvwLIsLMiiEBcRJRqMUZBV05oEkYVYjUYUY6JOMq3kaoxJs0l16iWTrrS1tXV0R5vYJpN0NYmWmLarxlxMjGscrdYkrhGNt0YEuSnKgqFchD39I92NKIjAOfuc85zPZ2Zn4Jz3vO+X28vz7vd9nvfWW2Pu3LmpIwFk68knn4y3v/3tMWLEiFi+fHk0NTWljgRQkV49++PJJ5+MKVOmpI4EkK2f/OQnccIJJ8SUKVPisccei7q6utSRgBpgBggwKL73ve/F008/HVOmTFF+AJTZIYccEmeddVZs2LAhOjo6UscBqFj9sz9OO+005QdAmf3Jn/xJvPOd74ynnnoqvv3tb6eOA9QIM0CAQfGud70rHnjggfjOd74TH/7wh1PHAcjeokWLYtq0adHY2BirVq3yQF+A13jllVdiv/32i9WrV8cvf/nLOOqoo1JHAsjef/7nf8YHPvCBmD59ejz00ENRKBRSRwIyZwYIUHY9PT3xwAMPxIEHHqj8ABgkU6dOjVNOOSXWr18fN998c+o4ABXn9ttvj9WrV8fs2bOVHwCD5PTTT49DDjkkHn744bj77rtTxwFqgAIEKLvOzs6IiPj0pz+dNghAjTnvvPMi4g/nYQD+wBgVII3zzz8/IoxRgcFhCSygrF69tMCSJUti0qRJqSMB1JR99tkn1qxZE//zP/8Tb33rW1PHAagIzz77bEyZMiXq6urixRdfjBEjRqSOBFAzVq5cGRMmTLBUKzAozAAByurOO++M1atXxzHHHKP8AEjgjDPOiGKxGAsXLkwdBaBi/PCHP4xXXnklTj/9dOUHwCBrbm6OOXPmxPr16+O2225LHQfInAIEKKuurq6IiDj77LMTJwGoTf3n3/7zMQDGqACpGaMCg8USWEDZFIvFmDhxYqxYsSJWrlwZ++67b+pIADVpwoQJsWrVqnjuuediv/32Sx0HIKl169bF+PHjY/jw4bFu3brUcQBq0ksvvRT77LNPjBkzJp5//vmor69PHQnIlBkgQNk88MADsWLFipg+fbryAyChE088MYrFYtx6662powAk94Mf/CA2b94cxx9/fOooADVr7733jpkzZ8batWvjvvvuSx0HyJgCBCibH/3oRxER8e53vztxEoDa9p73vCci/nBeBqhl/efC/nMjAGn0f6/AGBUoJwUIUDbd3d0R4eISILV3vetdERFx9913h9VPgVrXP0Z1kw5AWgoQYDB4BghQNs3NzbFq1ap46qmn4m1ve1vqOAA1beTIkbFhw4ZYsWJFNDc3p44DkMTKlStjwoQJEREKYYDEVq9eHePHj4/GxsZYt25dDBniPm2g9JxZgLJYtWpVrFq1KvbZZx/lB0AF6J+N19PTkzgJQDqPP/54REQcc8wxiZMAMG7cuJg8eXKsX78+nnzyydRxgEwpQICyePjhhyMiYsaMGYmTABDxhyUGFCBALesvQCzRClAZjFGBclOAAGXx2GOPRUTEIYcckjgJABF/OB8/+uijiZMApNN/DjRGBagMxqhAuSlAgLJYunRpRETss88+iZMAEPGH83H/+RmgFhmjAlQWY1Sg3BQgQFk8++yzEeHiEqBS9J+PFy9enDYIQEL950BjVIDKYIwKlJsCBCgLBQhAZRk3blxERKxcuTJxEoB0FCAAlcUYFSg3BQhQFr29vRHxh8EMAGn1f7Nv06ZNsXXr1sRpANJYu3ZtRBijAlSK/jFq//cQAEpNAQKUxcaNGyPC3XUAlaKpqWngx8ViMWESgPSMUQEqgwIEKDcFCFAW/XfXubgEqBzjx4+PiIi+vr7ESQDSamhoSB0BgNh2ljJAOShAgLLoH7w0NzcnTgJAv/4LTDNAgFrUf+7bf//9EycBoN/o0aNTRwAypwABymLo0KGpIwDwGsOHD48IM0CA2lZXV5c6AgCvMmrUqIhwkw5QHgoQAAAAAAAgOwoQAAAAAAAgOwoQAAAAAAAgOwoQAAAAAAAgOwoQAAAAAAAgOwoQAAAAAAAgO3WpAwDsTKFQSB0BKkKxWHzT21544YVx5ZVXljENg+25556LiRMnpo4BwP8zRoXf25Ux6sEHHxy//e1vy5iGwbZ+/foYOXJk6hgAO6QAASreuHHj4uabb04dA5J56aWX4owzztjlzz388MNxxBFHlCERg+2SSy5JHQGA15g+fXp0dHSkjgHJPPLII/Hnf/7nu/y53/3ud9HY2FiGRAy2s846K3UEgJ1SgAAVr6GhIVpbW1PHgGRWrlyZOgIA8BpNTU3GqNS0YcOGpY4AADvlGSAAAAAAAEB2FCAAAAAAAEB2FCAAAAAAAEB2FCAAAAAAAEB2FCAAAAAAAEB2FCAAAAAAAEB2FCAAAAAAAEB2FCAAAAAAAEB2FCAAAAAAAEB2FCAAAAAAAEB2FCAAAAAAAEB2FCAAAAAAAEB26lIHAAAqQ7FYjK9+9aupY9SE888/P3UEAICqsGXLlviXf/mX1DGy19TUFB/5yEdSxwAoOQUIABAREX19fXHjjTfGvffemzpK1vbaa6/4zGc+E4VCIXUUAICKt2HDhnjggQfihhtuSB0lWy+88EIcd9xxChAgS5bAAgAAAAAAsqMAAQAAAAAAsqMAAQAAAAAAsqMAAQDYTa+88ko888wzb7jNxo0bY+vWrYOUCACAWrd+/fp47rnn3nCb//3f/41isThIiQDSUYAAAOymYcOGxYYNG2LatGnbff+0006Lu+++O4YOHTrIyQAAqFWNjY3xq1/9Kk4//fTtvj99+vRYsmRJFAqFQU4GMPgUIAAAe+Cwww6LG2+8MVpaWrZ5/fTTT49zzz03TjzxxETJAACoVaeeemr82Z/9WXzwgx/c5vUjjzwybrrppjj00EMTJQMYXAoQAIA9NG3atOjs7Iyjjz46IiI++MEPxsc+9rE4+eSTEycDAKBWnX766XH22WfHWWedFRERRx99dHzrW9+Kww47LHEygMFTlzoAAEAOWlpaYuHChXHUUUfFP/zDP8Txxx+fOhIAADXugx/8YLzlLW+JI444Ir73ve/FIYcckjoSwKBSgAAAlMjb3va2+NWvfpU6BgAADDjuuOPi17/+deoYAElYAgsAAAAAAMiOAgQAAAAAAMiOJbAAgAH33XdfFAqF1DEAAGDAt771rfjWt76VOkbWDj300NQRAMpCAQIARETE0KFDo1gspo4BAAADRo8ebYwKwG6zBBYAAAAAAJAdBQgAAAAAAJAdBQgAAAAAAJAdBQjALrryyiujUCj4yvgLAKDanHfeecnHUL7K93XAAQek/isGAFXJQ9CBileJD7ybOnVqXHvttaljUGJPPPFEfPrTn04dAwBglxWLxTjhhBPi4osvTh2FEvvZz34W119/feoYr1OJ12kA8FoKEKDiVeId+WPGjInW1tbUMSixUaNGpY4AALBbCoVCNDc3G6NmaNWqVRVZNlTidRoAvJYlsAAAAAAAgOwoQAAAAAAAgOwoQAAAAAAAgOwoQAAAAAAAgOwoQAAAAAAAgOwoQAAAAAAAgOwoQAAAAAAAgOwoQAAAAAAAgOwoQAAAAAAAgOwoQAAAAAAAgOwoQAAAAAAAgOwoQAAAAAAAgOzUpQ4AAFSuBQsWRF9fX+oYVa2hoSEuuuii1DEAALLQ29sbHR0dqWNUvQkTJsS5556bOgZA2SlAAIAdWrBgQWzdujV1jKo2ZswYBQgAQIn09vbGZZddljpG1TvqqKMUIEBNsAQWAAAAAACQHQUIAAAAAACQHQUIAAAAAACQHQUIAAAAAACQHQUIAAAAAACQHQUIAAAAAACQHQUIAAAAAACQHQUIAAAAAACQnbrUAQCAyjVr1qzo6+tLHaOqNTY2po4AAJCNhoaGaG1tTR2j6k2ZMiV1BIBBoQABAHbozjvvTB0BAAAGNDc3x1133ZU6BgBVwhJYAAAAAABAdhQgAAAAAABAdhQgAAAAAABAdhQgAAAAAABAdhQgAAAAAABAdhQgAAAAAABAdhQgAAAAAABAdhQgAAAAAABAdhQgAAAAAABAdhQgAAAAAABAdhQgAAAAAABAdupSBwAAKtfSpUujWCymjlHVhgwZEvvvv3/qGAAAWdi6dWssW7YsdYyqV19fH83NzaljAJSdAgQA2KElS5akjlD1hg4dqgABACiRLVu2xNKlS1PHqHqNjY0KEKAmWAILAAAAAADIjgIEAAAAAADIjgIEAAAAAADIjgIEAAAAAADIjgIEAAAAAADIjgIEAAAAAADIjgIEAAAAAADITl3qAAA7UywWU0fI0m233RaLFi2KTZs2lWR/EyZMiJkzZ8Zhhx1Wkv1RGcaMGZM6QtUbMsT9JgDwZrz88svxwx/+MJ5++unYvHnzHu+vUCjEpEmTYs6cOTF58uQ9D5hIsViMQqGQOsbrpLpOGzJkiDFqCTQ0NKSOADAoFCAANWblypUxd+7c+MUvfhFHHXVUjB49uiT7ffLJJ2PFihVxzTXXxOc+97mS7JP0pk6dmjoCAFADnnjiiTjllFPi6aefjne9610xfPjwPd5nsViMRYsWxebNm+M73/lOnHrqqSVISmrDhg0zRgXgTVOAANSYM888M8aNGxfPP/98jB8/vqT7vu222+LUU0+NKVOmxPve976S7hsAgDytX78+TjnllDj22GOjp6cnGhsbS7r/b3zjG3HaaafFokWL4vDDDy/pvgeLWfEAsHusyQBQQ/77v/877rnnnrj++ut3u/x4/vnn48ILL4xTTjkl/vIv/zLWrFkz8N7cuXPjwgsvjCuvvLJUkQEAyNz3v//9WLt2bfzrv/7rbpcfv/3tb+Nzn/tcvP/974/LLrssNm7cOPDexz/+8fjABz4Q11xzTakiD7pKXAILAKqBAgSghvzmN7+JQw45JN7ylrfs1ueXLVsW06ZNix/96Efx1re+Nb7//e/HkUceuU0JMmfOnHjooYdKFRkAgMw99thj8Ud/9Ee7/fmHHnoojjjiiPjlL38ZBx10UHzzm9+M4447bpttZs+eHT09PXsaNRkFCADsHgUIQA3ZvHlzDBs2bLc/v2DBgpg+fXo88sgjce2118ajjz4azc3N8fd///cD2wwfPnybO+4AAOCNbNq0Kerqdn+F7gsuuCDOOeecuO++++Laa6+NJ554IpYvXx5f+9rXBrZpaGio6jGqJbAAYPcoQABqyJ5eOD355JPR2tq6zWsnnXTSNjM+isWiCzQAAHbJnowfn3rqqZg1a9bAzxsaGuK9731v/OpXvyrZMVKr5uwAkJICBKCG7OnU+cMPPzx+/OMfD/x83bp18e///u9x2GGHbXMMU/QBANgVezJ+nDp1avzkJz8Z+PmyZcvipz/9aUydOrVkx0itmrMDQEq7P8cUgKqzpxdOX/rSl6KlpSWmTZsWc+bMiVtuuSWKxWJ86Utf2uYYLtAAANgVezJ+vOKKK+I973lPLFq0KN75znfGTTfdFAceeGB89rOfLdkxUqvm7ACQkgIEoIbs6dT55ubmWLRoUVxxxRXx2GOPxVlnnRUXX3xxNDU1bXMMU/TzsXTpUn+ee2jIkCGx//77p44BABVtT8Yb06ZNi56enujo6Ijf/va30dbWFhdccEFJj5FaNWcvta1bt8ayZctSx6h69fX10dzcnDoGQNkpQICK526nyjJu3Lj4x3/8x9QxGCRLlixJHaHqDR06VAECAGV28MEHx7XXXvuG21RriVAoFCoye6rrtC1btsTSpUuTHDsnjY2NChCgJngGCFDxKnGwX6129nt5zz33xFVXXbXHx/BnBgDArnij8eOtt94a3/zmNwcxTWWp1LF1peYCgFczAwSoeGaAlM4b/V7+5Cc/iRNOOCEiIn7+859HV1fXbh/DnxkAALtiR+PHG264Ic4555yIiHjkkUfi6quvHsxYFaFSx9aVmgsAXs0MEADi9ttvjxNOOCE+9KEPxe233x633HJLnHzyyaljAQBQw77+9a/HOeecE21tbfG1r30tOjo64jOf+UzqWABAFVGAABXP1Ory+t73vhennHJKfOITn4jvfve7cfLJJ8fdd98d99xzT5x44olv+NkXX3wxzj777Fi1atUgpQUAoBZcddVV8alPfSr+9m//Nq6++ur45Cc/GQsXLozrrrsuPvGJT7zhZ5966qk4++yz43e/+902r1frjIVisViR2V2nAVANFCAANeymm26KD33oQ9HW1hZf//rXB14/7rjj4uc//3n88pe/jJkzZ8b69etf99kVK1bEjBkz4o477ogZM2bEihUrBjM6AACZ+ru/+7v4i7/4i7j22mvjkksuGXj9zDPPjB//+Mdx4403xp/+6Z9u97O/+c1v4thjj4077rgjjj/++Hj55ZcHKzYAUIEUIEDFq8S7nXJwww03xIc//OH48pe/vN21lI888si4//7749lnn43jjz8+1q1bN/DekiVLYsaMGXHQQQfFkiVLYurUqfHud787li1bNpi/BAAAMvPlL385Lrnkkvj2t78dn/3sZ1/3/gknnBDd3d1xyy23xLx587Z579e//nW85z3viTPOOCOeeeaZKBQK8d73vndgJki1zlgoFAoVmd11GgDVQAECUIP611O++uqr47LLLtvhdm9729vigQceiNWrV8fMmTOjt7c3nnrqqXj3u98d73znO+MHP/hBjBo1Krq6uuLYY4+NGTNmKEEAANgtF154Yfz1X/91fPe7342PfOQjO9zuj//4j+Pee++N//qv/xp4bt39998fM2fOjPnz58dXv/rVGDNmTPzsZz+LhoaGmDNnzjY38wAAtaMudQCAnanEu52q2aOPPhqf+tSn4utf//pO10+OiJgwYULcf//9ccIJJ8TMmTNj1apVcdppp22zZFZExLe//e0477zz4pOf/GQMGaJfz8WYMWNSR6h6/j0AwM7dcccdceutt8btt98+UGq8kWnTpsW9994bs2fPjhkzZkRPT09ceuml2yyZNWLEiPj5z38ec+fOjUsvvTQOOeSQcv4SysYzQLY1ZMgQY9QSaGhoSB0BYFAoQABqSP+F03e+85348Ic//KY/t88++0R3d3ecfPLJMXv27Ljmmmu2u911110Xw4YNi29+85slyUt6U6dOTR0BAKgBQ4cOje7u7pg1a9ab/kz/bOXZs2fHFVdcsd0lsyIibrvttpg3b14sXry4RGkHXyUWIKkMGzbMGBWAN00BAlQ8g/3SKRaLcfjhh+9S+dFv9OjRcc899+x0u1NPPTW+8Y1v7E48AABq1Hvf+95dKj/67bfffvHEE0/sdLuTTjopvvKVr+xOtOQKhUL09fWljvE6rtMAqAbWZAAqniWwSqe+vj42bdpU1mNs3Lgx6uvry3oMAADyMXz48Ni4cWNZj7Fx48YYPnx4WY9RLpV6PVSpuQDg1RQgADVk+vTp8fTTT8fy5cvLdoy77rorjjzyyLLtHwCAvBxxxBHx4IMPxoYNG8p2DGNUAKhNChCAGtLS0hKzZ8+Oj3/842XZ/3333RdXXXVVfPrTny7L/gEAyM/73//+GD9+fLS1tZVl/zfffHPccsstce6555Zl/wBA5fIMEIAac+ONN8bcuXPjsMMOi5NOOilGjx5dkv0+/vjjsXDhwjj33HPjzDPPLMk+AQDIX0NDQ3R1dcXJJ58cxxxzTMyZM6cky1X19fXFww8/HLfeemtcfvnlcfTRR5cgbRqetwEAu0cBAlBjmpub48EHH4zrr78+/uM//iPWrl1bkv0effTR0dPTE9OnTy/J/gAAqB3veMc7oqenJzo7O+OOO+6I9evX7/E+hwwZEjNnzoyrrroqDj744BKkBACqjQIEqHjudiqPc845J84555zUMQAAICIixowZE5///Ofj85//fOooFaVQKFTkA8ddpwFQDTwDBAAAAAAAyI5blJ2BAAAgAElEQVQCBAAAAAAAyI4CBAAAAAAAyI4CBAAAAAAAyI4CBAAAAAAAyI4CBAAAAAAAyI4CBAAAAAAAyI4CBAAAAAAAyI4CBAAAAAAAyE5d6gAAQHl8/OMfj8bGxtQxKIFnnnkmzj///NQxAAD22Pve974YOnRo6hiUwGOPPZY6AsBOKUAAIENXXHFF9PX1pY5BCdXVGbYBANXtiSeeSB2BEjNGBSqdsxQAZGjIkCExZIiVLgEAqBy+WQ7AYPOdEQAAAAAAIDsKEAAAAAAAIDsKEAAAAAAAIDsKEAAAAAAAIDsKEAAAAAAAIDsKEAAAAAAAIDsKEAAAAAAAIDsKEAAAAAAAIDsKEAAAAAAAIDsKEAAAAAAAIDt1qQMAAKW3du3aWLNmTeoYlNCkSZNi6NChqWMAAOy25557LrZs2ZI6BiV04IEHRqFQSB0DYIcUIACQocsvvzzWrl0bzc3NqaNQAj/96U9j4cKFMXHixNRRAAB22+zZs+NDH/pQ1NfXp45CCdx8883x4IMPxsiRI1NHAdghBQgAZOq8886L6dOnp45BCWzatCl1BACAkrjkkkti1KhRqWNQAo899ljqCAA75RkgAAAAAABAdhQgAAAAAABAdhQgAAAAAABAdhQgAAAAAABAdhQgAAAAAABAdhQgAAAAAABAdhQgAAAAAABAdhQgAAAAAABAdhQgAAAAAABAdhQgAAAAAABAdhQgAAAAAABAdupSBwAAKteCBQuir68vdYyq1tDQEBdddFHqGAAAWejt7Y2Ojo7UMarehAkT4txzz00dA6DsFCAAwA4tWLAgtm7dmjpGVRszZowCBACgRHp7e+Oyyy5LHaPqHXXUUQoQoCZYAgsAAAAAAMiOAgQAAAAAAMiOAgQAAAAAAMiOAgQAAAAAAMiOAgQAAAAAAMiOAgQAAAAAAMiOAgQAAAAAAMhOXeoAANXo3nvvjUKhkDoGAAAMuOGGG+KGG25IHYMymDRpUuoIAFCVFCAAu+iCCy6ICy64IHUMGBSzZs2Kvr6+1DGqWmNjY+oIANSA6667Lq677rrUMaDsGhoaorW1NXWMqjdlypTUEQAGhQIEANihO++8M3UEAAAY0NzcHHfddVfqGABUCc8AAQAAAAAAsqMAAQAAAAAAsqMAAQAAAAAAsqMAAQAAAAAAsqMAAQAAAAAAsqMAAQAAAAAAsqMAAQAAAAAAsqMAAQAAAAAAsqMAAQAAAAAAsqMAAQAAAAAAsqMAAQAAAAAAslOXOgAAUB4PPvhgrFmzJnUMSuDZZ59NHQEAoCTuueeeGDFiROoYlMALL7yQOgLATilAACBDxx57bPzsZz+LRx99NHUUSmDfffeNUaNGpY4BALBH5s+fH3fccUfqGJRIS0tLDBs2LHUMgDekAAGADM2dOzfmzp2bOgYAAAy49NJLU0cAoMZ4BggAAAAAAJAdBQgAAAAAAJAdBQgAAAAAAJAdBQgAAAAAAJAdBQgAAAAAAJAdBQgAAAAAAJCdutQBAHamWCymjrCNhQsXxnXXXZc6BmXU3d2dOgIAwC656qqr4tZbb00dgzLZd999Y+HChaljbKPSrtMAYHsUIEDFKxQKqSNsY+nSpXH33XenjgEAAAOeeuopY9SMTZo0KXWE16m06zQA2B5LYAEAAAAAANlRgAAAAAAAANlRgAAAAAAAANnxDBAAyNBFF10UV1xxReoYlNBzzz0XEydOTB0DAGC3vf3tb48nn3wydQxKaP369TFy5MjUMQB2SAECAJl66KGHoqWlJXUMSuDiiy9OHQEAoCTWrVsXo0ePTh2DEjjzzDNTRwDYKUtgAQAAAAAA2VGAAAAAAAAA2VGAAAAAAAAA2VGAAAAAAAAA2VGAAAAAAAAA2VGAAAAAAAAA2VGAAAAAAAAA2alLHQBgZ4rFYuoI25g0aVLMmjUrdQwAABgwZcoUY9SM7bvvvqkjvE6lXacBwPYoQICKVygUUkfYxllnnRVnnXVW6hgAADDgi1/8Ynzxi19MHYMaUmnXaQCwPZbAAgAAAAAAsqMAAQAAAAAAsqMAAQAAAAAAsqMAAQAAAAAAsqMAAQAAAAAAsqMAAQAAAAAAsqMAAQAAAAAAsqMAAQAAAAAAsqMAAQAAAAAAsqMAAQAAAAAAslOXOgAAULkWLFgQfX19qWNUtYaGhrjoootSxwAAyEJvb290dHSkjlH1JkyYEOeee27qGABlpwABAHZowYIFsXXr1tQxqtqYMWMUIAAAJdLb2xuXXXZZ6hhV76ijjlKAADXBElgAAAAAAEB2zAAB2EUvv/xyrFmzJnUMyuiAAw5IHQEAYJe89NJL8bvf/S51DMqkrq4u9ttvv9QxAKDqKEAAdtG6deti6dKlqWNQRgoQAKDarFmzJlauXJk6BmVSX1+vAAGA3WAJLAAAAAAAIDsKEAAAAAAAIDsKEAAAAAAAIDsKEAAAAAAAIDsKEAAAAAAAIDt1qQMAAJVr1qxZ0dfXlzpGVWtsbEwdAQAgGw0NDdHa2po6RtWbMmVK6ggAg0IBAgDs0J133pk6AgAADGhubo677rordQwAqoQlsAAAAAAAgOyYAQKwi/baa6+YNGlS6hgAADBg7NixMWzYsNQxKJO6Ot++AYDd4X9QgF00evToGD16dOoYAAAwYO+994699947dQwAgIpiCSwAAAAAACA7ChAAAAAAACA7ChAAAAAAACA7ChAAAAAAACA7ChAAAAAAACA7ChAAAAAAACA7ChAAAAAAACA7ChAAAAAAACA7dakDAFSb1atXx4oVK1LHoIymTZuWOkLFWLp0aRSLxdQxqtqQIUNi//33Tx0DgMwtX748XnzxxdQxKJP6+vp4+9vfnjpGRdi6dWssW7YsdYyqV19fH83NzaljAJSdAgRgF23atCnWrVuXOgYMiiVLlqSOUPWGDh2qAAGg7DZs2GCMmrH6+vrUESrGli1bYunSpaljVL3GxkYFCFATLIEFAAAAAABkRwECAAAAAABkRwECAAAAAABkRwECAAAAAABkRwECAAAAAABkRwECAAAAAABkRwECAAAAAABkRwECVLxisZg6AjWm0v7OVVoeAMD/z+DfAADVoC51AIBqM3HixJg4cWLqGDAoZsyYkToCAPAmHHzwwXHwwQenjgFlN3z4cGNUAN40M0AAAAAAAIDsKEAAAAAAAIDsKEAAAAAAAIDseAYIALBD69atq5oHXNbV1UVjY2PqGAAAlFFfX1+8/PLLqWO8afX19TFixIjUMQBqlgIEANihRx55JHWEN22vvfaKadOmpY4BAEAZvfLKK7Fo0aLUMd60t7zlLTFlypTUMQBqliWwAAAAAACA7ChAAAAAAACA7ChAAAAAAACA7ChAAAAAAACA7ChAAAAAAACA7ChAAAAAAACA7ChAAAAAAACA7ChAAAAAAACA7NSlDgAAVK4ZM2akjgAAAAOGDx9ujArAm2YGCAAAAAAAkB0FCAAAAAAAkB0FCAAAAAAAkB0FCAAAAAAAkB0FCAAAAAAAkB0FCAAAAAAAkB0FCAAAAAAAkB0FCAAAAAAAkB0FCAAAAAAAkB0FCAAAAAAAkB0FCAAAAAAAkB0FCAAAAAAAkB0FCAAAAAAAkB0FCAAAAAAAkB0FCAAAAAAAkB0FCAAAAAAAkJ261AEAgNLbuHFjvPTSS/H888+njkIJbN68OXUEAIA9tnXr1njhhRdiw4YNqaNQAlu3bk0dAWCnFCAAkKHbb789brnllmhoaEgdhRKYMGFC6ggAAHvsueeei5NOOimGDLEgSQ6amppSRwDYKQUIAGTojDPOiLPPPjtaWlpSR6EELr744tQRAAD22IEHHhi/+MUvYvTo0amjUAJnnnlm6ggAO6VyBwAAAAAAsqMAAQAAAAAAsqMAAQAAAAAAsqMAAQAAAAAAsqMAAQAAAAAAsqMAAQAAAAAAsqMAAQAAAAAAsqMAAQAAAAAAsqMAAQAAAAAAslOXOgAAMLguvfTSeOCBB8p+nEsuuSTmzJlT9uMAAFD9PvrRj8bSpUvLfpx/+qd/ikMPPbTsxwGgMihAAKDG9PT0xJ133ln243zsYx8r+zEAAMjD/fffH48//njZj7N27dqyHwOAymEJLAAAAAAAIDsKEAAAAAAAIDsKEAAAAAAAIDsKEAAAAAAAIDsegg4ANeYd73hHrFmzpuzHGTduXNmPAQBAHqZPnx5jx44t+3FGjRpV9mMAUDkUIABQY6688srUEQAAYBv/9m//ljoCABmyBBYAAAAAAJAdBQgAAAAAAJAdBQgAAAAAAJAdBQgAAAAAAJAdBQgAAAAAAJAdBQgAAAAAAJAdBQgAAAAAAJCdutQBAHZm06ZN0d3dnToGJPPSSy+ljgAAvMbatWuNUalpjzzySOoIALBTChCg4q1evTpmz56dOgZUnX/+53+O5ubm1DEogXvuuSc++9nPpo4BwKs8/PDDxqiwGy6//PIYPnx46hiUwKOPPpo6AsBOKUCAilcsFlNHgKrzqU99KpYsWZI6BiXS2toa48aNSx0DgFcxRoVdd8MNN8SGDRtSx6BEWltbo6GhIXUMgDekAAGADB100EFx0EEHpY4BAAADjjnmmNQRAKgxHoIOAAAAAABkRwECAAAAAABkRwECAAAAAABkRwECAAAAAABkRwECAAAAAABkRwECAAAAAABkRwECAAAAAABkRwECAAAAAABkRwECAAAAAABkRwECAAAAAABkRwECAAAAAABkpy51AICd+cpXvpI6AlSE888/P3UEAOD/GaPC7xmjAlDJFCBAxTv88MOjtbU1dQxIqr29fZe2P+CAA2Lp0qXlCcOg+5u/+Zu49NJLU8cA4FWMUSGitbX1TRcgmzdvjuHDh5c5EYPppptuirPPPjt1DIA3ZAksAAAAAAAgOwoQAAAAAAAgOwoQAAAAAAAgOwoQAAAAAAAgOwoQAAAAAAAgOwoQAAAAAAAgOwoQAAAAAAAgOwoQIAu9vb1x5JFHRqFQiNmzZ293m87OzigUCjF27Njo7Ozc7jazZ8+OQqEQRx55ZPT29r7u/e7u7hg7dmwUCoVob28v4a8AAIDc9PT0xFvf+tYoFArx0Y9+dLvbtLe3D4xRe3p6Xvd+qca5AAC1SAECZKGjo2PggrG7uzu6urpet80XvvCFiPj9RWT/j1+ts7Mzuru7I+L3F6sdHR2v26a9vX2gGLnssstKFR8AgAx1dHTE4sWLI2LbsWa/3t7egTFlb29vtLW1bXcfezrOBQCoVQoQIAtNTU073WbMmDHb/fGO9rG9fb76te3tAwAA+u1sfNnU1LTNmHJn488d2dk4FwCgVtWlDgBQCm1tbdHT0xM9PT0xb968mDdv3uu26erqGrirbnuzO+bNmxef//zno7u7O1pbW7d7B17/sleLFy+2BBYAAG+ovb09Fi9eHL29vTF//vxoaWl53TadnZ3R3t4ekydP3u74shTjXACAWqUAAbKxs/WOW1paXrfswGvt7IKxpaVlu8sOAADAazU1Ne107LijUuPVSjHOBQCoRZbAAgAAAAAAsmMGCABkaMmSJakjAADAgPr6+igWi6ljAFBjzAABAAAAAACyowABAAAAAACyowABAAAAAACyowABAAAAAACyowABAAAAAACyowABAAAAAACyowABAAAAAACyowABAAAAAACyowABAAAAAACyowABAAAAAACyowABstDe3h6FQsFXBX8BANSa1tbW5GMwXzv+am1tTf1XBAAoMwUIAAAAAACQnbrUAQCA0lu+fHls2bIldQxKpKmpKfbaa6/UMQAA9siSJUtSR6CExo0bFyNHjkwdA+ANKUAAIEPLli2LzZs3p45BiRQKBQUIAFDVisViLF26NHUMSmjkyJEKEKDiWQILAAAAAADIjgIEAAAAAADIjgIEAAAAAADIjgIEAAAAAADIjgIEAAAAAADITl3qAAClMH/+/GhtbU0dAwAABnR0dERvb2/qGOxAU1NT6ggAQJkpQIAsTJ48OSZPnpw6BgAADGhpaUkdAQCgplkCCwAAAAAAyI4CBAAAAAAAyI4CBAAAAAAAyI4CBAAAAAAAyI4CBAAAAAAAyE5d6gAApbBmzZp4+eWXU8eoCfX19dHc3Jw6BjsxceLE2LJlS+oYlMiYMWNSRwBgN7zwwguxYcOG1DFqwsiRI2PcuHGpY/AGCoVCTJo0KXUMSmjkyJGpIwDslAIEyMKaNWtixYoVqWPUhJEjRypAqsB+++2XOgIA1LwXXngh1qxZkzpGTdh7770VIFXggAMOSB0BgBpjCSwAAAAAACA7ChAAAAAAACA7ChAAAAAAACA7ChAAAAAAACA7ChAAAAAAACA7dakDAJTC2LFjo67OKW0w1NfXp44AAFAVxo8fH6NGjUodoyaMHDkydQQAoAL5biGQhbFjx8bYsWNTxwAAgAHjx49PHQEAoKZZAgsAAAAAAMiOGSAAkKHHH388tmzZkjpG1SsUCnH44YenjgEAkIVFixaljpCF4cOHx5QpU1LHAKgKChAAyNDLL78cmzdvTh2j6hUKhdQRAACyUCwWY+3ataljZGHEiBGpIwBUDUtgAQAAAAAA2VGAAAAAAAAA2VGAAAAAAAAA2VGAAAAAAAAA2VGAAAAAAAAA2VGAAAAAAAAA2VGAAAAAAAAA2alLHQBgZ77whS9EU1NT6hiQ1OLFi6O9vT11DADg/xmjQsTDDz+cOgIAvCEFCFDxrr766mhtbU0dA5JSfgBAZTFGhfBvAICKZwksAAAAAAAgOwoQAAAAAAAgOwoQAAAAAAAgO54BAgAZOvTQQ6Ovry91jKpXKBRSRwAAyEKhUIipU6emjpGFoUOHpo4AUDUUIACQodGjR6eOAAAA2xgzZkzqCADUGEtgAQAAAAAA2VGAAAAAAAAA2VGAAAAAAAAA2VGAAAAAAAAA2VGAAAAAAAAA2alLHQCgWrz44ouxfPny1DFqwv777x9jx45NHQMAoOKtWLEiVq9enTpGTTjooIOisbExdQwAYBcoQADepE2bNsW6detSx6gJmzdvTh0BAKAqbNiwwRh1kGzdujV1BABgF1kCCwAAAAAAyI4ZIEA2uru7o6OjI1paWqK3tzciItra2mLy5MlpgwEAULO6urqiq6srJk+eHIsXL46mpqZob2+Ppqam1NEAALKnAAGy0N3dHd3d3dHV1TXwWm9vb7S1tUVHR4cLTAAABl1XV1f09vZGZ2fnwGu9vb0xf/78bcatAACUhyWwgCx0dXVFe3t79PT0RFtbW7S1tQ3cXffqC04AABgsnZ2dMX/+/Oju7o62traBmR8KEACAwaEAAbLS3t4eHR0d0draGp2dnQNLDQAAwGBavHhxtLS0RMTvb9bpX6q1u7s75s2bFz09PYkTAgDkzxJYQFZaWlri+uuvj+7u7virv/qriIiB54HsqXHjxkVjY2NJ9sUbGzlyZOoIAAB75LXPobvlllsGZoKUanwaEbHffvvFPvvsU7L9sWOuBQCg+ihAgKz0L4M1a9asmDx5cnR3d0dra2tJ9l1fXx/19fUl2RcAAPnrn4nc0dExUH5Mnjw5Ojs7Y968eSU5RkNDQzQ0NJRkXwAAubEEFpCFefPmRUdHR0T8fhZI/x13/esuAwDAYGttbY3u7u6BH/ePUbu7uweWxwIAoHwUIEAWWltbo6enZ5vlBLq6uko2+wMAAHbV/PnzB27S6dfR0eEGHQCAQWIJLCAbHR0d0dbWFp2dndHb2xtdXV3R2dlZsv1v3rw5NmzYULL9VZrhw4dbPgEAoMTa29ujra0tOjo6Bm7YKeVNOhs3boxNmzaVbH+VZsSIEZahBQB2mwIEyEZTU9PAUljd3d0lLT8iIlavXh3PPPNMSfdZSSZOnPi6h3UCALBnWlpaoqWlJTo7O6O7u/t1M0L21PLly2PFihUl3WclOfjgg6O5uTl1DACgSlkCC8jKvHnzoqmpKdrb26OpqSl1HAD4v/buN0ir8j4f+AUCS9V1d9OCiiIbNEGSoKiARLFsTEU0VWikCR1b3UYz1k5SMWkTEhlZEi3TaRpJ2sk4TSdCddCEEEWdaMVEJIZUiQVEkJJUERQIErN2yz9pw+9FZjdm2p8musv97NnPZ2bHmefF8XrxcM/3PNe57wOQ1tbWrF271owKAHCY2QECVI4zlQEAqDXdvfMDAIA3ZgcIAAAAAABQOQoQAAAAAACgchQgAAAAAABA5XgHCMCvqb6+PsOHDy8do8ccc8wxpSMAAPAbampqyoAB1b21P/roo0tHAAB6sepOSQDdrL6+PvX19aVjAABAl6ampjQ1NZWOAQBQkxyBBQAAAAAAVI4CBAAAAAAAqBwFCAAAAAAAUDkKEAAAAAAAoHIUIAAAAAAAQOUoQAAAAAAAgMpRgAAAAAAAAJUzoHQAgDeycOHCrFixonQMKMq/AQCoLWZUSLZs2VI6AgC8LgUIUPNaW1vT0tJSOgYU1dbWVjoCAPAaZlTwkA4AtU8BAgAVdPPNN+fgwYOlY9BNfv/3fz/jxo0rHQMA4E3r6OjI3/3d35WOQTe64oorMnLkyNIxAF6XAgQAKujmm2/Ovn37Ssegmxx33HEKEACgV+vo6Mi8efNKx6AbnXvuuQoQoOZ5CToAAAAAAFA5ChAAAAAAAKByFCAAAAAAAEDlKEAAAAAAAIDK8RJ0gF/Tq6++6qXSh8mRRx6ZgQMHlo4BAFDz9u/fnwMHDpSO0SccffTROeKII0rHAAB+AwoQgF/T7t2789xzz5WO0SeccsopOfbYY0vHAACoedu3b8+OHTtKx+gTxowZk2OOOaZ0DADgN+AILAAAAAAAoHIUIAAAAAAAQOU4AguolEWLFmXt2rVpbGzM5MmT09LSUjoSAAB93KJFi7Jly5YkyZVXXpnm5uaieQAA+go7QIBKaG9vT2traxoaGnLLLbfkuuuuy9q1a7NgwYLS0QAA6KM6Z9QRI0Zk7ty5ue6667Jw4cIsXLiwdDQAgD5BAQJUwoIFC9LW1pbp06fn0UcfTXt7e2bNmpUkWbFiRdlwAAD0SbNmzcqCBQvS0tLSNaO2tbVl7dq1XTtCAADoOY7AAiqhvb09zc3NaWtrS3Nzc2677bbMmjWr6687jsKqr6/P8OHD33pY3tDRRx9dOgIAwFvW2NiYxsbGrnn07rvv7ppP77nnnq4Hdt6KpqamDBjg1v5wqKurKx0BAPgNmZKASmhsbEySrF27Nm1tbWlsbMzatWszduzYtLe3d8v/o76+PvX19d1yLehpN9xwQw4ePFg6Bt1k3LhxpSMA8BvasmVL14yaJNOnT+/6vKWlpdtm1KampjQ1NXXLtaAn1dfXZ+7cuaVj0I1OPvnk0hEA3pACBKiEziME2traup6kW7BgQdfOEOhrbrjhhtIRAKBPa25u7io5WltbM2vWrDQ2NnYdgWVGpa+pr69PW1tb6RgA9DEKEKASxo4dmy1btmTs2LG/8uLzBQsWpLW1tVwwAAD6tPb29v81oy5cuNAPwQAAh4GXoAOV0PlU3Wu1t7fbAQIAQDGzZs36X0VH59FYrz0eCwCAnmEHCFAJjY2NaW1tzT333NN1vvL/dcP5Vmzfvj3PPfdct12v1pxwwgnKIgCAbtTc3Pwr76ZLfnFk62t3g7xVzz77bHbs2NFt16s1J598co477rjSMQCAXsoOEKAypk+fnhUrVmTLli1ZuHBhpk+f7gd9AACKamtrS1tbW9rb29PW1pbW1la7PwAADhMFCFApnTeYa9eu7doJAgAAJS1cuDAtLS1pbGxMS0tL6TgAAH2GI7CASmlsbMyCBQs8VQcAQM1obGzMPffcY3cyAMBhZgcIUDnKDwAAao3yAwDg8FOAAAAAAAAAlaMAAQAAAAAAKsc7QAB+TcOGDcuwYcNKxwAAgC4jR47MyJEjS8cAAKhJdoAAAAAAAACVowABAAAAAAAqxxFYAFBBBw8ezN69e0vHoBs1NDSUjgAA8JYcOHAg+/fvLx2DbtK/f//U19eXjgHwuhQgAFBB7e3t2bx5c+kYdKNzzjkn/fr1Kx0DAOBN27VrV7Zu3Vo6Bt1k0KBBGT9+fOkYAK/LEVgAAAAAAEDlKEAAAAAAAIDKUYAAAAAAAACVowABAAAAAAAqRwECAAAAAABUjgIEAAAAAACoHAUIAAAAAABQOQoQAAAAAACgchQgAAAAAABA5QwoHQDgjaxbty79+vUrHQOKev7550tHAABew4wKySuvvFI6AgC8LgUIUPMOHTqUQ4cOlY4BRfk3AAC1xYwKZlQAap8CBKh5Y8eOTUtLS+kYUNSKFStKRwAAXsOMCkljY2PpCADwuhQgAFBBgwYNSkNDQ+kYdCPHrAAAvV1dXZ0ZtUIGDPCzIlD7rFQAUEENDQ1uLgEAqClDhw7N0KFDS8cAoA/pXzoAAAAAAABAd1OAAAAAAAAAlaMAAQAAAAAAKkcBAgAAAAAAVI4CBAAAAAAAqJwBpQMAAN3v4MGD2bt3b+kYlTB48ODU1dWVjgEA0OsdOHAg+/fvLx2jEo488sgMHDiwdAyAmqcAAXq9LVu2ZNGiRaVjvCkjRoxIa2tr6RiVMW/evNIR3rS5c+d26/Xa29uzefPmbr1mXzV8+PCcdNJJpWMA0Mv05hl18uTJaWlpKR2jMnrrjNoT9yq7du3K1q1bu/WafdU73vGODB06tHQMgJqnAAF6vS1btqStra10jDdl8uTJCpBu1Fu/B0n3FyAAQFm9eUadO3euAqQb9dbvgXsVAKrAO0AAAAAAAIDKUYAAAAAAAACVowABAAAAAAAqRwECAAAAAABUjgIEAAAAAAConAGlAwC8Vc3NzZk7d27pGG9Kc3Nz6QiV0lu/BwBA9fTmGbWlpaV0hErprd8D9yoAVIECBOj1mpub09bWVjoGNcD3AACoFWZUOvkeAEA5jsACAAAAAAAqRwECAA3QO4wAABLNSURBVAAAAABUjgIEAAAAAACoHAUIAAAAAABQOV6CDgAVNGjQoDQ0NJSOUQl1dXWlIwAAVEJdXZ0ZtZsMHDiwdASAXkEBAgAV1NDQ4OYSAICaMnTo0AwdOrR0DAD6EEdgAQAAAAAAlaMAAQAAAAAAKkcBAgAAAAAAVI4CBAAAAAAAqBwFCAAAAAAAUDkDSgcAeCPNzc3ZsmVL6RhQVGtra+kIAMBrmFEhWbhwYekIAPC6FCBAjxgwoPuWl+bm5m67FkBf9t///d9Jkv79bQIG+p5+/fol+eVa+FaZUQG6R+e63LlOA3Qnd79Ajxg8eHCS5JVXXimcBIBOe/fuTeLmEujb9u3bVzoCAK+xf//+1NXVlY4BVJQCBOgRncOLG0yA2tFZgNgBAvRl5lOA2rFnz54kv3yIEqC7ufsFekRjY2MSN5gAtaSzADniiCMKJwEoo66urmstBKC8zjVZAQL0FAUI0COOO+64JMnLL79cOAkAnTo6OlJXV+cILKDP6nxIp729vXASAJLkpz/9aZJf/oYA0N0UIECPOPbYY5Mk27ZtK5wEgCR59tlnk7i5BPq2zjXQjApQGzrX4+bm5rJBgMpSgAA9QgECUFvcXAL8cg00owLUhs712EM6QE9RgAA9YtSoUUmSH/7wh4WTAJAka9asSZKceuqphZMAlNO5BppRAWqDGRXoaQoQoEecfvrpSZJ/+7d/K5wEgOSX6/HYsWMLJwEop3MNNKMC1IbO9VgBAvQUBQjQIzp3gDz99NPZu3dv4TQAPPnkk0kUIEDf1vkDW+eaCEBZq1atSmJGBXqOAgToEY2NjRkxYkSS5KmnniqcBqBv27dvXzZu3Jgkefe73104DUA5nQXICy+8kPb29sJpAPq2DRs2JEl++7d/2ztAgB6jAAF6TEtLSxJHDACU1rkOn3766amvry+cBqCcwYMHZ/LkyUmSxx9/vHAagL6tczfepEmTCicBqkwBAvQYBQhAbei8uexclwH6MjMqQG0wowKHgwIE6DGdQ4wzlgHK6vyRz80lgBkVoFZ0zqhTp04tnASosn6HDh06VDoEUF3Nzc15/vnn8+KLL2bYsGGl4wD0SUOGDElHR0d27tyZxsbG0nEAitq/f3+ampoyePDg7NixI4MHDy4dCaDP2b17d4YMGZIRI0Zky5YtpeMAFWYHCNCjpk+fniT52te+VjgJQN907733Zvfu3Zk4caLyAyC/eA/IhRdemPb29tx9992l4wD0SbfffnsSO5SBnqcAAXpUa2trEgUIQCmd62/negyAGRWgtFtvvTWJGRXoeY7AAnrc2LFjs27dunz3u9/N+973vtJxAPqMzqMFjjrqqPzkJz/JUUcdVToSQE04ePBgTjzxxOzatSvPPvts3v72t5eOBNBnPPHEEzn77LPz9re/Pf/xH/+Rfv36lY4EVJgdIECPmzlzZhJP2AEcbrfddluSZMaMGcoPgNcYOHBg/uAP/iBJsmjRosJpAPqWzt8GrrjiCuUH0OPsAAF63Pbt23PCCSd0vWjSGfQAh8eoUaOyefPmPPzww3n/+99fOg5ATVm9enUmTJiQYcOG5cUXXywdB6DPOProo7Nnz578+Mc/zsknn1w6DlBxdoAAPW7YsGG58sors3///tx1112l4wD0CatWrcrmzZszatSonH/++aXjANSc8ePH5+yzz8727duzfPny0nEA+oTbb789e/bsybRp05QfwGGhAAEOi09/+tPp169f5s+fXzoKQJ9w4403Jklmz57taAGA/49Zs2YlSW666abCSQD6hr/+679O8osZFeBwUIAAh8Xo0aMzZcqUbN26NZ///OdLxwGotGXLluU73/lOTjjhhPzxH/9x6TgANWvGjBkZPXp0Vq5cmcWLF5eOA1BpX/ziF7Np06acffbZmThxYuk4QB+hAAEOm84n7G688cZs3bq1cBqA6vr4xz+eJPnYxz6WAQMGFE4DULsGDBiQv/iLv0iS/OVf/mX27t1bOBFANe3evTttbW1J7P4ADi8FCHDYTJ06NdOmTUuSfOITnyicBqCaPve5z2Xbtm0ZNWpUrr/++tJxAGreRz/60YwfPz47duzIvHnzSscBqKRPfvKT6ejoyPve975Mnz69dBygD+l36NChQ6VDAH3Htm3b8o53vCMHDhzIQw89lAsuuKB0JIDK2LZtW0466aQkyQMPPJCpU6cWTgTQO6xevToTJkxIkvzoRz/KKaecUjgRQHV0rrF1dXVZt25dRo0aVToS0IfYAQIcVsOHD+/a7vrnf/7nhdMAVEvnUYPTpk1TfgD8BsaPH58rr7wyiRkVoLtdffXVSX4xqyo/gMPNDhDgsNu/f38mTpyYdevW5Qtf+EI++clPlo4E0Ot95zvfye/93u+lqakpa9asyYgRI0pHAuhVdu3aldGjR+fll1/O3Xff7YgWgG5w66235tprr83JJ5+cp556KkceeWTpSEAfowABili3bl0mTJiQV199NWvWrMnYsWNLRwLotXbv3p0xY8Zk586dufPOOzNz5szSkQB6pbvuuit/9Ed/lCFDhuTJJ5/M8OHDS0cC6LWeeeaZjB8/Pvv27cv3vve9nHPOOaUjAX2QI7CAIk4//fSul0xefPHF2bFjR+FEAL3XRRddlJ07d+bDH/6w8gPgLZg5c2Y+/OEP56WXXsrUqVOzb9++0pEAeqWf/exnmTJlSvbs2ZO/+qu/Un4AxdgBAhTz85//PGeeeWbWrVuXsWPHZs2aNaUjAfQ6M2bMyNKlS3P88cdnw4YNaWpqKh0JoFd7+eWXM2bMmGzfvj2XXnppli1bVjoSQK9zzjnn5Ac/+EFOO+20rF69OoMGDSodCeij7AABiunfv3/uu+++DBkyJGvXrs2HPvSh0pEAepX58+dn6dKlGThwYG677TblB0A3eNvb3pavf/3rGThwYO69997MmTOndCSAXuXyyy/PD37wgxxzzDFZsmSJ8gMoSgECFDV8+PB861vfysCBA7NkyZLcdNNNpSMB9Ar3339/PvvZzyZJvvzlL+fCCy8snAigOiZNmpR/+Id/SJLcfPPNWbJkSeFEAL3DLbfcksWLF6d///75xje+kXe+852lIwF9nCOwgJpw66235tprr02SLFu2LJdeemnhRAC165lnnslZZ52Vffv25Zprrsmtt95aOhJAJc2ePTt/8zd/kyR54oknMn78+MKJAGrX8uXLM2XKlCS/2Kk8e/bswokAFCBADZk1a1a+9KUv5cgjj8xjjz2WM844o3QkgJqza9eunHXWWXnhhRfS0tKSRx55pHQkgEq75JJLcv/99+fYY4/NE088kZNOOql0JICas3HjxkycODEdHR25+uqr89WvfrV0JIAkjsACasiCBQsye/bs7N27N5MnT873v//90pEAasrzzz+fCRMm5IUXXsi0adPy4IMPlo4EUHl33313Lr/88vzkJz/JxIkTs2nTptKRAGrK2rVrc95556WjoyPXXntt/vEf/7F0JIAuChCgpsyfPz/z589PR0dHJk2alPvvv790JICasGHDhowfPz7PP/98Lr/88nzzm99MXV1d6VgAlTdgwIDcfvvtufzyy7Njx468973vzRNPPFE6FkBNePTRR3Puuefm5ZdfzuzZs/OVr3wl/fr1Kx0LoIsCBKg5s2fPzpe//OUkvzhyYNGiRYUTAZS1cuXKTJw4MS+99FKuuuqq3HHHHRkwYEDpWAB9Rr9+/XLHHXfk+uuvT3t7eyZPnpyHHnqodCyAor7+9a+npaUle/fuzU033ZT58+eXjgTwvyhAgJr08Y9/PN/4xjdSV1eX1tbWfOITnygdCaCIv//7v8/kyZPzX//1X5kzZ07+6Z/+qXQkgD7ri1/8Ym655ZYcOHAgF154Yb7whS+UjgRQxGc+85nMnDkzgwYNyqJFi3LDDTeUjgTwf/ISdKCmPfroo/nDP/zDvPTSS5kwYUK+9a1v5YQTTigdC6DHdXR05CMf+Ui++c1vZtCgQfnqV7+aK664onQsAJIsWbIkra2t2bt3by666KLceeedaWhoKB0LoMft3Lkzl112WVatWpWGhobcf//9mTRpUulYAP9fChCg5v34xz/OjBkzsm7durztbW/LHXfckYsuuqh0LIAes379+kybNi3PPfdcjj/++Nx111353d/93dKxAHiN1atXZ/r06dm+fXtOOumk3HPPPTnjjDNKxwLoMa99QPGd73xnli5dmve85z2lYwG8LkdgATXvlFNOyerVq/OZz3wmr7zySi6++OL86Z/+aX7605+WjgbQrfbv3585c+bktNNOy3PPPZcZM2Zk48aNyg+AGjR+/Phs2LAhV111VbZu3Zozzzwzn/rUp7J3797S0QC6VXt7e6655pq0tLRk9+7d+djHPpZ169YpP4BewQ4QoFdZtWpV/uRP/iTPPvtsmpqaMn/+/FxzzTWlYwG8Zf/yL/+Sj370o9m2bVuGDBmSr3zlK5kxY0bpWAD8Gu67775cffXV2bVrV4YPH54FCxbkgx/8YOlYAG/Z1772tXz605/O7t2709zcnNtuuy0tLS2lYwH82uwAAXqVc845Jxs3bsznPve5HDhwIH/2Z3+WMWPGZOnSpaWjAbwpjz32WM4///xMnTo1L774Yq6++ups2rRJ+QHQi1xyySV55plnct1112XHjh257LLLct555+W73/1u6WgAb8qyZcty5pln5qqrrkpHR0c+9alPZcOGDcoPoNexAwTotV544YV89rOfzR133JFDhw7lPe95T9ra2nLZZZeVjgbwhh577LHceOONeeSRR5IkkydPzpe+9KWcfvrphZMB8FZs2rQp119/fR588MEkyaRJkzJv3rycf/75hZMBvLFly5Zl3rx5WbNmTZLkgx/8YP72b/82I0eOLJwM4M2xAwTotU488cT88z//cx5//PFceumlefrppzNjxgw7QoCa1rnj47zzzssjjzyScePG5d57782KFSuUHwAVcOqpp+aBBx7I8uXLM27cuDz22GN5//vfb0cIUNM6d3xMnz49a9asyQUXXJCVK1dm6dKlyg+gV7MDBKiM9evXZ86cObn33nuTJMcff3wuuuiifOADH8iUKVNy9NFHF04I9FXLly/Pt7/97Xz729/O5s2bkyQTJkzInDlzcskllxROB0BPevjhh/P5z38+K1euTJKMHDkyH/jAB3LxxRdn6tSphdMBfdWePXvy8MMPd82oL7zwQpJfHOl34403Zty4cYUTAnQPBQhQOU8//XRuv/323Hnnndm2bVvX5+edd16mTJmSCy64IGeffXbBhEDVbdiwIcuXL89DDz2URx99NHv37k2SNDU15bLLLsuVV16ZSZMmFU4JwOH0/e9/P4sXL86SJUvy0ksvJUl+67d+q2tGnTJlSsaMGVM4JVBlP/zhD/PQQw9l+fLlWbFiRdfnxx9/fD70oQ/lIx/5SE477bRyAQF6gAIEqLSVK1dm8eLFWbZsWXbu3Nn1+THHHJNzzz03o0ePzqhRozJ69OiceuqpGTJkSMG0QG+zZ8+ebNiwIZs2bcrmzZvz1FNP5V//9V+7fthKkoaGhkydOjUzZ87M9OnTC6YFoFY88MADWbx4ce6777688sorXZ//zu/8Ts4999yceuqpXX+jR49OQ0NDwbRAb/PKK69k/fr12bRpU370ox9l/fr1WbVq1a+sN0OGDMkll1ySmTNn5oILLiiYFqBnKUCAPuPpp5/Ogw8+mAcffDDf+9738uqrr5aOBFRQ//79c9ZZZ2Xq1Km58MILM3HixBxxxBGlYwFQg/7nf/4njz/+eNeM+uSTT+bnP/956VhABQ0cODDvfe97u2bUM844I/369SsdC6DHKUCAPmv9+vXZuHFj19/OnTvzs5/9LB0dHfnP//zPtLe3l44I1KBjjjkm9fX1Xf899thjM3r06LzrXe/K6NGj8+53vztHHXVU6ZgA9EJ79uzJv//7v/+vGbVzPu3o6PiVJ7gBOjU2Nqa+vr5rTj3xxBO75tN3vetdjrYC+iwFCAAAAAAAUDn9SwcAAAAAAADobgoQAAAAAACgchQgAAAAAABA5ShAAAAAAACAylGAAAAAAAAAlaMAAQAAAAAAKkcBAgAAAAAAVI4CBAAAAAAAqBwFCAAAAAAAUDkKEAAAAAAAoHIUIAAAAAAAQOUoQAAAAAAAgMpRgAAAAAAAAJWjAAEAAAAAACpHAQIAAAAAAFSOAgQAAAAAAKgcBQgAAAAAAFA5ChAAAAAAAKByFCAAAAAAAEDlKEAAAAAAAIDKUYAAAAAAAACVowABAAAAAAAqRwECAAAAAABUjgIEAAAAAACoHAUIAAAAAABQOQoQAAAAAACgchQgAAAAAABA5ShAAAAAAACAylGAAAAAAAAAlaMAAQAAAAAAKuf/AdXyo3zi9v1iAAAAAElFTkSuQmCC;" parent="1" vertex="1">
          <mxGeometry x="20" y="20" width="2360" height="2360" as="geometry" />
        </mxCell>
        <mxCell id="Wa40OCxVbB49ns8dWp_5-6" value="&lt;font style=&quot;font-size: 60px;&quot;&gt;Live (production)&lt;/font&gt;" style="rounded=0;whiteSpace=wrap;html=1;strokeColor=none;" parent="1" vertex="1">
          <mxGeometry x="890" y="40" width="640" height="100" as="geometry" />
        </mxCell>
        <mxCell id="Wa40OCxVbB49ns8dWp_5-7" value="&lt;font style=&quot;font-size: 60px;&quot;&gt;Development (non-production)&lt;/font&gt;" style="rounded=0;whiteSpace=wrap;html=1;strokeColor=none;" parent="1" vertex="1">
          <mxGeometry x="270" y="1330" width="860" height="120" as="geometry" />
        </mxCell>
        <mxCell id="Wa40OCxVbB49ns8dWp_5-8" value="&lt;font style=&quot;font-size: 60px;&quot;&gt;Staging (non-production)&lt;/font&gt;" style="rounded=0;whiteSpace=wrap;html=1;strokeColor=none;" parent="1" vertex="1">
          <mxGeometry x="1290" y="1320" width="870" height="130" as="geometry" />
        </mxCell>
      </root>
    </mxGraphModel>
  </diagram>
</mxfile>
